Roboto Serif Text-Hairline.ufo
<glyph name="exclam" format="2">
  <advance width="216"/>
  <unicode hex="0021"/>
  <outline>
    <contour>
      <point x="133" y="735" type="line"/>
      <point x="133" y="544"/>
      <point x="122" y="430"/>
      <point x="122" y="170" type="curve"/>
      <point x="94" y="170" type="line"/>
      <point x="94" y="430"/>
      <point x="83" y="543"/>
      <point x="83" y="735" type="curve"/>
    </contour>
    <component base="period" xOffset="10"/>
  </outline>
</glyph>
<glyph name="numbersign" format="2">
  <advance width="628"/>
  <unicode hex="0023"/>
  <outline>
    <contour>
      <point x="96" y="0" type="line"/>
      <point x="126" y="0" type="line"/>
      <point x="326" y="750" type="line"/>
      <point x="296" y="750" type="line"/>
    </contour>
    <contour>
      <point x="47" y="260" type="line"/>
      <point x="551" y="260" type="line"/>
      <point x="551" y="300" type="line"/>
      <point x="47" y="300" type="line"/>
    </contour>
    <contour>
      <point x="93" y="470" type="line"/>
      <point x="597" y="470" type="line"/>
      <point x="597" y="510" type="line"/>
      <point x="93" y="510" type="line"/>
    </contour>
    <contour>
      <point x="301" y="0" type="line"/>
      <point x="331" y="0" type="line"/>
      <point x="531" y="750" type="line"/>
      <point x="499" y="750" type="line"/>
    </contour>
  </outline>
</glyph>
<glyph name="ampersand" format="2">
  <advance width="697"/>
  <unicode hex="0026"/>
  <outline>
    <contour>
      <point x="585" y="326" type="curve" smooth="yes"/>
      <point x="591" y="359"/>
      <point x="619" y="364"/>
      <point x="663" y="364" type="curve" smooth="yes"/>
      <point x="665" y="364" type="line"/>
      <point x="665" y="394" type="line"/>
      <point x="475" y="394" type="line"/>
      <point x="475" y="364" type="line"/>
      <point x="477" y="364" type="line" smooth="yes"/>
      <point x="505" y="364"/>
      <point x="550" y="361"/>
      <point x="550" y="354" type="curve" smooth="yes"/>
      <point x="550" y="242"/>
      <point x="466" y="20"/>
      <point x="287" y="20" type="curve" smooth="yes"/>
      <point x="161" y="20"/>
      <point x="97" y="93"/>
      <point x="97" y="197" type="curve" smooth="yes"/>
      <point x="97" y="301"/>
      <point x="155" y="350"/>
      <point x="254" y="387" type="curve"/>
      <point x="248" y="413" type="line"/>
      <point x="139" y="380"/>
      <point x="57" y="311"/>
      <point x="57" y="197" type="curve" smooth="yes"/>
      <point x="57" y="74"/>
      <point x="142" y="-10"/>
      <point x="283" y="-10" type="curve" smooth="yes"/>
      <point x="495" y="-10"/>
      <point x="565" y="223"/>
    </contour>
    <contour>
      <point x="687" y="0" type="line"/>
      <point x="687" y="30" type="line"/>
      <point x="660" y="30" type="line" smooth="yes"/>
      <point x="616" y="30"/>
      <point x="598" y="46"/>
      <point x="566" y="74" type="curve" smooth="yes"/>
      <point x="323" y="285"/>
      <point x="238" y="420"/>
      <point x="238" y="552" type="curve" smooth="yes"/>
      <point x="238" y="643"/>
      <point x="286" y="688"/>
      <point x="353" y="688" type="curve" smooth="yes"/>
      <point x="414.64893617" y="688"/>
      <point x="447" y="645"/>
      <point x="447" y="587" type="curve" smooth="yes"/>
      <point x="447" y="496"/>
      <point x="363" y="450"/>
      <point x="260" y="416" type="curve"/>
      <point x="274" y="392" type="line"/>
      <point x="381" y="427"/>
      <point x="487" y="487"/>
      <point x="487" y="587" type="curve" smooth="yes"/>
      <point x="487" y="665"/>
      <point x="439" y="718"/>
      <point x="353" y="718" type="curve" smooth="yes"/>
      <point x="262.171974522" y="718"/>
      <point x="198" y="656"/>
      <point x="198" y="552" type="curve" smooth="yes"/>
      <point x="198" y="374"/>
      <point x="364" y="192"/>
      <point x="591" y="0" type="curve"/>
    </contour>
  </outline>
</glyph>
<glyph name="quotesingle" format="2">
  <advance width="243"/>
  <unicode hex="0027"/>
  <outline>
    <contour>
      <point x="145" y="710" type="line"/>
      <point x="145" y="626"/>
      <point x="137" y="582"/>
      <point x="137" y="456" type="curve"/>
      <point x="106" y="456" type="line"/>
      <point x="106" y="582"/>
      <point x="98" y="625"/>
      <point x="98" y="710" type="curve"/>
    </contour>
  </outline>
</glyph>
<glyph name="plus" format="2">
  <advance width="560"/>
  <unicode hex="002B"/>
  <outline>
    <contour>
      <point x="262" y="533" type="line"/>
      <point x="262" y="149" type="line"/>
      <point x="296" y="149" type="line"/>
      <point x="296" y="533" type="line"/>
    </contour>
    <contour>
      <point x="467" y="356" type="line"/>
      <point x="93" y="356" type="line"/>
      <point x="93" y="326" type="line"/>
      <point x="467" y="326" type="line"/>
    </contour>
  </outline>
</glyph>
<glyph name="comma" format="2">
  <advance width="215"/>
  <unicode hex="002C"/>
  <outline>
    <contour>
      <point x="81" y="-123" type="line"/>
      <point x="133" y="-83"/>
      <point x="155" y="-35"/>
      <point x="155" y="14" type="curve" smooth="yes"/>
      <point x="155" y="48"/>
      <point x="137" y="64"/>
      <point x="113" y="64" type="curve" smooth="yes"/>
      <point x="92" y="64"/>
      <point x="76" y="48"/>
      <point x="76" y="27" type="curve" smooth="yes"/>
      <point x="76" y="4"/>
      <point x="89" y="-10"/>
      <point x="112" y="-10" type="curve" smooth="yes"/>
      <point x="127" y="-10"/>
      <point x="139" y="-3"/>
      <point x="142" y="12" type="curve"/>
      <point x="128" y="19"/>
      <point x="131" y="6"/>
      <point x="131" y="5" type="curve"/>
      <point x="131" y="-25"/>
      <point x="104" y="-75"/>
      <point x="55" y="-107" type="curve"/>
    </contour>
  </outline>
</glyph>
<glyph name="zero" format="2">
  <advance width="560"/>
  <unicode hex="0030"/>
  <outline>
    <contour>
      <point x="280" y="-11" type="curve" smooth="yes"/>
      <point x="416" y="-11"/>
      <point x="520" y="122"/>
      <point x="520" y="304" type="curve" smooth="yes"/>
      <point x="520" y="486"/>
      <point x="416" y="619"/>
      <point x="280" y="619" type="curve" smooth="yes"/>
      <point x="144" y="619"/>
      <point x="40" y="486"/>
      <point x="40" y="304" type="curve" smooth="yes"/>
      <point x="40" y="122"/>
      <point x="144" y="-11"/>
    </contour>
    <contour>
      <point x="280" y="19" type="curve" smooth="yes"/>
      <point x="160" y="19"/>
      <point x="83" y="135"/>
      <point x="83" y="304" type="curve" smooth="yes"/>
      <point x="83" y="472"/>
      <point x="160" y="589"/>
      <point x="280" y="589" type="curve" smooth="yes"/>
      <point x="400" y="589"/>
      <point x="477" y="472"/>
      <point x="477" y="304" type="curve" smooth="yes"/>
      <point x="477" y="134"/>
      <point x="400" y="19"/>
    </contour>
  </outline>
</glyph>
<glyph name="less" format="2">
  <advance width="560"/>
  <unicode hex="003C"/>
  <outline>
    <contour>
      <point x="460" y="529" type="line"/>
      <point x="100" y="352" type="line"/>
      <point x="100" y="326" type="line"/>
      <point x="120" y="326" type="line"/>
      <point x="460" y="492" type="line"/>
    </contour>
    <contour>
      <point x="460" y="170" type="line"/>
      <point x="117" y="338" type="line"/>
      <point x="100" y="337" type="line"/>
      <point x="100" y="310" type="line"/>
      <point x="460" y="133" type="line"/>
    </contour>
  </outline>
</glyph>
<glyph name="at" format="2">
  <advance width="886"/>
  <unicode hex="0040"/>
  <outline>
    <contour>
      <point x="460" y="-125" type="curve" smooth="yes"/>
      <point x="233" y="-125"/>
      <point x="75" y="14"/>
      <point x="75" y="234" type="curve" smooth="yes"/>
      <point x="75" y="469"/>
      <point x="250" y="646"/>
      <point x="486" y="646" type="curve" smooth="yes"/>
      <point x="695" y="646"/>
      <point x="814" y="513"/>
      <point x="814" y="342" type="curve" smooth="yes"/>
      <point x="814" y="165"/>
      <point x="732" y="75"/>
      <point x="646" y="75" type="curve" smooth="yes"/>
      <point x="583" y="75"/>
      <point x="555" y="109"/>
      <point x="567" y="179" type="curve" smooth="yes"/>
      <point x="617" y="468" type="line"/>
      <point x="594" y="468" type="line"/>
      <point x="566" y="399" type="line"/>
      <point x="562" y="393" type="line"/>
      <point x="519" y="139" type="line"/>
      <point x="523" y="143" type="line"/>
      <point x="527" y="90"/>
      <point x="569" y="53"/>
      <point x="643" y="53" type="curve" smooth="yes"/>
      <point x="747" y="53"/>
      <point x="844" y="159"/>
      <point x="844" y="342" type="curve" smooth="yes"/>
      <point x="844" y="532"/>
      <point x="705" y="673"/>
      <point x="486" y="673" type="curve" smooth="yes"/>
      <point x="236" y="673"/>
      <point x="45" y="487"/>
      <point x="45" y="234" type="curve" smooth="yes"/>
      <point x="45" y="-5"/>
      <point x="219" y="-153"/>
      <point x="460" y="-153" type="curve" smooth="yes"/>
      <point x="568" y="-153"/>
      <point x="660" y="-120"/>
      <point x="713" y="-88" type="curve"/>
      <point x="704" y="-62" type="line"/>
      <point x="649" y="-94"/>
      <point x="566" y="-125"/>
    </contour>
    <contour>
      <point x="407" y="49" type="curve" smooth="yes"/>
      <point x="470" y="49"/>
      <point x="506" y="95"/>
      <point x="550" y="159" type="curve"/>
      <point x="546" y="192" type="line"/>
      <point x="501" y="124"/>
      <point x="466" y="76"/>
      <point x="407" y="76" type="curve" smooth="yes"/>
      <point x="344" y="76"/>
      <point x="311" y="123"/>
      <point x="311" y="221" type="curve" smooth="yes"/>
      <point x="311" y="329"/>
      <point x="376" y="447"/>
      <point x="468" y="447" type="curve" smooth="yes"/>
      <point x="521" y="447"/>
      <point x="553" y="420"/>
      <point x="574" y="330" type="curve"/>
      <point x="581" y="379" type="line"/>
      <point x="567" y="445"/>
      <point x="528" y="474"/>
      <point x="471" y="474" type="curve" smooth="yes"/>
      <point x="353" y="474"/>
      <point x="269" y="353"/>
      <point x="269" y="221" type="curve" smooth="yes"/>
      <point x="269" y="111"/>
      <point x="326" y="49"/>
    </contour>
  </outline>
</glyph>
<glyph name="A" format="2">
  <advance width="678"/>
  <unicode hex="0041"/>
  <outline>
    <contour>
      <point x="179" y="298" type="line"/>
      <point x="179" y="268" type="line"/>
      <point x="493" y="268" type="line"/>
      <point x="493" y="298" type="line"/>
    </contour>
    <contour>
      <point x="328" y="704" type="line"/>
      <point x="561" y="40" type="line"/>
      <point x="561" y="33"/>
      <point x="513" y="30"/>
      <point x="475" y="30" type="curve" smooth="yes"/>
      <point x="458" y="30" type="line"/>
      <point x="458" y="0" type="line"/>
      <point x="668" y="0" type="line"/>
      <point x="668" y="30" type="line"/>
      <point x="663" y="30" type="line"/>
      <point x="629" y="30"/>
      <point x="607" y="32"/>
      <point x="598" y="58" type="curve" smooth="yes"/>
      <point x="366" y="710" type="line"/>
      <point x="309" y="710" type="line"/>
      <point x="85" y="73" type="line" smooth="yes"/>
      <point x="72" y="36"/>
      <point x="52" y="30"/>
      <point x="15" y="30" type="curve"/>
      <point x="10" y="30" type="line"/>
      <point x="10" y="0" type="line"/>
      <point x="213" y="0" type="line"/>
      <point x="213" y="30" type="line"/>
      <point x="198" y="30" type="line" smooth="yes"/>
      <point x="160" y="30"/>
      <point x="114" y="37"/>
      <point x="114" y="48" type="curve"/>
      <point x="339" y="693" type="line"/>
    </contour>
  </outline>
</glyph>
<glyph name="B" format="2">
  <advance width="622"/>
  <unicode hex="0042"/>
  <outline>
    <contour>
      <point x="335" y="710" type="curve" smooth="yes"/>
      <point x="45" y="710" type="line"/>
      <point x="45" y="680" type="line"/>
      <point x="56" y="680" type="line" smooth="yes"/>
      <point x="105" y="680"/>
      <point x="141" y="673"/>
      <point x="141" y="644" type="curve" smooth="yes"/>
      <point x="141" y="66" type="line" smooth="yes"/>
      <point x="141" y="37"/>
      <point x="105" y="30"/>
      <point x="56" y="30" type="curve" smooth="yes"/>
      <point x="45" y="30" type="line"/>
      <point x="45" y="0" type="line"/>
      <point x="345" y="0" type="line" smooth="yes"/>
      <point x="485" y="0"/>
      <point x="569" y="73"/>
      <point x="569" y="191" type="curve" smooth="yes"/>
      <point x="569" y="295"/>
      <point x="493" y="365"/>
      <point x="349" y="381" type="curve"/>
      <point x="370" y="364" type="line"/>
      <point x="370" y="384" type="line"/>
      <point x="348" y="367" type="line"/>
      <point x="473" y="385"/>
      <point x="538" y="449"/>
      <point x="538" y="539" type="curve" smooth="yes"/>
      <point x="538" y="643"/>
      <point x="462" y="710"/>
    </contour>
    <contour>
      <point x="171" y="387" type="line"/>
      <point x="171" y="357" type="line"/>
      <point x="323" y="357" type="line" smooth="yes"/>
      <point x="456" y="357"/>
      <point x="524" y="289"/>
      <point x="524" y="192" type="curve" smooth="yes"/>
      <point x="524" y="88"/>
      <point x="462" y="30"/>
      <point x="345" y="30" type="curve" smooth="yes"/>
      <point x="181" y="30" type="line"/>
      <point x="181" y="680" type="line"/>
      <point x="335" y="680" type="line" smooth="yes"/>
      <point x="440" y="680"/>
      <point x="495" y="628"/>
      <point x="495" y="538" type="curve" smooth="yes"/>
      <point x="495" y="449"/>
      <point x="436" y="387"/>
      <point x="315" y="387" type="curve" smooth="yes"/>
    </contour>
  </outline>
</glyph>
<glyph name="E" format="2">
  <advance width="596"/>
  <unicode hex="0045"/>
  <outline>
    <contour>
      <point x="541" y="188" type="line"/>
      <point x="514" y="188" type="line"/>
      <point x="505" y="73" type="line" smooth="yes"/>
      <point x="502" y="37"/>
      <point x="466" y="30"/>
      <point x="380" y="30" type="curve" smooth="yes"/>
      <point x="181" y="30" type="line"/>
      <point x="181" y="680" type="line"/>
      <point x="351" y="680" type="line" smooth="yes"/>
      <point x="437" y="680"/>
      <point x="472" y="673"/>
      <point x="476" y="637" type="curve" smooth="yes"/>
      <point x="485" y="547" type="line"/>
      <point x="511" y="547" type="line"/>
      <point x="511" y="710" type="line"/>
      <point x="45" y="710" type="line"/>
      <point x="45" y="680" type="line"/>
      <point x="56" y="680" type="line" smooth="yes"/>
      <point x="105" y="680"/>
      <point x="141" y="673"/>
      <point x="141" y="644" type="curve" smooth="yes"/>
      <point x="141" y="66" type="line" smooth="yes"/>
      <point x="141" y="37"/>
      <point x="105" y="30"/>
      <point x="56" y="30" type="curve" smooth="yes"/>
      <point x="45" y="30" type="line"/>
      <point x="45" y="0" type="line"/>
      <point x="541" y="0" type="line"/>
    </contour>
    <contour>
      <point x="161" y="378" type="curve"/>
      <point x="161" y="350" type="line"/>
      <point x="251" y="349"/>
      <point x="342" y="347"/>
      <point x="432" y="346" type="curve"/>
      <point x="432" y="382" type="line"/>
      <point x="342" y="381"/>
      <point x="251" y="379"/>
    </contour>
  </outline>
</glyph>
<glyph name="F" format="2">
  <advance width="582"/>
  <unicode hex="0046"/>
  <outline>
    <contour>
      <point x="181" y="680" type="line"/>
      <point x="357" y="680" type="line" smooth="yes"/>
      <point x="443" y="680"/>
      <point x="478" y="673"/>
      <point x="482" y="637" type="curve" smooth="yes"/>
      <point x="491" y="547" type="line"/>
      <point x="517" y="547" type="line"/>
      <point x="517" y="710" type="line"/>
      <point x="45" y="710" type="line"/>
      <point x="45" y="680" type="line"/>
      <point x="56" y="680" type="line" smooth="yes"/>
      <point x="105" y="680"/>
      <point x="141" y="673"/>
      <point x="141" y="644" type="curve" smooth="yes"/>
      <point x="141" y="66" type="line" smooth="yes"/>
      <point x="141" y="37"/>
      <point x="105" y="30"/>
      <point x="56" y="30" type="curve" smooth="yes"/>
      <point x="45" y="30" type="line"/>
      <point x="45" y="0" type="line"/>
      <point x="293" y="0" type="line"/>
      <point x="293" y="30" type="line"/>
      <point x="276" y="30" type="line" smooth="yes"/>
      <point x="233" y="30"/>
      <point x="181" y="31"/>
      <point x="181" y="66" type="curve" smooth="yes"/>
    </contour>
    <contour>
      <point x="167" y="371" type="curve"/>
      <point x="167" y="343" type="line"/>
      <point x="257" y="342"/>
      <point x="348" y="340"/>
      <point x="438" y="339" type="curve"/>
      <point x="438" y="375" type="line"/>
      <point x="348" y="373"/>
      <point x="257.243" y="372.332"/>
    </contour>
  </outline>
</glyph>
<glyph name="G" format="2">
  <advance width="738"/>
  <unicode hex="0047"/>
  <outline>
    <contour>
      <point x="637" y="287" type="line" smooth="yes"/>
      <point x="637" y="316"/>
      <point x="669" y="323"/>
      <point x="712" y="323" type="curve" smooth="yes"/>
      <point x="716" y="323" type="line"/>
      <point x="716" y="353" type="line"/>
      <point x="506" y="353" type="line"/>
      <point x="506" y="323" type="line"/>
      <point x="517" y="323" type="line" smooth="yes"/>
      <point x="566" y="323"/>
      <point x="602" y="316"/>
      <point x="602" y="287" type="curve" smooth="yes"/>
      <point x="602" y="112" type="line"/>
      <point x="578" y="82"/>
      <point x="512" y="20"/>
      <point x="385" y="20" type="curve" smooth="yes"/>
      <point x="200" y="20"/>
      <point x="90" y="147"/>
      <point x="90" y="355" type="curve" smooth="yes"/>
      <point x="90" y="557"/>
      <point x="209" y="690"/>
      <point x="370" y="690" type="curve" smooth="yes"/>
      <point x="499" y="690"/>
      <point x="576" y="611"/>
      <point x="607" y="506" type="curve"/>
      <point x="639" y="506" type="line"/>
      <point x="639" y="710" type="line"/>
      <point x="613" y="710" type="line"/>
      <point x="601" y="548" type="line"/>
      <point x="616" y="568" type="line"/>
      <point x="578" y="658"/>
      <point x="484" y="720"/>
      <point x="370" y="720" type="curve" smooth="yes"/>
      <point x="189" y="720"/>
      <point x="47" y="569"/>
      <point x="47" y="355" type="curve" smooth="yes"/>
      <point x="47" y="137"/>
      <point x="182" y="-10"/>
      <point x="384" y="-10" type="curve" smooth="yes"/>
      <point x="507" y="-10"/>
      <point x="603" y="51"/>
      <point x="637" y="102" type="curve"/>
    </contour>
  </outline>
</glyph>
<glyph name="I" format="2">
  <advance width="322"/>
  <unicode hex="0049"/>
  <outline>
    <contour>
      <point x="141" y="66" type="line" smooth="yes"/>
      <point x="141" y="37"/>
      <point x="105" y="30"/>
      <point x="56" y="30" type="curve" smooth="yes"/>
      <point x="45" y="30" type="line"/>
      <point x="45" y="0" type="line"/>
      <point x="277" y="0" type="line"/>
      <point x="277" y="30" type="line"/>
      <point x="266" y="30" type="line" smooth="yes"/>
      <point x="217" y="30"/>
      <point x="181" y="37"/>
      <point x="181" y="66" type="curve" smooth="yes"/>
      <point x="181" y="644" type="line" smooth="yes"/>
      <point x="181" y="673"/>
      <point x="217" y="680"/>
      <point x="266" y="680" type="curve" smooth="yes"/>
      <point x="277" y="680" type="line"/>
      <point x="277" y="710" type="line"/>
      <point x="45" y="710" type="line"/>
      <point x="45" y="680" type="line"/>
      <point x="56" y="680" type="line" smooth="yes"/>
      <point x="105" y="680"/>
      <point x="141" y="673"/>
      <point x="141" y="644" type="curve" smooth="yes"/>
    </contour>
  </outline>
</glyph>
<glyph name="J" format="2">
  <advance width="527"/>
  <unicode hex="004A"/>
  <outline>
    <contour>
      <point x="240" y="710" type="line"/>
      <point x="240" y="680" type="line"/>
      <point x="261" y="680" type="line" smooth="yes"/>
      <point x="310" y="680"/>
      <point x="346" y="673"/>
      <point x="346" y="644" type="curve" smooth="yes"/>
      <point x="346" y="218" type="line" smooth="yes"/>
      <point x="346" y="70"/>
      <point x="286" y="20"/>
      <point x="198" y="20" type="curve" smooth="yes"/>
      <point x="122" y="20"/>
      <point x="84" y="56"/>
      <point x="58" y="90" type="curve"/>
      <point x="50" y="81"/>
      <point x="50" y="48"/>
      <point x="83" y="44" type="curve"/>
      <point x="83" y="135" type="line"/>
      <point x="33" y="135" type="line"/>
      <point x="33" y="57" type="line"/>
      <point x="63" y="24"/>
      <point x="117" y="-10"/>
      <point x="198" y="-10" type="curve" smooth="yes"/>
      <point x="308" y="-10"/>
      <point x="386" y="49"/>
      <point x="386" y="218" type="curve" smooth="yes"/>
      <point x="386" y="644" type="line" smooth="yes"/>
      <point x="386" y="673"/>
      <point x="422" y="680"/>
      <point x="471" y="680" type="curve" smooth="yes"/>
      <point x="482" y="680" type="line"/>
      <point x="482" y="710" type="line"/>
    </contour>
  </outline>
</glyph>
<glyph name="M" format="2">
  <advance width="896"/>
  <unicode hex="004D"/>
  <outline>
    <contour>
      <point x="45" y="0" type="line"/>
      <point x="262" y="0" type="line"/>
      <point x="262" y="30" type="line"/>
      <point x="258" y="30" type="line" smooth="yes"/>
      <point x="225" y="30"/>
      <point x="176" y="33"/>
      <point x="176" y="40" type="curve" smooth="yes"/>
      <point x="176" y="697" type="line"/>
      <point x="172" y="700" type="line"/>
      <point x="430" y="-2" type="line"/>
      <point x="462" y="-2" type="line"/>
      <point x="720" y="699" type="line"/>
      <point x="715" y="701" type="line"/>
      <point x="715" y="40" type="line" smooth="yes"/>
      <point x="715" y="33"/>
      <point x="675" y="30"/>
      <point x="638" y="30" type="curve" smooth="yes"/>
      <point x="629" y="30" type="line"/>
      <point x="629" y="0" type="line"/>
      <point x="851" y="0" type="line"/>
      <point x="851" y="30" type="line"/>
      <point x="840" y="30" type="line" smooth="yes"/>
      <point x="791" y="30"/>
      <point x="755" y="37"/>
      <point x="755" y="66" type="curve" smooth="yes"/>
      <point x="755" y="644" type="line" smooth="yes"/>
      <point x="755" y="673"/>
      <point x="791" y="680"/>
      <point x="840" y="680" type="curve" smooth="yes"/>
      <point x="851" y="680" type="line"/>
      <point x="851" y="710" type="line"/>
      <point x="686" y="710" type="line"/>
      <point x="443" y="42" type="line"/>
      <point x="454" y="40" type="line"/>
      <point x="212" y="710" type="line"/>
      <point x="45" y="710" type="line"/>
      <point x="45" y="680" type="line"/>
      <point x="56" y="680" type="line" smooth="yes"/>
      <point x="105" y="680"/>
      <point x="141" y="673"/>
      <point x="141" y="644" type="curve" smooth="yes"/>
      <point x="141" y="66" type="line" smooth="yes"/>
      <point x="141" y="37"/>
      <point x="105" y="30"/>
      <point x="56" y="30" type="curve"/>
      <point x="45" y="30" type="line"/>
    </contour>
  </outline>
</glyph>
<glyph name="O" format="2">
  <advance width="747"/>
  <unicode hex="004F"/>
  <outline>
    <contour>
      <point x="373" y="-10" type="curve" smooth="yes"/>
      <point x="559" y="-10"/>
      <point x="700" y="139"/>
      <point x="700" y="355" type="curve" smooth="yes"/>
      <point x="700" y="572"/>
      <point x="559" y="720"/>
      <point x="373" y="720" type="curve" smooth="yes"/>
      <point x="188" y="720"/>
      <point x="47" y="572"/>
      <point x="47" y="355" type="curve" smooth="yes"/>
      <point x="47" y="139"/>
      <point x="188" y="-10"/>
    </contour>
    <contour>
      <point x="373" y="20" type="curve" smooth="yes"/>
      <point x="207" y="20"/>
      <point x="90" y="150"/>
      <point x="90" y="355" type="curve" smooth="yes"/>
      <point x="90" y="560"/>
      <point x="207" y="690"/>
      <point x="373" y="690" type="curve" smooth="yes"/>
      <point x="539" y="690"/>
      <point x="657" y="560"/>
      <point x="657" y="355" type="curve" smooth="yes"/>
      <point x="657" y="150"/>
      <point x="539" y="20"/>
    </contour>
  </outline>
</glyph>
<glyph name="P" format="2">
  <advance width="603"/>
  <unicode hex="0050"/>
  <outline>
    <contour>
      <point x="181" y="40" type="line"/>
      <point x="181" y="33"/>
      <point x="224" y="30"/>
      <point x="258" y="30" type="curve" smooth="yes"/>
      <point x="285" y="30" type="line"/>
      <point x="285" y="0" type="line"/>
      <point x="45" y="0" type="line"/>
      <point x="45" y="30" type="line"/>
      <point x="56" y="30" type="line" smooth="yes"/>
      <point x="105" y="30"/>
      <point x="141" y="37"/>
      <point x="141" y="66" type="curve" smooth="yes"/>
      <point x="141" y="644" type="line" smooth="yes"/>
      <point x="141" y="673"/>
      <point x="105" y="680"/>
      <point x="56" y="680" type="curve" smooth="yes"/>
      <point x="45" y="680" type="line"/>
      <point x="45" y="710" type="line"/>
      <point x="320" y="710" type="line" smooth="yes"/>
      <point x="487" y="710"/>
      <point x="570" y="632"/>
      <point x="570" y="508" type="curve" smooth="yes"/>
      <point x="570" y="384"/>
      <point x="483" y="299"/>
      <point x="315" y="299" type="curve" smooth="yes"/>
      <point x="161" y="299" type="line"/>
      <point x="161" y="329" type="line"/>
      <point x="315" y="329" type="line" smooth="yes"/>
      <point x="462" y="329"/>
      <point x="527" y="399"/>
      <point x="527" y="507" type="curve" smooth="yes"/>
      <point x="527" y="617"/>
      <point x="461" y="680"/>
      <point x="320" y="680" type="curve" smooth="yes"/>
      <point x="181" y="680" type="line"/>
    </contour>
  </outline>
</glyph>
<glyph name="T" format="2">
  <advance width="632"/>
  <unicode hex="0054"/>
  <outline>
    <contour>
      <point x="296" y="66" type="line" smooth="yes"/>
      <point x="296" y="37"/>
      <point x="260" y="30"/>
      <point x="211" y="30" type="curve" smooth="yes"/>
      <point x="195" y="30" type="line"/>
      <point x="195" y="0" type="line"/>
      <point x="437" y="0" type="line"/>
      <point x="437" y="30" type="line"/>
      <point x="421" y="30" type="line" smooth="yes"/>
      <point x="372" y="30"/>
      <point x="336" y="37"/>
      <point x="336" y="66" type="curve" smooth="yes"/>
      <point x="336" y="680" type="line"/>
      <point x="432" y="680" type="line" smooth="yes"/>
      <point x="518" y="680"/>
      <point x="554" y="673"/>
      <point x="557" y="637" type="curve" smooth="yes"/>
      <point x="566" y="539" type="line"/>
      <point x="592" y="539" type="line"/>
      <point x="592" y="710" type="line"/>
      <point x="40" y="710" type="line"/>
      <point x="40" y="539" type="line"/>
      <point x="66" y="539" type="line"/>
      <point x="75" y="637" type="line" smooth="yes"/>
      <point x="78" y="673"/>
      <point x="114" y="680"/>
      <point x="200" y="680" type="curve" smooth="yes"/>
      <point x="296" y="680" type="line"/>
    </contour>
  </outline>
</glyph>
<glyph name="U" format="2">
  <advance width="784"/>
  <unicode hex="0055"/>
  <outline>
    <contour>
      <point x="181" y="271" type="curve" smooth="yes"/>
      <point x="181" y="670" type="line" smooth="yes"/>
      <point x="181" y="677"/>
      <point x="230" y="680"/>
      <point x="268" y="680" type="curve" smooth="yes"/>
      <point x="277" y="680" type="line"/>
      <point x="277" y="710" type="line"/>
      <point x="45" y="710" type="line"/>
      <point x="45" y="680" type="line"/>
      <point x="56" y="680" type="line" smooth="yes"/>
      <point x="105" y="680"/>
      <point x="141" y="673"/>
      <point x="141" y="644" type="curve" smooth="yes"/>
      <point x="141" y="271" type="line" smooth="yes"/>
      <point x="141" y="68"/>
      <point x="247" y="-10"/>
      <point x="392" y="-10" type="curve" smooth="yes"/>
      <point x="532" y="-10"/>
      <point x="643" y="69"/>
      <point x="643" y="271" type="curve" smooth="yes"/>
      <point x="643" y="634" type="line" smooth="yes"/>
      <point x="643" y="668"/>
      <point x="679" y="680"/>
      <point x="728" y="680" type="curve" smooth="yes"/>
      <point x="739" y="680" type="line"/>
      <point x="739" y="710" type="line"/>
      <point x="514" y="710" type="line"/>
      <point x="514" y="680" type="line"/>
      <point x="523" y="680" type="line" smooth="yes"/>
      <point x="561" y="680"/>
      <point x="610" y="672"/>
      <point x="610" y="658" type="curve" smooth="yes"/>
      <point x="610" y="271" type="line" smooth="yes"/>
      <point x="610" y="88.7379032258"/>
      <point x="517" y="24"/>
      <point x="396" y="24" type="curve" smooth="yes"/>
      <point x="276" y="24"/>
      <point x="181" y="86"/>
    </contour>
  </outline>
</glyph>
<glyph name="X" format="2">
  <advance width="679"/>
  <unicode hex="0058"/>
  <outline>
    <contour>
      <point x="36" y="680" type="line"/>
      <point x="43" y="680" type="line" smooth="yes"/>
      <point x="80" y="680"/>
      <point x="101" y="679"/>
      <point x="122" y="648" type="curve" smooth="yes"/>
      <point x="321" y="353" type="line"/>
      <point x="327" y="349" type="line"/>
      <point x="535" y="40" type="line"/>
      <point x="535" y="33"/>
      <point x="489" y="30"/>
      <point x="453" y="30" type="curve" smooth="yes"/>
      <point x="436" y="30" type="line"/>
      <point x="436" y="0" type="line"/>
      <point x="659" y="0" type="line"/>
      <point x="659" y="30" type="line"/>
      <point x="649" y="30" type="line" smooth="yes"/>
      <point x="612" y="30"/>
      <point x="591" y="32"/>
      <point x="569" y="64" type="curve" smooth="yes"/>
      <point x="354" y="380" type="line"/>
      <point x="348" y="383" type="line"/>
      <point x="156" y="670" type="line"/>
      <point x="156" y="677"/>
      <point x="202" y="680"/>
      <point x="238" y="680" type="curve" smooth="yes"/>
      <point x="255" y="680" type="line"/>
      <point x="255" y="710" type="line"/>
      <point x="36" y="710" type="line"/>
    </contour>
    <contour>
      <point x="20" y="0" type="line"/>
      <point x="239" y="0" type="line"/>
      <point x="239" y="30" type="line"/>
      <point x="224" y="30" type="line" smooth="yes"/>
      <point x="187" y="30"/>
      <point x="139" y="37"/>
      <point x="139" y="48" type="curve"/>
      <point x="341" y="346" type="line"/>
      <point x="324" y="379" type="line"/>
      <point x="116" y="76" type="line" smooth="yes"/>
      <point x="90" y="39"/>
      <point x="66" y="30"/>
      <point x="30" y="30" type="curve" smooth="yes"/>
      <point x="20" y="30" type="line"/>
    </contour>
    <contour>
      <point x="356" y="361" type="line"/>
      <point x="542" y="635" type="line" smooth="yes"/>
      <point x="567" y="671"/>
      <point x="594" y="680"/>
      <point x="631" y="680" type="curve" smooth="yes"/>
      <point x="636" y="680" type="line"/>
      <point x="636" y="710" type="line"/>
      <point x="422" y="710" type="line"/>
      <point x="422" y="680" type="line"/>
      <point x="437" y="680" type="line" smooth="yes"/>
      <point x="475" y="680"/>
      <point x="520" y="673"/>
      <point x="520" y="662" type="curve"/>
      <point x="334" y="383" type="line"/>
    </contour>
  </outline>
</glyph>
<glyph name="grave" format="2">
  <advance width="500"/>
  <unicode hex="0060"/>
  <outline>
    <contour>
      <point x="200" y="707" type="line" smooth="yes"/>
      <point x="186" y="737"/>
      <point x="176" y="754"/>
      <point x="157" y="754" type="curve" smooth="yes"/>
      <point x="141" y="754"/>
      <point x="131" y="744"/>
      <point x="131" y="730" type="curve" smooth="yes"/>
      <point x="131" y="715"/>
      <point x="143" y="700"/>
      <point x="157" y="683" type="curve" smooth="yes"/>
      <point x="241" y="576" type="line"/>
      <point x="255" y="576" type="line"/>
      <point x="255" y="590" type="line"/>
    </contour>
  </outline>
</glyph>
<glyph name="b" format="2">
  <advance width="592"/>
  <unicode hex="0062"/>
  <guideline x="138" y="168" angle="90" identifier="SzVDapNWLv"/>
  <outline>
    <contour>
      <point x="329" y="-10" type="curve" smooth="yes"/>
      <point x="461" y="-10"/>
      <point x="548" y="99"/>
      <point x="548" y="257" type="curve" smooth="yes"/>
      <point x="548" y="414"/>
      <point x="465" y="518"/>
      <point x="337" y="518" type="curve" smooth="yes"/>
      <point x="247" y="518"/>
      <point x="190" y="471"/>
      <point x="138" y="391" type="curve"/>
      <point x="138" y="339" type="line"/>
      <point x="188" y="430"/>
      <point x="249" y="488"/>
      <point x="331" y="488" type="curve" smooth="yes"/>
      <point x="444" y="488"/>
      <point x="505" y="399"/>
      <point x="505" y="257" type="curve" smooth="yes"/>
      <point x="505" y="115"/>
      <point x="442" y="20"/>
      <point x="326" y="20" type="curve" smooth="yes"/>
      <point x="242" y="20"/>
      <point x="179" y="80"/>
      <point x="138" y="177" type="curve"/>
      <point x="138" y="117" type="line"/>
      <point x="185" y="34"/>
      <point x="242" y="-10"/>
    </contour>
    <contour>
      <point x="102" y="663" type="curve" smooth="yes"/>
      <point x="102" y="-3" type="line"/>
      <point x="127" y="-3" type="line"/>
      <point x="142" y="126" type="line"/>
      <point x="142" y="126" type="line"/>
      <point x="142" y="735" type="line"/>
      <point x="18" y="735" type="line"/>
      <point x="18" y="710" type="line"/>
      <point x="28" y="708" type="line" smooth="yes"/>
      <point x="78" y="698"/>
      <point x="102" y="692"/>
    </contour>
  </outline>
</glyph>
<glyph name="c" format="2">
  <advance width="526"/>
  <unicode hex="0063"/>
  <outline>
    <contour>
      <point x="282" y="18" type="curve" smooth="yes"/>
      <point x="165" y="18"/>
      <point x="87" y="105"/>
      <point x="87" y="253" type="curve" smooth="yes"/>
      <point x="87" y="392"/>
      <point x="159" y="488"/>
      <point x="294" y="488" type="curve" smooth="yes"/>
      <point x="369" y="488"/>
      <point x="417" y="459"/>
      <point x="437" y="426" type="curve"/>
      <point x="459" y="420"/>
      <point x="442" y="451"/>
      <point x="415" y="462" type="curve"/>
      <point x="415" y="381" type="line"/>
      <point x="463" y="381" type="line"/>
      <point x="463" y="457" type="line"/>
      <point x="450" y="475"/>
      <point x="394" y="518"/>
      <point x="294" y="518" type="curve" smooth="yes"/>
      <point x="137" y="518"/>
      <point x="44" y="406"/>
      <point x="44" y="253" type="curve" smooth="yes"/>
      <point x="44" y="91"/>
      <point x="146" y="-12"/>
      <point x="282" y="-12" type="curve" smooth="yes"/>
      <point x="391" y="-12"/>
      <point x="449" y="51"/>
      <point x="484" y="125" type="curve"/>
      <point x="456" y="141" type="line"/>
      <point x="434" y="92"/>
      <point x="386" y="18"/>
    </contour>
  </outline>
</glyph>
<glyph name="d" format="2">
  <advance width="602"/>
  <unicode hex="0064"/>
  <guideline x="454" y="156" angle="90" identifier="X0LbLnlGsm"/>
  <outline>
    <contour>
      <point x="490" y="63" type="curve" smooth="yes"/>
      <point x="490" y="735" type="line"/>
      <point x="366" y="735" type="line"/>
      <point x="366" y="710" type="line"/>
      <point x="376" y="708" type="line" smooth="yes"/>
      <point x="426" y="698"/>
      <point x="450" y="692"/>
      <point x="450" y="663" type="curve" smooth="yes"/>
      <point x="450" y="133" type="line"/>
      <point x="450" y="133" type="line"/>
      <point x="450" y="0" type="line"/>
      <point x="574" y="0" type="line"/>
      <point x="574" y="27" type="line"/>
      <point x="573" y="27" type="line"/>
      <point x="525" y="27"/>
      <point x="490" y="34"/>
    </contour>
    <contour>
      <point x="267" y="518" type="curve" smooth="yes"/>
      <point x="135" y="518"/>
      <point x="44" y="408"/>
      <point x="44" y="250" type="curve" smooth="yes"/>
      <point x="44" y="93"/>
      <point x="125" y="-10"/>
      <point x="253" y="-10" type="curve" smooth="yes"/>
      <point x="343" y="-10"/>
      <point x="401" y="39"/>
      <point x="454" y="119" type="curve"/>
      <point x="454" y="170" type="line"/>
      <point x="402" y="80"/>
      <point x="341" y="20"/>
      <point x="259" y="20" type="curve" smooth="yes"/>
      <point x="145" y="20"/>
      <point x="87" y="108"/>
      <point x="87" y="250" type="curve" smooth="yes"/>
      <point x="87" y="392"/>
      <point x="153" y="488"/>
      <point x="270" y="488" type="curve" smooth="yes"/>
      <point x="353" y="488"/>
      <point x="413" y="426"/>
      <point x="454" y="332" type="curve"/>
      <point x="454" y="391" type="line"/>
      <point x="408" y="473"/>
      <point x="353" y="518"/>
    </contour>
  </outline>
</glyph>
<glyph name="i" format="2">
  <advance width="278"/>
  <unicode hex="0069"/>
  <outline>
    <contour>
      <point x="129" y="657" type="curve" smooth="yes"/>
      <point x="152" y="657"/>
      <point x="169" y="671"/>
      <point x="169" y="697" type="curve" smooth="yes"/>
      <point x="169" y="723"/>
      <point x="152" y="737"/>
      <point x="129" y="737" type="curve" smooth="yes"/>
      <point x="106" y="737"/>
      <point x="89" y="723"/>
      <point x="89" y="697" type="curve" smooth="yes"/>
      <point x="89" y="671"/>
      <point x="106" y="657"/>
    </contour>
    <contour>
      <point x="159" y="508" type="line"/>
      <point x="35" y="508" type="line"/>
      <point x="35" y="483" type="line"/>
      <point x="45" y="481" type="line" smooth="yes"/>
      <point x="95" y="471"/>
      <point x="119" y="465"/>
      <point x="119" y="436" type="curve" smooth="yes"/>
      <point x="119" y="63" type="line" smooth="yes"/>
      <point x="119" y="34"/>
      <point x="85" y="27"/>
      <point x="37" y="27" type="curve" smooth="yes"/>
      <point x="35" y="27" type="line"/>
      <point x="35" y="0" type="line"/>
      <point x="243" y="0" type="line"/>
      <point x="243" y="27" type="line"/>
      <point x="241" y="27" type="line" smooth="yes"/>
      <point x="193" y="27"/>
      <point x="159" y="34"/>
      <point x="159" y="63" type="curve" smooth="yes"/>
    </contour>
  </outline>
</glyph>
<glyph name="k" format="2">
  <advance width="584"/>
  <unicode hex="006B"/>
  <outline>
    <contour>
      <point x="556" y="0" type="line"/>
      <point x="556" y="30" type="line"/>
      <point x="554" y="30" type="line"/>
      <point x="520" y="30"/>
      <point x="491" y="37"/>
      <point x="460" y="68" type="curve" smooth="yes"/>
      <point x="238" y="291" type="line"/>
      <point x="239" y="273" type="line"/>
      <point x="416" y="429" type="line" smooth="yes"/>
      <point x="453" y="462"/>
      <point x="485" y="478"/>
      <point x="528" y="478" type="curve"/>
      <point x="530" y="478" type="line"/>
      <point x="530" y="508" type="line"/>
      <point x="313" y="508" type="line"/>
      <point x="313" y="478" type="line"/>
      <point x="317" y="478" type="line"/>
      <point x="350" y="478"/>
      <point x="401" y="475"/>
      <point x="401" y="460" type="curve"/>
      <point x="200" y="281" type="line"/>
      <point x="200" y="276" type="line"/>
      <point x="434" y="40" type="line"/>
      <point x="434" y="33"/>
      <point x="390" y="30"/>
      <point x="359" y="30" type="curve"/>
      <point x="353" y="30" type="line"/>
      <point x="353" y="0" type="line"/>
    </contour>
    <contour>
      <point x="160" y="735" type="line"/>
      <point x="35" y="735" type="line"/>
      <point x="35" y="705" type="line"/>
      <point x="46" y="703" type="line" smooth="yes"/>
      <point x="97" y="694"/>
      <point x="120" y="687"/>
      <point x="120" y="658" type="curve" smooth="yes"/>
      <point x="120" y="63" type="line" smooth="yes"/>
      <point x="120" y="34"/>
      <point x="86" y="27"/>
      <point x="38" y="27" type="curve"/>
      <point x="36" y="27" type="line"/>
      <point x="36" y="0" type="line"/>
      <point x="235" y="0" type="line"/>
      <point x="235" y="27" type="line"/>
      <point x="232" y="27" type="line" smooth="yes"/>
      <point x="205" y="27"/>
      <point x="160" y="30"/>
      <point x="160" y="37" type="curve" smooth="yes"/>
    </contour>
  </outline>
</glyph>
<glyph name="l" format="2">
  <advance width="278"/>
  <unicode hex="006C"/>
  <outline>
    <contour>
      <point x="159" y="735" type="line"/>
      <point x="35" y="735" type="line"/>
      <point x="35" y="710" type="line"/>
      <point x="45" y="708" type="line" smooth="yes"/>
      <point x="95" y="698"/>
      <point x="119" y="692"/>
      <point x="119" y="663" type="curve" smooth="yes"/>
      <point x="119" y="63" type="line" smooth="yes"/>
      <point x="119" y="34"/>
      <point x="85" y="27"/>
      <point x="37" y="27" type="curve" smooth="yes"/>
      <point x="35" y="27" type="line"/>
      <point x="35" y="0" type="line"/>
      <point x="243" y="0" type="line"/>
      <point x="243" y="27" type="line"/>
      <point x="241" y="27" type="line" smooth="yes"/>
      <point x="193" y="27"/>
      <point x="159" y="34"/>
      <point x="159" y="63" type="curve" smooth="yes"/>
    </contour>
  </outline>
</glyph>
<glyph name="m" format="2">
  <advance width="869"/>
  <unicode hex="006D"/>
  <guideline x="155" y="432" angle="90" identifier="br4ZqVtkbX"/>
  <guideline x="454" y="357" angle="90" identifier="BoqnUYXML5"/>
  <outline>
    <contour>
      <point x="35" y="0" type="line"/>
      <point x="234" y="0" type="line"/>
      <point x="234" y="27" type="line"/>
      <point x="231" y="27" type="line" smooth="yes"/>
      <point x="203" y="27"/>
      <point x="159" y="30"/>
      <point x="159" y="37" type="curve" smooth="yes"/>
      <point x="159" y="398" type="line"/>
      <point x="159" y="398" type="line"/>
      <point x="159" y="508" type="line"/>
      <point x="35" y="508" type="line"/>
      <point x="35" y="483" type="line"/>
      <point x="45" y="481" type="line" smooth="yes"/>
      <point x="95" y="471"/>
      <point x="119" y="465"/>
      <point x="119" y="436" type="curve" smooth="yes"/>
      <point x="119" y="63" type="line" smooth="yes"/>
      <point x="119" y="34"/>
      <point x="85" y="27"/>
      <point x="37" y="27" type="curve" smooth="yes"/>
      <point x="35" y="27" type="line"/>
    </contour>
    <contour>
      <point x="533" y="0" type="line"/>
      <point x="533" y="27" type="line"/>
      <point x="531" y="27" type="line" smooth="yes"/>
      <point x="503" y="27"/>
      <point x="458" y="30"/>
      <point x="458" y="37" type="curve" smooth="yes"/>
      <point x="458" y="357" type="line" smooth="yes"/>
      <point x="458" y="468"/>
      <point x="408" y="518"/>
      <point x="322" y="518" type="curve"/>
      <point x="252" y="518"/>
      <point x="203" y="484"/>
      <point x="155" y="418" type="curve"/>
      <point x="155" y="374" type="line"/>
      <point x="198" y="443"/>
      <point x="248" y="485"/>
      <point x="315" y="485" type="curve"/>
      <point x="391" y="485"/>
      <point x="418" y="442"/>
      <point x="418" y="346" type="curve" smooth="yes"/>
      <point x="418" y="37" type="line" smooth="yes"/>
      <point x="418" y="30"/>
      <point x="373" y="27"/>
      <point x="345" y="27" type="curve" smooth="yes"/>
      <point x="343" y="27" type="line"/>
      <point x="343" y="0" type="line"/>
    </contour>
    <contour>
      <point x="841" y="0" type="line"/>
      <point x="841" y="27" type="line"/>
      <point x="839" y="27" type="line" smooth="yes"/>
      <point x="791" y="27"/>
      <point x="757" y="34"/>
      <point x="757" y="63" type="curve" smooth="yes"/>
      <point x="757" y="357" type="line" smooth="yes"/>
      <point x="757" y="468"/>
      <point x="707" y="518"/>
      <point x="621" y="518" type="curve"/>
      <point x="549" y="518"/>
      <point x="498" y="482"/>
      <point x="449" y="411" type="curve"/>
      <point x="449" y="367" type="line"/>
      <point x="494" y="439"/>
      <point x="544" y="485"/>
      <point x="614" y="485" type="curve"/>
      <point x="690" y="485"/>
      <point x="717" y="442"/>
      <point x="717" y="346" type="curve" smooth="yes"/>
      <point x="717" y="37" type="line" smooth="yes"/>
      <point x="717" y="30"/>
      <point x="672" y="27"/>
      <point x="644" y="27" type="curve" smooth="yes"/>
      <point x="642" y="27" type="line"/>
      <point x="642" y="0" type="line"/>
    </contour>
  </outline>
</glyph>
<glyph name="p" format="2">
  <advance width="609"/>
  <unicode hex="0070"/>
  <guideline x="155" y="369" angle="90" identifier="sWy7CgUJZp"/>
  <outline>
    <contour>
      <point x="261" y="-223" type="line"/>
      <point x="261" y="-196" type="line"/>
      <point x="232" y="-196" type="line" smooth="yes"/>
      <point x="206" y="-196"/>
      <point x="159" y="-193"/>
      <point x="159" y="-186" type="curve" smooth="yes"/>
      <point x="159" y="370" type="line"/>
      <point x="159" y="370" type="line"/>
      <point x="159" y="508" type="line"/>
      <point x="35" y="508" type="line"/>
      <point x="35" y="483" type="line"/>
      <point x="45" y="481" type="line" smooth="yes"/>
      <point x="95" y="471"/>
      <point x="119" y="465"/>
      <point x="119" y="436" type="curve" smooth="yes"/>
      <point x="119" y="-160" type="line" smooth="yes"/>
      <point x="119" y="-189"/>
      <point x="85" y="-196"/>
      <point x="37" y="-196" type="curve"/>
      <point x="35" y="-196" type="line"/>
      <point x="35" y="-223" type="line"/>
    </contour>
    <contour>
      <point x="346" y="-10" type="curve" smooth="yes"/>
      <point x="478" y="-10"/>
      <point x="565" y="99"/>
      <point x="565" y="257" type="curve" smooth="yes"/>
      <point x="565" y="414"/>
      <point x="482" y="518"/>
      <point x="354" y="518" type="curve" smooth="yes"/>
      <point x="264" y="518"/>
      <point x="207" y="469"/>
      <point x="155" y="389" type="curve"/>
      <point x="155" y="338" type="line"/>
      <point x="206" y="428"/>
      <point x="266" y="488"/>
      <point x="348" y="488" type="curve" smooth="yes"/>
      <point x="462" y="488"/>
      <point x="522" y="399"/>
      <point x="522" y="257" type="curve" smooth="yes"/>
      <point x="522" y="115"/>
      <point x="460" y="20"/>
      <point x="343" y="20" type="curve" smooth="yes"/>
      <point x="260" y="20"/>
      <point x="198" y="82"/>
      <point x="155" y="176" type="curve"/>
      <point x="155" y="119" type="line"/>
      <point x="203" y="36"/>
      <point x="259" y="-10"/>
    </contour>
  </outline>
</glyph>
<glyph name="q" format="2">
  <advance width="579"/>
  <unicode hex="0071"/>
  <guideline x="454" y="110" angle="90" identifier="CLr3R0VD7w"/>
  <outline>
    <contour>
      <point x="348" y="-223" type="line"/>
      <point x="574" y="-223" type="line"/>
      <point x="574" y="-196" type="line"/>
      <point x="572" y="-196" type="line"/>
      <point x="524" y="-196"/>
      <point x="490" y="-189"/>
      <point x="490" y="-160" type="curve" smooth="yes"/>
      <point x="490" y="511" type="line"/>
      <point x="465" y="511" type="line"/>
      <point x="451" y="391" type="line"/>
      <point x="450" y="391" type="line"/>
      <point x="450" y="-186" type="line" smooth="yes"/>
      <point x="450" y="-193"/>
      <point x="403" y="-196"/>
      <point x="377" y="-196" type="curve" smooth="yes"/>
      <point x="348" y="-196" type="line"/>
    </contour>
    <contour>
      <point x="269" y="518" type="curve" smooth="yes"/>
      <point x="135" y="518"/>
      <point x="44" y="408"/>
      <point x="44" y="250" type="curve" smooth="yes"/>
      <point x="44" y="93"/>
      <point x="125" y="-10"/>
      <point x="253" y="-10" type="curve" smooth="yes"/>
      <point x="343" y="-10"/>
      <point x="401" y="39"/>
      <point x="454" y="119" type="curve"/>
      <point x="454" y="170" type="line"/>
      <point x="402" y="81"/>
      <point x="341" y="20"/>
      <point x="259" y="20" type="curve" smooth="yes"/>
      <point x="145" y="20"/>
      <point x="87" y="108"/>
      <point x="87" y="250" type="curve" smooth="yes"/>
      <point x="87" y="392"/>
      <point x="153" y="488"/>
      <point x="272" y="488" type="curve" smooth="yes"/>
      <point x="358" y="488"/>
      <point x="416" y="426"/>
      <point x="454" y="333" type="curve"/>
      <point x="454" y="394" type="line"/>
      <point x="411" y="474"/>
      <point x="357" y="518"/>
    </contour>
  </outline>
</glyph>
<glyph name="r" format="2">
  <advance width="364"/>
  <unicode hex="0072"/>
  <guideline x="155" y="399" angle="90" identifier="1uuqJnvIYR"/>
  <outline>
    <contour>
      <point x="334" y="514" type="line"/>
      <point x="328" y="516"/>
      <point x="312" y="518"/>
      <point x="300" y="518" type="curve" smooth="yes"/>
      <point x="239" y="518"/>
      <point x="189" y="472"/>
      <point x="155" y="404" type="curve"/>
      <point x="155" y="359" type="line"/>
      <point x="191" y="434"/>
      <point x="229" y="474"/>
      <point x="286" y="474" type="curve" smooth="yes"/>
      <point x="299" y="474"/>
      <point x="316" y="472"/>
      <point x="334" y="467" type="curve"/>
    </contour>
    <contour>
      <point x="35" y="0" type="line"/>
      <point x="258" y="0" type="line"/>
      <point x="258" y="27" type="line"/>
      <point x="241" y="27" type="line" smooth="yes"/>
      <point x="213" y="27"/>
      <point x="159" y="32"/>
      <point x="159" y="61" type="curve" smooth="yes"/>
      <point x="159" y="398" type="line"/>
      <point x="159" y="398" type="line"/>
      <point x="159" y="508" type="line"/>
      <point x="35" y="508" type="line"/>
      <point x="35" y="483" type="line"/>
      <point x="45" y="481" type="line" smooth="yes"/>
      <point x="95" y="471"/>
      <point x="119" y="465"/>
      <point x="119" y="436" type="curve" smooth="yes"/>
      <point x="119" y="63" type="line" smooth="yes"/>
      <point x="119" y="34"/>
      <point x="85" y="27"/>
      <point x="37" y="27" type="curve" smooth="yes"/>
      <point x="35" y="27" type="line"/>
    </contour>
  </outline>
</glyph>
<glyph name="braceleft" format="2">
  <advance width="317"/>
  <unicode hex="007B"/>
  <guideline x="337" y="-110" angle="0" identifier="b70GzSCBmZ"/>
  <outline>
    <contour>
      <point x="225" y="246" type="curve" smooth="yes"/>
      <point x="225" y="266"/>
      <point x="216" y="272"/>
      <point x="111" y="299" type="curve"/>
      <point x="111" y="304" type="line"/>
      <point x="216" y="331"/>
      <point x="225" y="337"/>
      <point x="225" y="357" type="curve" smooth="yes"/>
      <point x="225" y="387"/>
      <point x="111" y="527"/>
      <point x="111" y="616" type="curve" smooth="yes"/>
      <point x="111" y="687"/>
      <point x="180" y="724"/>
      <point x="297" y="726" type="curve"/>
      <point x="283" y="751" type="line"/>
      <point x="177" y="747"/>
      <point x="71" y="717"/>
      <point x="71" y="616" type="curve" smooth="yes"/>
      <point x="71" y="538"/>
      <point x="145" y="443"/>
      <point x="197" y="354" type="curve"/>
      <point x="205" y="360" type="line"/>
      <point x="50" y="310" type="line"/>
      <point x="50" y="293" type="line"/>
      <point x="205" y="243" type="line"/>
      <point x="197" y="249" type="line"/>
      <point x="145" y="160"/>
      <point x="71" y="65"/>
      <point x="71" y="-13" type="curve" smooth="yes"/>
      <point x="71" y="-114"/>
      <point x="177" y="-144"/>
      <point x="283" y="-148" type="curve"/>
      <point x="297" y="-123" type="line"/>
      <point x="180" y="-121"/>
      <point x="111" y="-84"/>
      <point x="111" y="-13" type="curve" smooth="yes"/>
      <point x="111" y="76"/>
      <point x="225" y="216"/>
    </contour>
  </outline>
</glyph>
<glyph name="asciitilde" format="2">
  <advance width="536"/>
  <unicode hex="007E"/>
  <outline>
    <contour>
      <point x="366" y="267" type="curve" smooth="yes"/>
      <point x="436" y="267"/>
      <point x="461" y="334"/>
      <point x="476" y="384" type="curve"/>
      <point x="447" y="392" type="line"/>
      <point x="439" y="365"/>
      <point x="422" y="299"/>
      <point x="366" y="299" type="curve" smooth="yes"/>
      <point x="291" y="299"/>
      <point x="264" y="394"/>
      <point x="173" y="394" type="curve" smooth="yes"/>
      <point x="103" y="394"/>
      <point x="70" y="335"/>
      <point x="60" y="280" type="curve"/>
      <point x="90" y="273" type="line"/>
      <point x="98" y="312"/>
      <point x="118" y="362"/>
      <point x="173" y="362" type="curve" smooth="yes"/>
      <point x="243" y="362"/>
      <point x="281" y="267"/>
    </contour>
  </outline>
</glyph>
<glyph name="currency" format="2">
  <advance width="560"/>
  <unicode hex="00A4"/>
  <outline>
    <contour>
      <point x="447" y="376" type="curve" smooth="yes"/>
      <point x="447" y="276"/>
      <point x="379" y="206"/>
      <point x="280" y="206" type="curve" smooth="yes"/>
      <point x="181" y="206"/>
      <point x="113" y="277"/>
      <point x="113" y="376" type="curve" smooth="yes"/>
      <point x="113" y="476"/>
      <point x="181" y="547"/>
      <point x="280" y="547" type="curve" smooth="yes"/>
      <point x="379" y="547"/>
      <point x="447" y="476"/>
    </contour>
    <contour>
      <point x="73" y="376" type="curve" smooth="yes"/>
      <point x="73" y="257"/>
      <point x="165" y="171"/>
      <point x="280" y="171" type="curve" smooth="yes"/>
      <point x="395" y="171"/>
      <point x="487" y="257"/>
      <point x="487" y="376" type="curve" smooth="yes"/>
      <point x="487" y="496"/>
      <point x="395" y="582"/>
      <point x="280" y="582" type="curve" smooth="yes"/>
      <point x="165" y="582"/>
      <point x="73" y="496"/>
    </contour>
    <contour>
      <point x="31" y="600" type="line"/>
      <point x="134" y="497" type="line"/>
      <point x="168" y="517" type="line"/>
      <point x="58" y="627" type="line"/>
    </contour>
    <contour>
      <point x="529" y="600" type="line"/>
      <point x="502" y="627" type="line"/>
      <point x="392" y="517" type="line"/>
      <point x="426" y="497" type="line"/>
    </contour>
    <contour>
      <point x="31" y="152" type="line"/>
      <point x="58" y="125" type="line"/>
      <point x="168" y="235" type="line"/>
      <point x="134" y="255" type="line"/>
    </contour>
    <contour>
      <point x="529" y="152" type="line"/>
      <point x="426" y="255" type="line"/>
      <point x="392" y="235" type="line"/>
      <point x="502" y="125" type="line"/>
    </contour>
  </outline>
</glyph>
<glyph name="yen" format="2">
  <advance width="560"/>
  <unicode hex="00A5"/>
  <outline>
    <contour>
      <point x="80" y="344" type="line"/>
      <point x="80" y="314" type="line"/>
      <point x="480" y="314" type="line"/>
      <point x="480" y="344" type="line"/>
    </contour>
    <contour>
      <point x="80" y="207" type="line"/>
      <point x="80" y="177" type="line"/>
      <point x="480" y="177" type="line"/>
      <point x="480" y="207" type="line"/>
    </contour>
    <contour>
      <point x="261" y="351" type="line"/>
      <point x="261" y="66" type="line" smooth="yes"/>
      <point x="261" y="37"/>
      <point x="225" y="30"/>
      <point x="176" y="30" type="curve" smooth="yes"/>
      <point x="160" y="30" type="line"/>
      <point x="160" y="0" type="line"/>
      <point x="402" y="0" type="line"/>
      <point x="402" y="30" type="line"/>
      <point x="386" y="30" type="line" smooth="yes"/>
      <point x="337" y="30"/>
      <point x="301" y="37"/>
      <point x="301" y="66" type="curve" smooth="yes"/>
      <point x="301" y="351" type="line"/>
    </contour>
    <contour>
      <point x="290" y="318" type="line"/>
      <point x="460" y="639" type="line" smooth="yes"/>
      <point x="480" y="676"/>
      <point x="511" y="680"/>
      <point x="545" y="680" type="curve" smooth="yes"/>
      <point x="550" y="680" type="line"/>
      <point x="550" y="710" type="line"/>
      <point x="338" y="710" type="line"/>
      <point x="338" y="680" type="line"/>
      <point x="353" y="680" type="line" smooth="yes"/>
      <point x="391" y="680"/>
      <point x="436" y="673"/>
      <point x="436" y="662" type="curve"/>
      <point x="266" y="338" type="line"/>
      <point x="296" y="348" type="line"/>
      <point x="127" y="670" type="line"/>
      <point x="127" y="677"/>
      <point x="174" y="680"/>
      <point x="210" y="680" type="curve" smooth="yes"/>
      <point x="227" y="680" type="line"/>
      <point x="227" y="710" type="line"/>
      <point x="10" y="710" type="line"/>
      <point x="10" y="680" type="line"/>
      <point x="15" y="680" type="line" smooth="yes"/>
      <point x="49" y="680"/>
      <point x="76" y="681"/>
      <point x="91" y="654" type="curve" smooth="yes"/>
      <point x="271" y="318" type="line"/>
    </contour>
  </outline>
</glyph>
<glyph name="dieresis" format="2">
  <advance width="500"/>
  <unicode hex="00A8"/>
  <outline>
    <contour>
      <point x="195" y="697" type="curve" smooth="yes"/>
      <point x="195" y="723"/>
      <point x="178" y="737"/>
      <point x="155" y="737" type="curve" smooth="yes"/>
      <point x="132" y="737"/>
      <point x="115" y="723"/>
      <point x="115" y="697" type="curve" smooth="yes"/>
      <point x="115" y="671"/>
      <point x="132" y="657"/>
      <point x="155" y="657" type="curve" smooth="yes"/>
      <point x="178" y="657"/>
      <point x="195" y="671"/>
    </contour>
    <contour>
      <point x="388" y="697" type="curve" smooth="yes"/>
      <point x="388" y="723"/>
      <point x="371" y="737"/>
      <point x="348" y="737" type="curve" smooth="yes"/>
      <point x="325" y="737"/>
      <point x="308" y="723"/>
      <point x="308" y="697" type="curve" smooth="yes"/>
      <point x="308" y="671"/>
      <point x="325" y="657"/>
      <point x="348" y="657" type="curve" smooth="yes"/>
      <point x="371" y="657"/>
      <point x="388" y="671"/>
    </contour>
  </outline>
</glyph>
<glyph name="ordfeminine" format="2">
  <advance width="454"/>
  <unicode hex="00AA"/>
  <outline>
    <contour>
      <point x="316" y="554" type="line"/>
      <point x="147" y="538"/>
      <point x="58" y="505"/>
      <point x="58" y="417" type="curve" smooth="yes"/>
      <point x="58" y="349"/>
      <point x="109" y="310"/>
      <point x="183" y="310" type="curve" smooth="yes"/>
      <point x="252" y="310"/>
      <point x="298" y="358"/>
      <point x="317" y="405" type="curve"/>
      <point x="312" y="442" type="line"/>
      <point x="287" y="382"/>
      <point x="250" y="337"/>
      <point x="186" y="337" type="curve" smooth="yes"/>
      <point x="131" y="337"/>
      <point x="98" y="369"/>
      <point x="98" y="417" type="curve" smooth="yes"/>
      <point x="98" y="478"/>
      <point x="161" y="518"/>
      <point x="315" y="527" type="curve"/>
    </contour>
    <contour>
      <point x="304" y="320" type="line"/>
      <point x="404" y="320" type="line"/>
      <point x="404" y="347" type="line"/>
      <point x="404" y="347" type="line"/>
      <point x="369" y="347"/>
      <point x="341" y="351"/>
      <point x="341" y="376" type="curve" smooth="yes"/>
      <point x="341" y="600" type="line" smooth="yes"/>
      <point x="341" y="692"/>
      <point x="280" y="720"/>
      <point x="211" y="720" type="curve" smooth="yes"/>
      <point x="150" y="720"/>
      <point x="102" y="696"/>
      <point x="80" y="668" type="curve"/>
      <point x="80" y="612" type="line"/>
      <point x="120" y="612" type="line"/>
      <point x="120" y="687" type="line"/>
      <point x="112" y="685"/>
      <point x="94" y="656"/>
      <point x="96" y="633" type="curve"/>
      <point x="114" y="669"/>
      <point x="154" y="693"/>
      <point x="211" y="693" type="curve" smooth="yes"/>
      <point x="267" y="693"/>
      <point x="301" y="673"/>
      <point x="301" y="596" type="curve" smooth="yes"/>
      <point x="301" y="392" type="line"/>
      <point x="304" y="390" type="line"/>
    </contour>
  </outline>
</glyph>
<glyph name="acute" format="2">
  <advance width="500"/>
  <unicode hex="00B4"/>
  <outline>
    <contour>
      <point x="256" y="707" type="curve" smooth="yes"/>
      <point x="201" y="590" type="line"/>
      <point x="201" y="576" type="line"/>
      <point x="215" y="576" type="line"/>
      <point x="299" y="683" type="line" smooth="yes"/>
      <point x="313" y="700"/>
      <point x="325" y="715"/>
      <point x="325" y="730" type="curve" smooth="yes"/>
      <point x="325" y="744"/>
      <point x="315" y="754"/>
      <point x="299" y="754" type="curve" smooth="yes"/>
      <point x="280" y="754"/>
      <point x="270" y="737"/>
    </contour>
  </outline>
</glyph>
<glyph name="cedilla" format="2">
  <advance width="600"/>
  <unicode hex="00B8"/>
  <outline>
    <contour>
      <point x="298" y="4" type="line"/>
      <point x="261" y="4" type="line"/>
      <point x="228" y="-88" type="line"/>
      <point x="240" y="-88" type="line" smooth="yes"/>
      <point x="305" y="-88"/>
      <point x="329" y="-111.7931034483"/>
      <point x="329" y="-148" type="curve" smooth="yes"/>
      <point x="329" y="-185"/>
      <point x="303" y="-208"/>
      <point x="268" y="-208" type="curve" smooth="yes"/>
      <point x="223" y="-208"/>
      <point x="203.4318187742" y="-181.4318187742"/>
      <point x="184" y="-162" type="curve"/>
      <point x="162" y="-186" type="line"/>
      <point x="185" y="-215"/>
      <point x="216" y="-236"/>
      <point x="268" y="-236" type="curve" smooth="yes"/>
      <point x="321" y="-236"/>
      <point x="369" y="-204"/>
      <point x="369" y="-148" type="curve" smooth="yes"/>
      <point x="369" y="-89"/>
      <point x="317" y="-56"/>
      <point x="249" y="-60" type="curve"/>
      <point x="255" y="-77" type="line"/>
    </contour>
  </outline>
</glyph>
<glyph name="ordmasculine" format="2">
  <advance width="474"/>
  <unicode hex="00BA"/>
  <outline>
    <contour>
      <point x="419" y="520" type="curve" smooth="yes"/>
      <point x="419" y="637"/>
      <point x="343" y="720"/>
      <point x="237" y="720" type="curve" smooth="yes"/>
      <point x="131" y="720"/>
      <point x="55" y="637"/>
      <point x="55" y="520" type="curve" smooth="yes"/>
      <point x="55" y="400"/>
      <point x="131" y="320"/>
      <point x="237" y="320" type="curve" smooth="yes"/>
      <point x="343" y="320"/>
      <point x="419" y="400"/>
    </contour>
    <contour>
      <point x="95" y="520" type="curve" smooth="yes"/>
      <point x="95" y="620"/>
      <point x="153" y="694"/>
      <point x="237" y="694" type="curve" smooth="yes"/>
      <point x="321" y="694"/>
      <point x="379" y="620"/>
      <point x="379" y="520" type="curve" smooth="yes"/>
      <point x="379" y="415"/>
      <point x="321" y="346"/>
      <point x="237" y="346" type="curve" smooth="yes"/>
      <point x="153" y="346"/>
      <point x="95" y="415"/>
    </contour>
  </outline>
</glyph>
<glyph name="AE" format="2">
  <advance width="935"/>
  <unicode hex="00C6"/>
  <outline>
    <contour>
      <point x="237" y="298" type="line"/>
      <point x="218" y="268" type="line"/>
      <point x="495" y="268" type="line"/>
      <point x="495" y="298" type="line"/>
    </contour>
    <contour>
      <point x="505" y="378" type="curve"/>
      <point x="505" y="350" type="line"/>
      <point x="595" y="349"/>
      <point x="683" y="347"/>
      <point x="771" y="346" type="curve"/>
      <point x="771" y="382" type="line"/>
      <point x="681" y="382"/>
      <point x="593" y="380"/>
    </contour>
    <contour>
      <point x="389" y="0" type="line"/>
      <point x="880" y="0" type="line"/>
      <point x="880" y="188" type="line"/>
      <point x="853" y="188" type="line"/>
      <point x="844" y="73" type="line" smooth="yes"/>
      <point x="841" y="37"/>
      <point x="805" y="30"/>
      <point x="719" y="30" type="curve" smooth="yes"/>
      <point x="525" y="30" type="line"/>
      <point x="525" y="680" type="line"/>
      <point x="690" y="680" type="line" smooth="yes"/>
      <point x="776" y="680"/>
      <point x="811" y="673"/>
      <point x="815" y="637" type="curve" smooth="yes"/>
      <point x="824" y="547" type="line"/>
      <point x="850" y="547" type="line"/>
      <point x="850" y="710" type="line"/>
      <point x="330" y="710" type="line"/>
      <point x="330" y="680" type="line"/>
      <point x="343" y="680" type="line" smooth="yes"/>
      <point x="395" y="680"/>
      <point x="431" y="673"/>
      <point x="433" y="655" type="curve"/>
      <point x="65" y="73" type="line" smooth="yes"/>
      <point x="43" y="39"/>
      <point x="28" y="30"/>
      <point x="-5" y="30" type="curve" smooth="yes"/>
      <point x="-10" y="30" type="line"/>
      <point x="-10" y="0" type="line"/>
      <point x="189" y="0" type="line"/>
      <point x="189" y="30" type="line"/>
      <point x="174" y="30" type="line" smooth="yes"/>
      <point x="136" y="30"/>
      <point x="90" y="37"/>
      <point x="90" y="48" type="curve"/>
      <point x="485" y="677" type="line"/>
      <point x="485" y="677" type="line"/>
      <point x="485" y="40" type="line"/>
      <point x="485" y="33"/>
      <point x="436" y="30"/>
      <point x="398" y="30" type="curve" smooth="yes"/>
      <point x="389" y="30" type="line"/>
    </contour>
  </outline>
</glyph>
<glyph name="Eth" format="2">
  <advance width="722"/>
  <unicode hex="00D0"/>
  <outline>
    <contour>
      <point x="45" y="370" type="line"/>
      <point x="45" y="340" type="line"/>
      <point x="435" y="340" type="line"/>
      <point x="435" y="370" type="line"/>
    </contour>
    <component base="D"/>
  </outline>
</glyph>
<glyph name="Oslash" format="2">
  <advance width="747"/>
  <unicode hex="00D8"/>
  <outline>
    <contour>
      <point x="373" y="690" type="curve" smooth="yes"/>
      <point x="549" y="690"/>
      <point x="657" y="570"/>
      <point x="657" y="355" type="curve" smooth="yes"/>
      <point x="657" y="150"/>
      <point x="539" y="20"/>
      <point x="373" y="20" type="curve" smooth="yes"/>
      <point x="197" y="20"/>
      <point x="90" y="140"/>
      <point x="90" y="355" type="curve" smooth="yes"/>
      <point x="90" y="560"/>
      <point x="207" y="690"/>
    </contour>
    <contour>
      <point x="373" y="-10" type="curve" smooth="yes"/>
      <point x="559" y="-10"/>
      <point x="700" y="139"/>
      <point x="700" y="355" type="curve" smooth="yes"/>
      <point x="700" y="572"/>
      <point x="559" y="720"/>
      <point x="373" y="720" type="curve" smooth="yes"/>
      <point x="188" y="720"/>
      <point x="47" y="572"/>
      <point x="47" y="355" type="curve" smooth="yes"/>
      <point x="47" y="139"/>
      <point x="188" y="-10"/>
    </contour>
    <contour>
      <point x="5" y="-10" type="line"/>
      <point x="45" y="-10" type="line"/>
      <point x="728" y="720" type="line"/>
      <point x="688" y="720" type="line"/>
    </contour>
  </outline>
</glyph>
<glyph name="dcroat" format="2">
  <advance width="594"/>
  <unicode hex="0111"/>
  <outline>
    <contour>
      <point x="267" y="518" type="curve" smooth="yes"/>
      <point x="135" y="518"/>
      <point x="44" y="408"/>
      <point x="44" y="250" type="curve" smooth="yes"/>
      <point x="44" y="93"/>
      <point x="125" y="-10"/>
      <point x="253" y="-10" type="curve" smooth="yes"/>
      <point x="361" y="-10"/>
      <point x="422" y="60"/>
      <point x="485" y="170" type="curve"/>
      <point x="469" y="197" type="line"/>
      <point x="414" y="93"/>
      <point x="349" y="20"/>
      <point x="259" y="20" type="curve" smooth="yes"/>
      <point x="145" y="20"/>
      <point x="87" y="108"/>
      <point x="87" y="250" type="curve" smooth="yes"/>
      <point x="87" y="392"/>
      <point x="153" y="488"/>
      <point x="270" y="488" type="curve" smooth="yes"/>
      <point x="355" y="488"/>
      <point x="416" y="423"/>
      <point x="457" y="325" type="curve"/>
      <point x="477" y="346" type="line"/>
      <point x="425" y="456"/>
      <point x="368" y="518"/>
    </contour>
    <contour>
      <point x="450" y="735" type="line"/>
      <point x="450" y="138" type="line"/>
      <point x="450" y="133" type="line"/>
      <point x="450" y="0" type="line"/>
      <point x="574" y="0" type="line"/>
      <point x="574" y="27" type="line"/>
      <point x="573" y="27" type="line"/>
      <point x="525" y="27"/>
      <point x="490" y="34"/>
      <point x="490" y="63" type="curve" smooth="yes"/>
      <point x="490" y="735" type="line"/>
    </contour>
    <contour>
      <point x="588" y="632" type="line"/>
      <point x="243" y="632" type="line"/>
      <point x="243" y="602" type="line"/>
      <point x="588" y="602" type="line"/>
    </contour>
  </outline>
</glyph>
<glyph name="hbar" format="2">
  <advance width="600"/>
  <unicode hex="0127"/>
  <outline>
    <contour>
      <point x="572" y="0" type="line"/>
      <point x="572" y="27" type="line"/>
      <point x="570" y="27" type="line" smooth="yes"/>
      <point x="522" y="27"/>
      <point x="488" y="34"/>
      <point x="488" y="63" type="curve" smooth="yes"/>
      <point x="488" y="357" type="line" smooth="yes"/>
      <point x="488" y="468"/>
      <point x="433" y="518"/>
      <point x="340" y="518" type="curve" smooth="yes"/>
      <point x="251" y="518"/>
      <point x="189" y="468"/>
      <point x="126" y="366" type="curve"/>
      <point x="136" y="335" type="line"/>
      <point x="190" y="428"/>
      <point x="251" y="485"/>
      <point x="333" y="485" type="curve" smooth="yes"/>
      <point x="418" y="485"/>
      <point x="448" y="442"/>
      <point x="448" y="346" type="curve" smooth="yes"/>
      <point x="448" y="37" type="line" smooth="yes"/>
      <point x="448" y="30"/>
      <point x="403" y="27"/>
      <point x="375" y="27" type="curve" smooth="yes"/>
      <point x="373" y="27" type="line"/>
      <point x="373" y="0" type="line"/>
    </contour>
    <contour>
      <point x="119" y="735" type="line"/>
      <point x="119" y="63" type="line" smooth="yes"/>
      <point x="119" y="34"/>
      <point x="85" y="27"/>
      <point x="37" y="27" type="curve" smooth="yes"/>
      <point x="35" y="27" type="line"/>
      <point x="35" y="0" type="line"/>
      <point x="234" y="0" type="line"/>
      <point x="234" y="27" type="line"/>
      <point x="231" y="27" type="line" smooth="yes"/>
      <point x="203" y="27"/>
      <point x="159" y="30"/>
      <point x="159" y="37" type="curve"/>
      <point x="159" y="735" type="line"/>
    </contour>
    <contour>
      <point x="378" y="632" type="line"/>
      <point x="21" y="632" type="line"/>
      <point x="21" y="602" type="line"/>
      <point x="378" y="602" type="line"/>
    </contour>
  </outline>
</glyph>
<glyph name="itilde" format="2">
  <advance width="278"/>
  <unicode hex="0129"/>
  <outline>
    <contour>
      <point x="188" y="617" type="curve" smooth="yes"/>
      <point x="237" y="617"/>
      <point x="259" y="652"/>
      <point x="277" y="715" type="curve"/>
      <point x="249" y="724" type="line"/>
      <point x="235" y="678"/>
      <point x="222" y="651"/>
      <point x="195" y="651" type="curve" smooth="yes"/>
      <point x="151" y="651"/>
      <point x="126" y="727"/>
      <point x="54" y="727" type="curve" smooth="yes"/>
      <point x="6" y="727"/>
      <point x="-19" y="693"/>
      <point x="-31" y="627" type="curve"/>
      <point x="-3" y="617" type="line"/>
      <point x="7" y="666"/>
      <point x="18" y="693"/>
      <point x="48" y="693" type="curve" smooth="yes"/>
      <point x="90" y="693"/>
      <point x="112" y="617"/>
    </contour>
    <component base="dotlessi"/>
  </outline>
</glyph>
<glyph name="ibreve" format="2">
  <advance width="278"/>
  <unicode hex="012D"/>
  <outline>
    <contour>
      <point x="135" y="594" type="curve" smooth="yes"/>
      <point x="66" y="594"/>
      <point x="19" y="643"/>
      <point x="14" y="736" type="curve"/>
      <point x="42" y="736" type="line"/>
      <point x="51" y="662"/>
      <point x="83" y="637"/>
      <point x="136" y="637" type="curve" smooth="yes"/>
      <point x="187" y="637"/>
      <point x="221" y="662"/>
      <point x="230" y="736" type="curve"/>
      <point x="256" y="736" type="line"/>
      <point x="251" y="643"/>
      <point x="204" y="594"/>
    </contour>
    <component base="dotlessi"/>
  </outline>
</glyph>
<glyph name="dotlessi" format="2">
  <advance width="278"/>
  <unicode hex="0131"/>
  <outline>
    <contour>
      <point x="159" y="508" type="line"/>
      <point x="35" y="508" type="line"/>
      <point x="35" y="483" type="line"/>
      <point x="45" y="481" type="line" smooth="yes"/>
      <point x="95" y="471"/>
      <point x="119" y="465"/>
      <point x="119" y="436" type="curve" smooth="yes"/>
      <point x="119" y="63" type="line" smooth="yes"/>
      <point x="119" y="34"/>
      <point x="85" y="27"/>
      <point x="37" y="27" type="curve" smooth="yes"/>
      <point x="35" y="27" type="line"/>
      <point x="35" y="0" type="line"/>
      <point x="243" y="0" type="line"/>
      <point x="243" y="27" type="line"/>
      <point x="241" y="27" type="line" smooth="yes"/>
      <point x="193" y="27"/>
      <point x="159" y="34"/>
      <point x="159" y="63" type="curve" smooth="yes"/>
    </contour>
  </outline>
</glyph>
<glyph name="kgreenlandic" format="2">
  <advance width="584"/>
  <unicode hex="0138"/>
  <outline>
    <contour>
      <point x="556" y="0" type="line"/>
      <point x="556" y="30" type="line"/>
      <point x="554" y="30" type="line"/>
      <point x="520" y="30"/>
      <point x="491" y="37"/>
      <point x="460" y="68" type="curve" smooth="yes"/>
      <point x="238" y="291" type="line"/>
      <point x="239" y="273" type="line"/>
      <point x="416" y="429" type="line" smooth="yes"/>
      <point x="453" y="462"/>
      <point x="485" y="478"/>
      <point x="528" y="478" type="curve"/>
      <point x="530" y="478" type="line"/>
      <point x="530" y="508" type="line"/>
      <point x="313" y="508" type="line"/>
      <point x="313" y="478" type="line"/>
      <point x="317" y="478" type="line"/>
      <point x="350" y="478"/>
      <point x="401" y="475"/>
      <point x="401" y="460" type="curve"/>
      <point x="200" y="281" type="line"/>
      <point x="200" y="276" type="line"/>
      <point x="434" y="40" type="line"/>
      <point x="434" y="33"/>
      <point x="390" y="30"/>
      <point x="359" y="30" type="curve"/>
      <point x="353" y="30" type="line"/>
      <point x="353" y="0" type="line"/>
    </contour>
    <contour>
      <point x="160" y="508" type="line"/>
      <point x="36" y="508" type="line"/>
      <point x="36" y="483" type="line"/>
      <point x="46" y="481" type="line" smooth="yes"/>
      <point x="96" y="471"/>
      <point x="120" y="465"/>
      <point x="120" y="436" type="curve" smooth="yes"/>
      <point x="120" y="63" type="line" smooth="yes"/>
      <point x="120" y="34"/>
      <point x="86" y="27"/>
      <point x="38" y="27" type="curve"/>
      <point x="36" y="27" type="line"/>
      <point x="36" y="0" type="line"/>
      <point x="235" y="0" type="line"/>
      <point x="235" y="27" type="line"/>
      <point x="232" y="27" type="line" smooth="yes"/>
      <point x="205" y="27"/>
      <point x="160" y="30"/>
      <point x="160" y="37" type="curve" smooth="yes"/>
    </contour>
  </outline>
</glyph>
<glyph name="Lslash" format="2">
  <advance width="583"/>
  <unicode hex="0141"/>
  <outline>
    <contour>
      <point x="45" y="228" type="line"/>
      <point x="45" y="268" type="line"/>
      <point x="395" y="520" type="line"/>
      <point x="395" y="480" type="line"/>
    </contour>
    <component base="L"/>
  </outline>
</glyph>
<glyph name="Uogonek" format="2">
  <advance width="784"/>
  <unicode hex="0172"/>
  <outline>
    <contour>
      <point x="502" y="20" type="line"/>
      <point x="429" y="-23"/>
      <point x="362" y="-71"/>
      <point x="362" y="-140" type="curve" smooth="yes"/>
      <point x="362" y="-198"/>
      <point x="405" y="-233"/>
      <point x="457" y="-233" type="curve" smooth="yes"/>
      <point x="500" y="-233"/>
      <point x="533" y="-211"/>
      <point x="560" y="-180" type="curve"/>
      <point x="541" y="-160" type="line"/>
      <point x="519" y="-183"/>
      <point x="497" y="-203"/>
      <point x="463" y="-203" type="curve" smooth="yes"/>
      <point x="430" y="-203"/>
      <point x="402" y="-181"/>
      <point x="402" y="-140" type="curve" smooth="yes"/>
      <point x="402" y="-72"/>
      <point x="450" y="-45"/>
      <point x="555" y="41" type="curve" smooth="yes"/>
      <point x="609" y="85"/>
      <point x="643" y="159"/>
      <point x="643" y="271" type="curve" smooth="yes"/>
      <point x="643" y="634" type="line" smooth="yes"/>
      <point x="643" y="668"/>
      <point x="679" y="680"/>
      <point x="728" y="680" type="curve" smooth="yes"/>
      <point x="739" y="680" type="line"/>
      <point x="739" y="710" type="line"/>
      <point x="514" y="710" type="line"/>
      <point x="514" y="680" type="line"/>
      <point x="523" y="680" type="line" smooth="yes"/>
      <point x="561" y="680"/>
      <point x="610" y="672"/>
      <point x="610" y="658" type="curve" smooth="yes"/>
      <point x="610" y="271" type="line" smooth="yes"/>
      <point x="610" y="89"/>
      <point x="517" y="24"/>
      <point x="396" y="24" type="curve" smooth="yes"/>
      <point x="276" y="24"/>
      <point x="181" y="86"/>
      <point x="181" y="271" type="curve" smooth="yes"/>
      <point x="181" y="670" type="line" smooth="yes"/>
      <point x="181" y="677"/>
      <point x="230" y="680"/>
      <point x="268" y="680" type="curve" smooth="yes"/>
      <point x="277" y="680" type="line"/>
      <point x="277" y="710" type="line"/>
      <point x="45" y="710" type="line"/>
      <point x="45" y="680" type="line"/>
      <point x="56" y="680" type="line" smooth="yes"/>
      <point x="105" y="680"/>
      <point x="141" y="673"/>
      <point x="141" y="644" type="curve" smooth="yes"/>
      <point x="141" y="271" type="line" smooth="yes"/>
      <point x="141" y="68"/>
      <point x="247" y="-10"/>
      <point x="392" y="-10" type="curve" smooth="yes"/>
      <point x="428" y="-10"/>
      <point x="463" y="-5"/>
      <point x="494" y="7" type="curve"/>
    </contour>
  </outline>
</glyph>
<glyph name="Dhook" format="2">
  <advance width="764"/>
  <unicode hex="018A"/>
  <outline>
    <contour>
      <point x="183" y="710" type="line"/>
      <point x="59" y="710"/>
      <point x="-2" y="650"/>
      <point x="-2" y="553" type="curve"/>
      <point x="-2" y="527"/>
      <point x="2" y="501"/>
      <point x="10" y="481" type="curve"/>
      <point x="53" y="481" type="line"/>
      <point x="43" y="504"/>
      <point x="39" y="530"/>
      <point x="39" y="555" type="curve"/>
      <point x="39" y="629"/>
      <point x="79" y="680"/>
      <point x="183" y="680" type="curve"/>
      <point x="184" y="680" type="line"/>
      <point x="184" y="66" type="line" smooth="yes"/>
      <point x="184" y="37"/>
      <point x="148" y="30"/>
      <point x="99" y="30" type="curve" smooth="yes"/>
      <point x="87" y="30" type="line"/>
      <point x="87" y="0" type="line"/>
      <point x="342" y="0" type="line" smooth="yes"/>
      <point x="580" y="0"/>
      <point x="717" y="141"/>
      <point x="717" y="357" type="curve" smooth="yes"/>
      <point x="717" y="574"/>
      <point x="580" y="710"/>
      <point x="342" y="710" type="curve" smooth="yes"/>
    </contour>
    <contour>
      <point x="342" y="680" type="line" smooth="yes"/>
      <point x="556" y="680"/>
      <point x="674" y="563"/>
      <point x="674" y="357" type="curve" smooth="yes"/>
      <point x="674" y="151"/>
      <point x="556" y="30"/>
      <point x="342" y="30" type="curve" smooth="yes"/>
      <point x="224" y="30" type="line"/>
      <point x="224" y="680" type="line"/>
    </contour>
  </outline>
</glyph>
<glyph name="Yhook" format="2">
  <advance width="677"/>
  <unicode hex="01B3"/>
  <outline>
    <contour>
      <point x="489" y="595" type="curve" smooth="yes"/>
      <point x="315" y="298" type="line"/>
      <point x="345" y="308" type="line"/>
      <point x="132" y="670" type="line"/>
      <point x="132" y="677"/>
      <point x="179" y="680"/>
      <point x="215" y="680" type="curve" smooth="yes"/>
      <point x="232" y="680" type="line"/>
      <point x="232" y="710" type="line"/>
      <point x="15" y="710" type="line"/>
      <point x="15" y="680" type="line"/>
      <point x="20" y="680" type="line" smooth="yes"/>
      <point x="54" y="680"/>
      <point x="81" y="680"/>
      <point x="96" y="654" type="curve" smooth="yes"/>
      <point x="320" y="278" type="line"/>
      <point x="310" y="311" type="line"/>
      <point x="310" y="66" type="line" smooth="yes"/>
      <point x="310" y="37"/>
      <point x="274" y="30"/>
      <point x="225" y="30" type="curve" smooth="yes"/>
      <point x="209" y="30" type="line"/>
      <point x="209" y="0" type="line"/>
      <point x="451" y="0" type="line"/>
      <point x="451" y="30" type="line"/>
      <point x="435" y="30" type="line" smooth="yes"/>
      <point x="386" y="30"/>
      <point x="350" y="37"/>
      <point x="350" y="66" type="curve" smooth="yes"/>
      <point x="350" y="311" type="line"/>
      <point x="339" y="278" type="line"/>
      <point x="509" y="566" type="line" smooth="yes"/>
      <point x="559.0467289719627" y="653.0"/>
      <point x="586" y="687.0"/>
      <point x="614" y="687" type="curve" smooth="yes"/>
      <point x="644.6976744186046" y="687.0"/>
      <point x="658.0" y="663.0"/>
      <point x="658" y="596" type="curve" smooth="yes"/>
      <point x="658.0" y="551"/>
      <point x="649.0" y="508"/>
      <point x="639" y="481" type="curve"/>
      <point x="680" y="481" type="line"/>
      <point x="690.0" y="507"/>
      <point x="698.0" y="560"/>
      <point x="698" y="597" type="curve" smooth="yes"/>
      <point x="698.0" y="670.0"/>
      <point x="677.746835443038" y="719.0"/>
      <point x="618" y="719" type="curve" smooth="yes"/>
      <point x="577.3153846153846" y="719.0"/>
      <point x="549.5307692307692" y="699.0"/>
    </contour>
  </outline>
</glyph>
<glyph name="ringhalfright" format="2">
  <advance width="500"/>
  <unicode hex="02BE"/>
  <outline>
    <contour>
      <point x="250" y="768" type="line"/>
      <point x="306" y="768"/>
      <point x="351" y="735"/>
      <point x="351" y="677" type="curve" smooth="yes"/>
      <point x="351" y="619"/>
      <point x="305" y="586"/>
      <point x="250" y="586" type="curve"/>
      <point x="250" y="612" type="line"/>
      <point x="285" y="612"/>
      <point x="313" y="634"/>
      <point x="313" y="677" type="curve" smooth="yes"/>
      <point x="313" y="720"/>
      <point x="285" y="742"/>
      <point x="250" y="742" type="curve"/>
    </contour>
  </outline>
</glyph>
<glyph name="circumflex" format="2">
  <advance width="500"/>
  <unicode hex="02C6"/>
  <outline>
    <contour>
      <point x="281" y="739" type="line"/>
      <point x="382" y="607" type="line"/>
      <point x="382" y="597" type="line"/>
      <point x="358" y="597" type="line"/>
      <point x="226" y="726" type="line"/>
      <point x="267" y="726" type="line"/>
      <point x="137" y="597" type="line"/>
      <point x="119" y="597" type="line"/>
      <point x="119" y="607" type="line"/>
      <point x="218" y="739" type="line"/>
    </contour>
  </outline>
</glyph>
<glyph name="breve" format="2">
  <advance width="500"/>
  <unicode hex="02D8"/>
  <outline>
    <contour>
      <point x="253" y="594" type="curve" smooth="yes"/>
      <point x="184" y="594"/>
      <point x="137" y="643"/>
      <point x="132" y="736" type="curve"/>
      <point x="160" y="736" type="line"/>
      <point x="169" y="662"/>
      <point x="201" y="637"/>
      <point x="254" y="637" type="curve" smooth="yes"/>
      <point x="305" y="637"/>
      <point x="339" y="662"/>
      <point x="348" y="736" type="curve"/>
      <point x="374" y="736" type="line"/>
      <point x="369" y="643"/>
      <point x="322" y="594"/>
    </contour>
  </outline>
</glyph>
<glyph name="ogonek" format="2">
  <advance width="600"/>
  <unicode hex="02DB"/>
  <outline>
    <contour>
      <point x="385" y="21" type="line"/>
      <point x="322" y="-22"/>
      <point x="257" y="-69"/>
      <point x="257" y="-140" type="curve" smooth="yes"/>
      <point x="257" y="-198"/>
      <point x="300" y="-233"/>
      <point x="352" y="-233" type="curve" smooth="yes"/>
      <point x="395" y="-233"/>
      <point x="428" y="-211"/>
      <point x="455" y="-180" type="curve"/>
      <point x="436" y="-160" type="line"/>
      <point x="414" y="-183"/>
      <point x="392" y="-203"/>
      <point x="358" y="-203" type="curve" smooth="yes"/>
      <point x="325" y="-203"/>
      <point x="297" y="-181"/>
      <point x="297" y="-140" type="curve" smooth="yes"/>
      <point x="297" y="-83"/>
      <point x="332.8249664904" y="-50.1275244141"/>
      <point x="403" y="1" type="curve"/>
    </contour>
  </outline>
</glyph>
<glyph name="Eukrcyr" format="2">
  <advance width="687"/>
  <unicode hex="0404"/>
  <guideline x="211" y="787" angle="90" identifier="mFTeE97JTj"/>
  <outline>
    <contour>
      <point x="81" y="378" type="curve"/>
      <point x="81" y="350" type="line"/>
      <point x="201" y="349"/>
      <point x="322" y="347"/>
      <point x="442" y="346" type="curve"/>
      <point x="442" y="382" type="line"/>
      <point x="322" y="381"/>
      <point x="201" y="379"/>
    </contour>
    <contour>
      <point x="359" y="690" type="curve" smooth="yes"/>
      <point x="483" y="690"/>
      <point x="560" y="611"/>
      <point x="591" y="506" type="curve"/>
      <point x="623" y="506" type="line"/>
      <point x="623" y="710" type="line"/>
      <point x="597" y="710" type="line"/>
      <point x="585" y="548" type="line"/>
      <point x="600" y="568" type="line"/>
      <point x="562" y="658"/>
      <point x="472" y="720"/>
      <point x="359" y="720" type="curve" smooth="yes"/>
      <point x="190" y="720"/>
      <point x="47" y="569"/>
      <point x="47" y="355" type="curve" smooth="yes"/>
      <point x="47" y="138"/>
      <point x="180" y="-10"/>
      <point x="366" y="-10" type="curve" smooth="yes"/>
      <point x="512" y="-10"/>
      <point x="603" y="76"/>
      <point x="636" y="199" type="curve"/>
      <point x="606" y="215" type="line"/>
      <point x="579" y="107"/>
      <point x="502" y="20"/>
      <point x="366" y="20" type="curve" smooth="yes"/>
      <point x="199" y="20"/>
      <point x="90" y="153"/>
      <point x="90" y="355" type="curve" smooth="yes"/>
      <point x="90" y="557"/>
      <point x="213" y="690"/>
    </contour>
  </outline>
</glyph>
<glyph name="Njecyr" format="2">
  <advance width="1025"/>
  <unicode hex="040A"/>
  <outline>
    <contour>
      <point x="172" y="405" type="line"/>
      <point x="172" y="375" type="line"/>
      <point x="582" y="375" type="line"/>
      <point x="582" y="405" type="line"/>
    </contour>
    <contour>
      <point x="45" y="0" type="line"/>
      <point x="277" y="0" type="line"/>
      <point x="277" y="30" type="line"/>
      <point x="268" y="30" type="line" smooth="yes"/>
      <point x="230" y="30"/>
      <point x="181" y="33"/>
      <point x="181" y="40" type="curve" smooth="yes"/>
      <point x="181" y="670" type="line" smooth="yes"/>
      <point x="181" y="677"/>
      <point x="230" y="680"/>
      <point x="268" y="680" type="curve" smooth="yes"/>
      <point x="277" y="680" type="line"/>
      <point x="277" y="710" type="line"/>
      <point x="45" y="710" type="line"/>
      <point x="45" y="680" type="line"/>
      <point x="56" y="680" type="line" smooth="yes"/>
      <point x="105" y="680"/>
      <point x="141" y="673"/>
      <point x="141" y="644" type="curve" smooth="yes"/>
      <point x="141" y="66" type="line" smooth="yes"/>
      <point x="141" y="37"/>
      <point x="105" y="30"/>
      <point x="56" y="30" type="curve" smooth="yes"/>
      <point x="45" y="30" type="line"/>
    </contour>
    <contour>
      <point x="467" y="0" type="line"/>
      <point x="737" y="0" type="line" smooth="yes"/>
      <point x="907" y="0"/>
      <point x="992" y="84"/>
      <point x="992" y="205" type="curve" smooth="yes"/>
      <point x="992" y="330"/>
      <point x="907" y="405"/>
      <point x="742" y="405" type="curve" smooth="yes"/>
      <point x="583" y="405" type="line"/>
      <point x="583" y="375" type="line"/>
      <point x="742" y="375" type="line" smooth="yes"/>
      <point x="882" y="375"/>
      <point x="949" y="310"/>
      <point x="949" y="205" type="curve" smooth="yes"/>
      <point x="949" y="96"/>
      <point x="882" y="30"/>
      <point x="737" y="30" type="curve" smooth="yes"/>
      <point x="603" y="30" type="line"/>
      <point x="603" y="644" type="line" smooth="yes"/>
      <point x="603" y="673"/>
      <point x="639" y="680"/>
      <point x="688" y="680" type="curve" smooth="yes"/>
      <point x="699" y="680" type="line"/>
      <point x="699" y="710" type="line"/>
      <point x="467" y="710" type="line"/>
      <point x="467" y="680" type="line"/>
      <point x="476" y="680" type="line" smooth="yes"/>
      <point x="514" y="680"/>
      <point x="563" y="677"/>
      <point x="563" y="670" type="curve" smooth="yes"/>
      <point x="563" y="40" type="line" smooth="yes"/>
      <point x="563" y="33"/>
      <point x="514" y="30"/>
      <point x="476" y="30" type="curve" smooth="yes"/>
      <point x="467" y="30" type="line"/>
    </contour>
  </outline>
</glyph>
<glyph name="Tshecyr" format="2">
  <advance width="864"/>
  <unicode hex="040B"/>
  <outline>
    <contour>
      <point x="520" y="408" type="curve" smooth="yes"/>
      <point x="448.2977777778" y="408"/>
      <point x="365.0204784009" y="392.5467885138"/>
      <point x="299" y="362" type="curve"/>
      <point x="299" y="332" type="line"/>
      <point x="364.0403032897" y="362.5492333634"/>
      <point x="448.2977777778" y="378"/>
      <point x="520" y="378" type="curve" smooth="yes"/>
      <point x="643.8639053254" y="378"/>
      <point x="693" y="328"/>
      <point x="693" y="185" type="curve" smooth="yes"/>
      <point x="693" y="0" type="line"/>
      <point x="829" y="0" type="line"/>
      <point x="829" y="30" type="line"/>
      <point x="818" y="30" type="line" smooth="yes"/>
      <point x="769" y="30"/>
      <point x="733" y="37"/>
      <point x="733" y="66" type="curve" smooth="yes"/>
      <point x="733" y="195" type="line" smooth="yes"/>
      <point x="733" y="348"/>
      <point x="671.8516746411" y="408"/>
    </contour>
    <contour>
      <point x="175" y="0" type="line"/>
      <point x="417" y="0" type="line"/>
      <point x="417" y="30" type="line"/>
      <point x="403" y="30" type="line" smooth="yes"/>
      <point x="365" y="30"/>
      <point x="316" y="33"/>
      <point x="316" y="40" type="curve" smooth="yes"/>
      <point x="316" y="680" type="line"/>
      <point x="432" y="680" type="line" smooth="yes"/>
      <point x="518" y="680"/>
      <point x="554" y="673"/>
      <point x="557" y="637" type="curve" smooth="yes"/>
      <point x="566" y="539" type="line"/>
      <point x="592" y="539" type="line"/>
      <point x="592" y="710" type="line"/>
      <point x="40" y="710" type="line"/>
      <point x="40" y="539" type="line"/>
      <point x="66" y="539" type="line"/>
      <point x="75" y="637" type="line" smooth="yes"/>
      <point x="78" y="673"/>
      <point x="114" y="680"/>
      <point x="200" y="680" type="curve" smooth="yes"/>
      <point x="276" y="680" type="line"/>
      <point x="276" y="66" type="line" smooth="yes"/>
      <point x="276" y="37"/>
      <point x="240" y="30"/>
      <point x="191" y="30" type="curve" smooth="yes"/>
      <point x="175" y="30" type="line"/>
    </contour>
  </outline>
</glyph>
<glyph name="Dzhecyr" format="2">
  <advance width="769"/>
  <unicode hex="040F"/>
  <outline>
    <contour>
      <point x="45" y="710" type="line"/>
      <point x="45" y="680" type="line"/>
      <point x="56" y="680" type="line" smooth="yes"/>
      <point x="105" y="680"/>
      <point x="141" y="673"/>
      <point x="141" y="644" type="curve" smooth="yes"/>
      <point x="141" y="66" type="line" smooth="yes"/>
      <point x="141" y="37"/>
      <point x="105" y="30"/>
      <point x="56" y="30" type="curve" smooth="yes"/>
      <point x="45" y="30" type="line"/>
      <point x="45" y="0" type="line"/>
      <point x="181" y="0" type="line"/>
      <point x="181" y="670" type="line" smooth="yes"/>
      <point x="181" y="677"/>
      <point x="230" y="680"/>
      <point x="268" y="680" type="curve" smooth="yes"/>
      <point x="277" y="680" type="line"/>
      <point x="277" y="710" type="line"/>
    </contour>
    <contour>
      <point x="492" y="710" type="line"/>
      <point x="492" y="680" type="line"/>
      <point x="501" y="680" type="line" smooth="yes"/>
      <point x="539" y="680"/>
      <point x="588" y="677"/>
      <point x="588" y="670" type="curve" smooth="yes"/>
      <point x="588" y="0" type="line"/>
      <point x="724" y="0" type="line"/>
      <point x="724" y="30" type="line"/>
      <point x="713" y="30" type="line" smooth="yes"/>
      <point x="664" y="30"/>
      <point x="628" y="37"/>
      <point x="628" y="66" type="curve" smooth="yes"/>
      <point x="628" y="644" type="line" smooth="yes"/>
      <point x="628" y="673"/>
      <point x="664" y="680"/>
      <point x="713" y="680" type="curve" smooth="yes"/>
      <point x="724" y="680" type="line"/>
      <point x="724" y="710" type="line"/>
    </contour>
    <contour>
      <point x="162" y="0" type="line"/>
      <point x="259" y="0" type="line" smooth="yes"/>
      <point x="331" y="0"/>
      <point x="361" y="-10"/>
      <point x="364" y="-50" type="curve" smooth="yes"/>
      <point x="372" y="-150" type="line"/>
      <point x="397" y="-150" type="line"/>
      <point x="405" y="-50" type="line" smooth="yes"/>
      <point x="408" y="-10"/>
      <point x="437" y="0"/>
      <point x="509" y="0" type="curve" smooth="yes"/>
      <point x="616" y="0" type="line"/>
      <point x="616" y="30" type="line"/>
      <point x="162" y="30" type="line"/>
    </contour>
  </outline>
</glyph>
<glyph name="Becyr" format="2">
  <advance width="613"/>
  <unicode hex="0411"/>
  <outline>
    <contour>
      <point x="45" y="710" type="line"/>
      <point x="45" y="680" type="line"/>
      <point x="56" y="680" type="line" smooth="yes"/>
      <point x="105" y="680"/>
      <point x="141" y="673"/>
      <point x="141" y="644" type="curve" smooth="yes"/>
      <point x="141" y="66" type="line" smooth="yes"/>
      <point x="141" y="37"/>
      <point x="105" y="30"/>
      <point x="56" y="30" type="curve" smooth="yes"/>
      <point x="45" y="30" type="line"/>
      <point x="45" y="0" type="line"/>
      <point x="315" y="0" type="line" smooth="yes"/>
      <point x="485" y="0"/>
      <point x="570" y="83.9523809524"/>
      <point x="570" y="205" type="curve" smooth="yes"/>
      <point x="570" y="330"/>
      <point x="485" y="405"/>
      <point x="320" y="405" type="curve" smooth="yes"/>
      <point x="161" y="405" type="line"/>
      <point x="161" y="375" type="line"/>
      <point x="320" y="375" type="line" smooth="yes"/>
      <point x="460" y="375"/>
      <point x="527" y="310"/>
      <point x="527" y="205" type="curve" smooth="yes"/>
      <point x="527" y="96.1111111111"/>
      <point x="460" y="30"/>
      <point x="315" y="30" type="curve" smooth="yes"/>
      <point x="181" y="30" type="line"/>
      <point x="181" y="680" type="line"/>
      <point x="362" y="680" type="line" smooth="yes"/>
      <point x="448" y="680"/>
      <point x="483" y="673"/>
      <point x="487" y="637" type="curve" smooth="yes"/>
      <point x="496" y="547" type="line"/>
      <point x="522" y="547" type="line"/>
      <point x="522" y="710" type="line"/>
    </contour>
  </outline>
</glyph>
<glyph name="Pecyr" format="2">
  <advance width="769"/>
  <unicode hex="041F"/>
  <outline>
    <contour>
      <point x="164" y="710" type="line"/>
      <point x="164" y="680" type="line"/>
      <point x="609" y="680" type="line"/>
      <point x="609" y="710" type="line"/>
    </contour>
    <contour>
      <point x="45" y="0" type="line"/>
      <point x="277" y="0" type="line"/>
      <point x="277" y="30" type="line"/>
      <point x="268" y="30" type="line" smooth="yes"/>
      <point x="230" y="30"/>
      <point x="181" y="33"/>
      <point x="181" y="40" type="curve" smooth="yes"/>
      <point x="181" y="710" type="line"/>
      <point x="45" y="710" type="line"/>
      <point x="45" y="680" type="line"/>
      <point x="56" y="680" type="line" smooth="yes"/>
      <point x="105" y="680"/>
      <point x="141" y="673"/>
      <point x="141" y="644" type="curve" smooth="yes"/>
      <point x="141" y="66" type="line" smooth="yes"/>
      <point x="141" y="37"/>
      <point x="105" y="30"/>
      <point x="56" y="30" type="curve" smooth="yes"/>
      <point x="45" y="30" type="line"/>
    </contour>
    <contour>
      <point x="492" y="0" type="line"/>
      <point x="724" y="0" type="line"/>
      <point x="724" y="30" type="line"/>
      <point x="713" y="30" type="line" smooth="yes"/>
      <point x="664" y="30"/>
      <point x="628" y="37"/>
      <point x="628" y="66" type="curve" smooth="yes"/>
      <point x="628" y="644" type="line" smooth="yes"/>
      <point x="628" y="673"/>
      <point x="664" y="680"/>
      <point x="713" y="680" type="curve" smooth="yes"/>
      <point x="724" y="680" type="line"/>
      <point x="724" y="710" type="line"/>
      <point x="588" y="710" type="line"/>
      <point x="588" y="40" type="line" smooth="yes"/>
      <point x="588" y="33"/>
      <point x="539" y="30"/>
      <point x="501" y="30" type="curve" smooth="yes"/>
      <point x="492" y="30" type="line"/>
    </contour>
  </outline>
</glyph>
<glyph name="Ucyr" format="2">
  <advance width="658"/>
  <unicode hex="0423"/>
  <outline>
    <contour>
      <point x="362" y="182" type="curve" smooth="yes"/>
      <point x="557" y="639" type="line" smooth="yes"/>
      <point x="574" y="678"/>
      <point x="605.6" y="680"/>
      <point x="638" y="680" type="curve" smooth="yes"/>
      <point x="643" y="680" type="line"/>
      <point x="643" y="710" type="line"/>
      <point x="431" y="710" type="line"/>
      <point x="431" y="680" type="line"/>
      <point x="446" y="680" type="line" smooth="yes"/>
      <point x="484" y="680"/>
      <point x="529" y="673"/>
      <point x="529" y="662" type="curve"/>
      <point x="332" y="196" type="line" smooth="yes"/>
      <point x="286" y="86"/>
      <point x="250" y="33"/>
      <point x="185" y="33" type="curve" smooth="yes"/>
      <point x="154" y="33"/>
      <point x="133" y="41"/>
      <point x="120" y="50" type="curve"/>
      <point x="120" y="5" type="line"/>
      <point x="132" y="-3"/>
      <point x="153" y="-10"/>
      <point x="185" y="-10" type="curve" smooth="yes"/>
      <point x="265" y="-10"/>
      <point x="303.5030160217" y="44.9070683176"/>
    </contour>
    <contour>
      <point x="344" y="186" type="line"/>
      <point x="133" y="670" type="line"/>
      <point x="133" y="677"/>
      <point x="180" y="680"/>
      <point x="216" y="680" type="curve" smooth="yes"/>
      <point x="232" y="680" type="line"/>
      <point x="232" y="710" type="line"/>
      <point x="15" y="710" type="line"/>
      <point x="15" y="680" type="line"/>
      <point x="20" y="680" type="line" smooth="yes"/>
      <point x="54" y="680"/>
      <point x="84" y="680"/>
      <point x="96" y="653" type="curve" smooth="yes"/>
      <point x="317" y="155" type="line"/>
    </contour>
  </outline>
</glyph>
<glyph name="Efcyr" format="2">
  <advance width="826"/>
  <unicode hex="0424"/>
  <outline>
    <contour>
      <point x="393" y="46" type="line" smooth="yes"/>
      <point x="393" y="17"/>
      <point x="357" y="10"/>
      <point x="308" y="10" type="curve" smooth="yes"/>
      <point x="297" y="10" type="line"/>
      <point x="297" y="-20" type="line"/>
      <point x="529" y="-20" type="line"/>
      <point x="529" y="10" type="line"/>
      <point x="518" y="10" type="line" smooth="yes"/>
      <point x="469" y="10"/>
      <point x="433" y="17"/>
      <point x="433" y="46" type="curve" smooth="yes"/>
      <point x="433" y="664" type="line" smooth="yes"/>
      <point x="433" y="693"/>
      <point x="469" y="700"/>
      <point x="518" y="700" type="curve" smooth="yes"/>
      <point x="529" y="700" type="line"/>
      <point x="529" y="730" type="line"/>
      <point x="297" y="730" type="line"/>
      <point x="297" y="700" type="line"/>
      <point x="308" y="700" type="line" smooth="yes"/>
      <point x="357" y="700"/>
      <point x="393" y="693"/>
      <point x="393" y="664" type="curve" smooth="yes"/>
    </contour>
    <contour>
      <point x="393" y="620" type="line"/>
      <point x="154" y="620"/>
      <point x="33" y="515"/>
      <point x="33" y="360" type="curve" smooth="yes"/>
      <point x="33" y="205"/>
      <point x="154" y="100"/>
      <point x="393" y="100" type="curve"/>
      <point x="393" y="130" type="line"/>
      <point x="173" y="130"/>
      <point x="73" y="218"/>
      <point x="73" y="360" type="curve" smooth="yes"/>
      <point x="73" y="502"/>
      <point x="169" y="590"/>
      <point x="393" y="590" type="curve"/>
    </contour>
    <contour>
      <point x="433" y="100" type="line"/>
      <point x="672" y="100"/>
      <point x="793" y="205"/>
      <point x="793" y="360" type="curve" smooth="yes"/>
      <point x="793" y="515"/>
      <point x="672" y="620"/>
      <point x="433" y="620" type="curve"/>
      <point x="433" y="590" type="line"/>
      <point x="653" y="590"/>
      <point x="753" y="502"/>
      <point x="753" y="360" type="curve" smooth="yes"/>
      <point x="753" y="218"/>
      <point x="657" y="130"/>
      <point x="433" y="130" type="curve"/>
    </contour>
  </outline>
</glyph>
<glyph name="Tsecyr" format="2">
  <advance width="769"/>
  <unicode hex="0426"/>
  <outline>
    <contour>
      <point x="160" y="0" type="line"/>
      <point x="555" y="0" type="line"/>
      <point x="555" y="30" type="line"/>
      <point x="160" y="30" type="line"/>
    </contour>
    <contour>
      <point x="45" y="710" type="line"/>
      <point x="45" y="680" type="line"/>
      <point x="56" y="680" type="line" smooth="yes"/>
      <point x="105" y="680"/>
      <point x="141" y="673"/>
      <point x="141" y="644" type="curve" smooth="yes"/>
      <point x="141" y="66" type="line" smooth="yes"/>
      <point x="141" y="37"/>
      <point x="105" y="30"/>
      <point x="56" y="30" type="curve" smooth="yes"/>
      <point x="45" y="30" type="line"/>
      <point x="45" y="0" type="line"/>
      <point x="181" y="0" type="line"/>
      <point x="181" y="670" type="line" smooth="yes"/>
      <point x="181" y="677"/>
      <point x="230" y="680"/>
      <point x="268" y="680" type="curve" smooth="yes"/>
      <point x="277" y="680" type="line"/>
      <point x="277" y="710" type="line"/>
    </contour>
    <contour>
      <point x="492" y="710" type="line"/>
      <point x="492" y="680" type="line"/>
      <point x="501" y="680" type="line" smooth="yes"/>
      <point x="539" y="680"/>
      <point x="588" y="677"/>
      <point x="588" y="670" type="curve" smooth="yes"/>
      <point x="588" y="10" type="line"/>
      <point x="628" y="10" type="line"/>
      <point x="628" y="644" type="line" smooth="yes"/>
      <point x="628" y="673"/>
      <point x="664" y="680"/>
      <point x="713" y="680" type="curve" smooth="yes"/>
      <point x="724" y="680" type="line"/>
      <point x="724" y="710" type="line"/>
    </contour>
    <contour>
      <point x="549" y="0" type="line"/>
      <point x="594" y="0" type="line" smooth="yes"/>
      <point x="666" y="0"/>
      <point x="695" y="-10"/>
      <point x="699" y="-50" type="curve" smooth="yes"/>
      <point x="708" y="-150" type="line"/>
      <point x="734" y="-150" type="line"/>
      <point x="734" y="30" type="line"/>
      <point x="549" y="30" type="line"/>
    </contour>
  </outline>
</glyph>
<glyph name="Hardcyr" format="2">
  <advance width="718"/>
  <unicode hex="042A"/>
  <outline>
    <contour>
      <point x="430" y="0" type="line" smooth="yes"/>
      <point x="600" y="0"/>
      <point x="685" y="86"/>
      <point x="685" y="210" type="curve" smooth="yes"/>
      <point x="685" y="338"/>
      <point x="600" y="415"/>
      <point x="435" y="415" type="curve" smooth="yes"/>
      <point x="276" y="415" type="line"/>
      <point x="276" y="385" type="line"/>
      <point x="435" y="385" type="line" smooth="yes"/>
      <point x="575" y="385"/>
      <point x="642" y="318"/>
      <point x="642" y="210" type="curve" smooth="yes"/>
      <point x="642" y="98"/>
      <point x="575" y="30"/>
      <point x="430" y="30" type="curve" smooth="yes"/>
      <point x="296" y="30" type="line"/>
      <point x="296" y="670" type="line"/>
      <point x="296" y="677"/>
      <point x="339" y="680"/>
      <point x="373" y="680" type="curve" smooth="yes"/>
      <point x="400" y="680" type="line"/>
      <point x="400" y="710" type="line"/>
      <point x="40" y="710" type="line"/>
      <point x="40" y="539" type="line"/>
      <point x="66" y="539" type="line"/>
      <point x="75" y="637" type="line" smooth="yes"/>
      <point x="78" y="673"/>
      <point x="114" y="680"/>
      <point x="200" y="680" type="curve" smooth="yes"/>
      <point x="256" y="680" type="line"/>
      <point x="256" y="66" type="line" smooth="yes"/>
      <point x="256" y="37"/>
      <point x="220" y="30"/>
      <point x="171" y="30" type="curve" smooth="yes"/>
      <point x="160" y="30" type="line"/>
      <point x="160" y="0" type="line"/>
    </contour>
  </outline>
</glyph>
<glyph name="Ylongcyr" format="2">
  <advance width="893"/>
  <unicode hex="042B"/>
  <outline>
    <contour>
      <point x="712" y="40" type="line" smooth="yes"/>
      <point x="712" y="33"/>
      <point x="663" y="30"/>
      <point x="625" y="30" type="curve" smooth="yes"/>
      <point x="616" y="30" type="line"/>
      <point x="616" y="0" type="line"/>
      <point x="848" y="0" type="line"/>
      <point x="848" y="30" type="line"/>
      <point x="837" y="30" type="line" smooth="yes"/>
      <point x="788" y="30"/>
      <point x="752" y="37"/>
      <point x="752" y="66" type="curve" smooth="yes"/>
      <point x="752" y="644" type="line" smooth="yes"/>
      <point x="752" y="673"/>
      <point x="788" y="680"/>
      <point x="837" y="680" type="curve" smooth="yes"/>
      <point x="848" y="680" type="line"/>
      <point x="848" y="710" type="line"/>
      <point x="616" y="710" type="line"/>
      <point x="616" y="680" type="line"/>
      <point x="625" y="680" type="line" smooth="yes"/>
      <point x="663" y="680"/>
      <point x="712" y="677"/>
      <point x="712" y="670" type="curve" smooth="yes"/>
    </contour>
    <component base="Softcyr"/>
  </outline>
</glyph>
<glyph name="Softcyr" format="2">
  <advance width="603"/>
  <unicode hex="042C"/>
  <outline>
    <contour>
      <point x="315" y="0" type="line" smooth="yes"/>
      <point x="485" y="0"/>
      <point x="570" y="86.4114832536"/>
      <point x="570" y="210" type="curve" smooth="yes"/>
      <point x="570" y="338.3737864078"/>
      <point x="485" y="415"/>
      <point x="320" y="415" type="curve" smooth="yes"/>
      <point x="161" y="415" type="line"/>
      <point x="161" y="385" type="line"/>
      <point x="320" y="385" type="line" smooth="yes"/>
      <point x="460" y="385"/>
      <point x="527" y="318.3806818182"/>
      <point x="527" y="210" type="curve" smooth="yes"/>
      <point x="527" y="98.3798882682"/>
      <point x="460" y="30"/>
      <point x="315" y="30" type="curve" smooth="yes"/>
      <point x="181" y="30" type="line"/>
      <point x="181" y="670" type="line"/>
      <point x="181" y="677"/>
      <point x="224" y="680"/>
      <point x="258" y="680" type="curve" smooth="yes"/>
      <point x="285" y="680" type="line"/>
      <point x="285" y="710" type="line"/>
      <point x="45" y="710" type="line"/>
      <point x="45" y="680" type="line"/>
      <point x="56" y="680" type="line" smooth="yes"/>
      <point x="105" y="680"/>
      <point x="141" y="673"/>
      <point x="141" y="644" type="curve" smooth="yes"/>
      <point x="141" y="66" type="line" smooth="yes"/>
      <point x="141" y="37"/>
      <point x="105" y="30"/>
      <point x="56" y="30" type="curve" smooth="yes"/>
      <point x="45" y="30" type="line"/>
      <point x="45" y="0" type="line"/>
    </contour>
  </outline>
</glyph>
<glyph name="becyr" format="2">
  <advance width="551"/>
  <unicode hex="0431"/>
  <outline>
    <contour>
      <point x="340" y="729" type="line" smooth="yes"/>
      <point x="137" y="712"/>
      <point x="50" y="585"/>
      <point x="50" y="310" type="curve" smooth="yes"/>
      <point x="50" y="93"/>
      <point x="148" y="-10"/>
      <point x="279" y="-10" type="curve" smooth="yes"/>
      <point x="410" y="-10"/>
      <point x="507" y="103"/>
      <point x="507" y="250" type="curve" smooth="yes"/>
      <point x="507" y="397"/>
      <point x="426" y="508"/>
      <point x="295" y="508" type="curve" smooth="yes"/>
      <point x="204" y="508"/>
      <point x="145" y="470"/>
      <point x="88" y="376" type="curve"/>
      <point x="88" y="330" type="line"/>
      <point x="150" y="433"/>
      <point x="203" y="478"/>
      <point x="289" y="478" type="curve" smooth="yes"/>
      <point x="399" y="478"/>
      <point x="464" y="382"/>
      <point x="464" y="250" type="curve" smooth="yes"/>
      <point x="464" y="117"/>
      <point x="390" y="20"/>
      <point x="279" y="20" type="curve" smooth="yes"/>
      <point x="168" y="20"/>
      <point x="95" y="125"/>
      <point x="95" y="280" type="curve" smooth="yes"/>
      <point x="95" y="307"/>
      <point x="95" y="326"/>
      <point x="95" y="365" type="curve"/>
      <point x="92" y="365" type="line"/>
      <point x="92" y="581.9907407407"/>
      <point x="155.7327629677" y="676.9856325381"/>
      <point x="340" y="692" type="curve" smooth="yes"/>
      <point x="475" y="703" type="line"/>
      <point x="475" y="740" type="line"/>
    </contour>
  </outline>
</glyph>
<glyph name="vecyr" format="2">
  <advance width="518"/>
  <unicode hex="0432"/>
  <outline>
    <contour>
      <point x="35" y="508" type="line"/>
      <point x="35" y="481" type="line"/>
      <point x="37" y="481" type="line" smooth="yes"/>
      <point x="85" y="481"/>
      <point x="119" y="474"/>
      <point x="119" y="445" type="curve" smooth="yes"/>
      <point x="119" y="63" type="line" smooth="yes"/>
      <point x="119" y="34"/>
      <point x="85" y="27"/>
      <point x="37" y="27" type="curve" smooth="yes"/>
      <point x="35" y="27" type="line"/>
      <point x="35" y="0" type="line"/>
      <point x="300" y="0" type="line" smooth="yes"/>
      <point x="406" y="0"/>
      <point x="468" y="45"/>
      <point x="468" y="141" type="curve" smooth="yes"/>
      <point x="468" y="206"/>
      <point x="427" y="265"/>
      <point x="329" y="276" type="curve"/>
      <point x="347" y="258" type="line"/>
      <point x="347" y="282" type="line"/>
      <point x="329" y="264" type="line"/>
      <point x="413" y="269"/>
      <point x="447" y="328"/>
      <point x="447" y="382" type="curve" smooth="yes"/>
      <point x="447" y="459"/>
      <point x="394" y="508"/>
      <point x="290" y="508" type="curve" smooth="yes"/>
    </contour>
    <contour>
      <point x="159" y="30" type="line"/>
      <point x="159" y="478" type="line"/>
      <point x="280" y="478" type="line" smooth="yes"/>
      <point x="367.9230769231" y="478"/>
      <point x="407" y="444"/>
      <point x="407" y="382" type="curve" smooth="yes"/>
      <point x="407" y="328"/>
      <point x="374" y="281"/>
      <point x="285" y="281" type="curve" smooth="yes"/>
      <point x="144" y="281" type="line"/>
      <point x="144" y="251" type="line"/>
      <point x="290" y="251" type="line" smooth="yes"/>
      <point x="390" y="251"/>
      <point x="428" y="208"/>
      <point x="428" y="141" type="curve" smooth="yes"/>
      <point x="428" y="70"/>
      <point x="387" y="30"/>
      <point x="290" y="30" type="curve" smooth="yes"/>
    </contour>
  </outline>
</glyph>
<glyph name="zhecyr" format="2">
  <advance width="876"/>
  <unicode hex="0436"/>
  <guideline x="241" y="553" angle="90" identifier="lmgRx0QBdK"/>
  <outline>
    <contour>
      <point x="848" y="0" type="line"/>
      <point x="848" y="30" type="line"/>
      <point x="846" y="30" type="line"/>
      <point x="810" y="30"/>
      <point x="780" y="37"/>
      <point x="747" y="68" type="curve" smooth="yes"/>
      <point x="535" y="270" type="line"/>
      <point x="535" y="254" type="line"/>
      <point x="703" y="429" type="line" smooth="yes"/>
      <point x="738" y="466"/>
      <point x="775" y="478"/>
      <point x="820" y="478" type="curve"/>
      <point x="822" y="478" type="line"/>
      <point x="822" y="508" type="line"/>
      <point x="605" y="508" type="line"/>
      <point x="605" y="478" type="line"/>
      <point x="609" y="478" type="line"/>
      <point x="640" y="478"/>
      <point x="688" y="475"/>
      <point x="688" y="460" type="curve"/>
      <point x="497" y="261" type="line"/>
      <point x="497" y="256" type="line"/>
      <point x="721" y="40" type="line"/>
      <point x="721" y="33"/>
      <point x="680" y="30"/>
      <point x="651" y="30" type="curve"/>
      <point x="645" y="30" type="line"/>
      <point x="645" y="0" type="line"/>
    </contour>
    <contour>
      <point x="28" y="0" type="line"/>
      <point x="229" y="0" type="line"/>
      <point x="229" y="30" type="line"/>
      <point x="223" y="30" type="line"/>
      <point x="194" y="30"/>
      <point x="153" y="33"/>
      <point x="153" y="40" type="curve"/>
      <point x="377" y="256" type="line"/>
      <point x="377" y="261" type="line"/>
      <point x="186" y="460" type="line"/>
      <point x="186" y="475"/>
      <point x="234" y="478"/>
      <point x="265" y="478" type="curve"/>
      <point x="269" y="478" type="line"/>
      <point x="269" y="508" type="line"/>
      <point x="51" y="508" type="line"/>
      <point x="51" y="478" type="line"/>
      <point x="53" y="478" type="line"/>
      <point x="98" y="478"/>
      <point x="135" y="466"/>
      <point x="170" y="429" type="curve" smooth="yes"/>
      <point x="338" y="254" type="line"/>
      <point x="341" y="270" type="line"/>
      <point x="129" y="68" type="line" smooth="yes"/>
      <point x="96" y="37"/>
      <point x="66" y="30"/>
      <point x="30" y="30" type="curve"/>
      <point x="28" y="30" type="line"/>
    </contour>
    <contour>
      <point x="342" y="481" type="line"/>
      <point x="345" y="481" type="line" smooth="yes"/>
      <point x="373" y="481"/>
      <point x="417" y="478"/>
      <point x="417" y="471" type="curve" smooth="yes"/>
      <point x="417" y="37" type="line" smooth="yes"/>
      <point x="417" y="30"/>
      <point x="373" y="27"/>
      <point x="345" y="27" type="curve" smooth="yes"/>
      <point x="342" y="27" type="line"/>
      <point x="342" y="0" type="line"/>
      <point x="532" y="0" type="line"/>
      <point x="532" y="27" type="line"/>
      <point x="529" y="27" type="line" smooth="yes"/>
      <point x="501" y="27"/>
      <point x="457" y="30"/>
      <point x="457" y="37" type="curve" smooth="yes"/>
      <point x="457" y="471" type="line" smooth="yes"/>
      <point x="457" y="478"/>
      <point x="501" y="481"/>
      <point x="529" y="481" type="curve" smooth="yes"/>
      <point x="532" y="481" type="line"/>
      <point x="532" y="508" type="line"/>
      <point x="342" y="508" type="line"/>
    </contour>
  </outline>
</glyph>
<glyph name="icyr" format="2">
  <advance width="607"/>
  <unicode hex="0438"/>
  <outline>
    <contour>
      <point x="119" y="63" type="line" smooth="yes"/>
      <point x="119" y="34"/>
      <point x="85" y="27"/>
      <point x="37" y="27" type="curve" smooth="yes"/>
      <point x="35" y="27" type="line"/>
      <point x="35" y="0" type="line"/>
      <point x="234" y="0" type="line"/>
      <point x="234" y="27" type="line"/>
      <point x="231" y="27" type="line" smooth="yes"/>
      <point x="203" y="27"/>
      <point x="159" y="30"/>
      <point x="159" y="37" type="curve" smooth="yes"/>
      <point x="159" y="471" type="line" smooth="yes"/>
      <point x="159" y="478"/>
      <point x="203" y="481"/>
      <point x="231" y="481" type="curve" smooth="yes"/>
      <point x="234" y="481" type="line"/>
      <point x="234" y="508" type="line"/>
      <point x="35" y="508" type="line"/>
      <point x="35" y="481" type="line"/>
      <point x="37" y="481" type="line" smooth="yes"/>
      <point x="85" y="481"/>
      <point x="119" y="474"/>
      <point x="119" y="445" type="curve" smooth="yes"/>
    </contour>
    <contour>
      <point x="448" y="37" type="line" smooth="yes"/>
      <point x="448" y="30"/>
      <point x="403" y="27"/>
      <point x="375" y="27" type="curve" smooth="yes"/>
      <point x="373" y="27" type="line"/>
      <point x="373" y="0" type="line"/>
      <point x="572" y="0" type="line"/>
      <point x="572" y="27" type="line"/>
      <point x="570" y="27" type="line" smooth="yes"/>
      <point x="522" y="27"/>
      <point x="488" y="34"/>
      <point x="488" y="63" type="curve" smooth="yes"/>
      <point x="488" y="445" type="line" smooth="yes"/>
      <point x="488" y="474"/>
      <point x="522" y="481"/>
      <point x="570" y="481" type="curve" smooth="yes"/>
      <point x="572" y="481" type="line"/>
      <point x="572" y="508" type="line"/>
      <point x="373" y="508" type="line"/>
      <point x="373" y="481" type="line"/>
      <point x="375" y="481" type="line" smooth="yes"/>
      <point x="403" y="481"/>
      <point x="448" y="478"/>
      <point x="448" y="471" type="curve" smooth="yes"/>
    </contour>
    <contour>
      <point x="144" y="73" type="line"/>
      <point x="482" y="414" type="line"/>
      <point x="463" y="436" type="line"/>
      <point x="125" y="95" type="line"/>
    </contour>
  </outline>
</glyph>
<glyph name="emcyr" format="2">
  <advance width="740"/>
  <unicode hex="043C"/>
  <outline>
    <contour>
      <point x="182" y="508" type="line"/>
      <point x="35" y="508" type="line"/>
      <point x="35" y="481" type="line"/>
      <point x="37" y="481" type="line" smooth="yes"/>
      <point x="85" y="481"/>
      <point x="119" y="474"/>
      <point x="119" y="445" type="curve" smooth="yes"/>
      <point x="119" y="63" type="line" smooth="yes"/>
      <point x="119" y="34"/>
      <point x="85" y="27"/>
      <point x="37" y="27" type="curve" smooth="yes"/>
      <point x="35" y="27" type="line"/>
      <point x="35" y="0" type="line"/>
      <point x="229" y="0" type="line"/>
      <point x="229" y="27" type="line"/>
      <point x="226" y="27" type="line" smooth="yes"/>
      <point x="198" y="27"/>
      <point x="154" y="30"/>
      <point x="154" y="37" type="curve" smooth="yes"/>
      <point x="154" y="502" type="line"/>
      <point x="146" y="502" type="line"/>
      <point x="351" y="-2" type="line"/>
      <point x="384" y="-2" type="line"/>
      <point x="589" y="502" type="line"/>
      <point x="581" y="502" type="line"/>
      <point x="581" y="37" type="line" smooth="yes"/>
      <point x="581" y="30"/>
      <point x="536" y="27"/>
      <point x="508" y="27" type="curve" smooth="yes"/>
      <point x="506" y="27" type="line"/>
      <point x="506" y="0" type="line"/>
      <point x="705" y="0" type="line"/>
      <point x="705" y="27" type="line"/>
      <point x="703" y="27" type="line" smooth="yes"/>
      <point x="655" y="27"/>
      <point x="621" y="34"/>
      <point x="621" y="63" type="curve" smooth="yes"/>
      <point x="621" y="445" type="line" smooth="yes"/>
      <point x="621" y="474"/>
      <point x="655" y="481"/>
      <point x="703" y="481" type="curve" smooth="yes"/>
      <point x="705" y="481" type="line"/>
      <point x="705" y="508" type="line"/>
      <point x="556" y="508" type="line"/>
      <point x="358" y="16" type="line"/>
      <point x="382" y="16" type="line"/>
    </contour>
  </outline>
</glyph>
<glyph name="pecyr" format="2">
  <advance width="587"/>
  <unicode hex="043F"/>
  <outline>
    <contour>
      <point x="119" y="63" type="line" smooth="yes"/>
      <point x="119" y="34"/>
      <point x="85" y="27"/>
      <point x="37" y="27" type="curve" smooth="yes"/>
      <point x="35" y="27" type="line"/>
      <point x="35" y="0" type="line"/>
      <point x="234" y="0" type="line"/>
      <point x="234" y="27" type="line"/>
      <point x="231" y="27" type="line" smooth="yes"/>
      <point x="203" y="27"/>
      <point x="159" y="30"/>
      <point x="159" y="37" type="curve" smooth="yes"/>
      <point x="159" y="508" type="line"/>
      <point x="35" y="508" type="line"/>
      <point x="35" y="481" type="line"/>
      <point x="37" y="481" type="line" smooth="yes"/>
      <point x="85" y="481"/>
      <point x="119" y="474"/>
      <point x="119" y="445" type="curve" smooth="yes"/>
    </contour>
    <contour>
      <point x="428" y="37" type="line" smooth="yes"/>
      <point x="428" y="30"/>
      <point x="383" y="27"/>
      <point x="355" y="27" type="curve" smooth="yes"/>
      <point x="353" y="27" type="line"/>
      <point x="353" y="0" type="line"/>
      <point x="552" y="0" type="line"/>
      <point x="552" y="27" type="line"/>
      <point x="550" y="27" type="line" smooth="yes"/>
      <point x="502" y="27"/>
      <point x="468" y="34"/>
      <point x="468" y="63" type="curve" smooth="yes"/>
      <point x="468" y="445" type="line" smooth="yes"/>
      <point x="468" y="474"/>
      <point x="502" y="481"/>
      <point x="550" y="481" type="curve" smooth="yes"/>
      <point x="552" y="481" type="line"/>
      <point x="552" y="508" type="line"/>
      <point x="428" y="508" type="line"/>
    </contour>
    <contour>
      <point x="134" y="478" type="line"/>
      <point x="453" y="478" type="line"/>
      <point x="453" y="508" type="line"/>
      <point x="134" y="508" type="line"/>
    </contour>
  </outline>
</glyph>
<glyph name="tecyr" format="2">
  <advance width="522"/>
  <unicode hex="0442"/>
  <outline>
    <contour>
      <point x="261" y="478" type="line"/>
      <point x="340" y="478" type="line" smooth="yes"/>
      <point x="418" y="478"/>
      <point x="449" y="470"/>
      <point x="453" y="429" type="curve" smooth="yes"/>
      <point x="461" y="350" type="line"/>
      <point x="487" y="350" type="line"/>
      <point x="487" y="508" type="line"/>
      <point x="261" y="508" type="line"/>
    </contour>
    <contour>
      <point x="261" y="478" type="line"/>
      <point x="261" y="508" type="line"/>
      <point x="35" y="508" type="line"/>
      <point x="35" y="350" type="line"/>
      <point x="61" y="350" type="line"/>
      <point x="69" y="429" type="line" smooth="yes"/>
      <point x="73" y="470"/>
      <point x="104" y="478"/>
      <point x="182" y="478" type="curve" smooth="yes"/>
    </contour>
    <contour>
      <point x="281" y="63" type="curve" smooth="yes"/>
      <point x="281" y="508" type="line"/>
      <point x="241" y="508" type="line"/>
      <point x="241" y="63" type="line" smooth="yes"/>
      <point x="241" y="34"/>
      <point x="207" y="27"/>
      <point x="159" y="27" type="curve" smooth="yes"/>
      <point x="147" y="27" type="line"/>
      <point x="147" y="0" type="line"/>
      <point x="375" y="0" type="line"/>
      <point x="375" y="27" type="line"/>
      <point x="363" y="27" type="line" smooth="yes"/>
      <point x="315" y="27"/>
      <point x="281" y="34"/>
    </contour>
  </outline>
</glyph>
<glyph name="ylongcyr" format="2">
  <advance width="741"/>
  <unicode hex="044B"/>
  <outline>
    <contour>
      <point x="582" y="37" type="line" smooth="yes"/>
      <point x="582" y="30"/>
      <point x="537" y="27"/>
      <point x="509" y="27" type="curve" smooth="yes"/>
      <point x="507" y="27" type="line"/>
      <point x="507" y="0" type="line"/>
      <point x="706" y="0" type="line"/>
      <point x="706" y="27" type="line"/>
      <point x="704" y="27" type="line" smooth="yes"/>
      <point x="656" y="27"/>
      <point x="622" y="34"/>
      <point x="622" y="63" type="curve" smooth="yes"/>
      <point x="622" y="445" type="line" smooth="yes"/>
      <point x="622" y="474"/>
      <point x="656" y="481"/>
      <point x="704" y="481" type="curve" smooth="yes"/>
      <point x="706" y="481" type="line"/>
      <point x="706" y="508" type="line"/>
      <point x="507" y="508" type="line"/>
      <point x="507" y="481" type="line"/>
      <point x="509" y="481" type="line" smooth="yes"/>
      <point x="537" y="481"/>
      <point x="582" y="478"/>
      <point x="582" y="471" type="curve" smooth="yes"/>
    </contour>
    <component base="softcyr"/>
  </outline>
</glyph>
<glyph name="yacyr" format="2">
  <advance width="528"/>
  <unicode hex="044F"/>
  <outline>
    <contour>
      <point x="369" y="478" type="line"/>
      <point x="369" y="37" type="line" smooth="yes"/>
      <point x="369" y="30"/>
      <point x="325" y="27"/>
      <point x="297" y="27" type="curve" smooth="yes"/>
      <point x="294" y="27" type="line"/>
      <point x="294" y="0" type="line"/>
      <point x="493" y="0" type="line"/>
      <point x="493" y="27" type="line"/>
      <point x="491" y="27" type="line" smooth="yes"/>
      <point x="443" y="27"/>
      <point x="409" y="34"/>
      <point x="409" y="63" type="curve" smooth="yes"/>
      <point x="409" y="445" type="line" smooth="yes"/>
      <point x="409" y="474"/>
      <point x="443" y="481"/>
      <point x="491" y="481" type="curve" smooth="yes"/>
      <point x="493" y="481" type="line"/>
      <point x="493" y="508" type="line"/>
      <point x="238" y="508" type="line" smooth="yes"/>
      <point x="122" y="508"/>
      <point x="60" y="445"/>
      <point x="60" y="360" type="curve" smooth="yes"/>
      <point x="60" y="275"/>
      <point x="113" y="227"/>
      <point x="206" y="216" type="curve"/>
      <point x="215" y="213" type="line"/>
      <point x="390" y="213" type="line"/>
      <point x="390" y="243" type="line"/>
      <point x="236" y="243" type="line" smooth="yes"/>
      <point x="148" y="243"/>
      <point x="103" y="290"/>
      <point x="103" y="360" type="curve" smooth="yes"/>
      <point x="103" y="430"/>
      <point x="148" y="478"/>
      <point x="241" y="478" type="curve" smooth="yes"/>
    </contour>
    <contour>
      <point x="194" y="226" type="line"/>
      <point x="96" y="68" type="line" smooth="yes"/>
      <point x="75" y="34"/>
      <point x="58" y="30"/>
      <point x="8" y="30" type="curve" smooth="yes"/>
      <point x="5" y="30" type="line"/>
      <point x="5" y="0" type="line"/>
      <point x="99" y="0" type="line"/>
      <point x="233" y="219" type="line"/>
    </contour>
  </outline>
</glyph>
<glyph name="djecyr" format="2">
  <advance width="585"/>
  <unicode hex="0452"/>
  <outline>
    <contour>
      <point x="119" y="735" type="line"/>
      <point x="119" y="63" type="line" smooth="yes"/>
      <point x="119" y="34"/>
      <point x="85" y="27"/>
      <point x="37" y="27" type="curve" smooth="yes"/>
      <point x="35" y="27" type="line"/>
      <point x="35" y="0" type="line"/>
      <point x="234" y="0" type="line"/>
      <point x="234" y="27" type="line"/>
      <point x="231" y="27" type="line" smooth="yes"/>
      <point x="203" y="27"/>
      <point x="159" y="30"/>
      <point x="159" y="37" type="curve"/>
      <point x="159" y="735" type="line"/>
    </contour>
    <contour>
      <point x="378" y="632" type="line"/>
      <point x="21" y="632" type="line"/>
      <point x="21" y="602" type="line"/>
      <point x="378" y="602" type="line"/>
    </contour>
    <contour>
      <point x="448" y="-75" type="line" smooth="yes"/>
      <point x="448" y="-172"/>
      <point x="408" y="-204"/>
      <point x="344" y="-204" type="curve" smooth="yes"/>
      <point x="307" y="-204"/>
      <point x="280" y="-195"/>
      <point x="257" y="-186" type="curve"/>
      <point x="257" y="-220" type="line"/>
      <point x="276" y="-229"/>
      <point x="303" y="-236"/>
      <point x="344" y="-236" type="curve" smooth="yes"/>
      <point x="414" y="-236"/>
      <point x="488" y="-204"/>
      <point x="488" y="-75" type="curve" smooth="yes"/>
      <point x="488" y="357" type="line" smooth="yes"/>
      <point x="488" y="468"/>
      <point x="433" y="518"/>
      <point x="340" y="518" type="curve" smooth="yes"/>
      <point x="251" y="518"/>
      <point x="189" y="468"/>
      <point x="126" y="366" type="curve"/>
      <point x="136" y="335" type="line"/>
      <point x="190" y="428"/>
      <point x="251" y="485"/>
      <point x="333" y="485" type="curve" smooth="yes"/>
      <point x="418" y="485"/>
      <point x="448" y="442"/>
      <point x="448" y="346" type="curve" smooth="yes"/>
    </contour>
  </outline>
</glyph>
<glyph name="ljecyr" format="2">
  <advance width="749"/>
  <unicode hex="0459"/>
  <outline>
    <contour>
      <point x="137" y="244" type="line" smooth="yes"/>
      <point x="130.0608987066" y="89.026737781"/>
      <point x="103.6274509804" y="30"/>
      <point x="45" y="30" type="curve" smooth="yes"/>
      <point x="25.4444444444" y="30"/>
      <point x="11.4954104584" y="35.3604211011"/>
      <point x="5" y="40" type="curve"/>
      <point x="5" y="0" type="line"/>
      <point x="13.3205029434" y="-5.5470019623"/>
      <point x="28.1111111111" y="-10"/>
      <point x="45" y="-10" type="curve" smooth="yes"/>
      <point x="124.7226277372" y="-10"/>
      <point x="163.8074530219" y="57.0331174881"/>
      <point x="172" y="240" type="curve" smooth="yes"/>
      <point x="184" y="508" type="line"/>
      <point x="62" y="508" type="line"/>
      <point x="62" y="481" type="line"/>
      <point x="64" y="481" type="line" smooth="yes"/>
      <point x="112" y="481"/>
      <point x="147" y="474"/>
      <point x="146" y="445" type="curve" smooth="yes"/>
    </contour>
    <contour>
      <point x="146" y="478" type="line"/>
      <point x="416" y="478" type="line"/>
      <point x="416" y="508" type="line"/>
      <point x="146" y="508" type="line"/>
    </contour>
    <contour>
      <point x="391" y="37" type="line" smooth="yes"/>
      <point x="391" y="30"/>
      <point x="346" y="27"/>
      <point x="318" y="27" type="curve" smooth="yes"/>
      <point x="316" y="27" type="line"/>
      <point x="316" y="0" type="line"/>
      <point x="556" y="0" type="line" smooth="yes"/>
      <point x="671" y="0"/>
      <point x="729" y="64"/>
      <point x="729" y="155" type="curve" smooth="yes"/>
      <point x="729" y="247"/>
      <point x="671" y="305"/>
      <point x="556" y="305" type="curve" smooth="yes"/>
      <point x="410" y="305" type="line"/>
      <point x="410" y="275" type="line"/>
      <point x="553" y="275" type="line" smooth="yes"/>
      <point x="641" y="275"/>
      <point x="686" y="230"/>
      <point x="686" y="155" type="curve" smooth="yes"/>
      <point x="686" y="79"/>
      <point x="644" y="30"/>
      <point x="553" y="30" type="curve" smooth="yes"/>
      <point x="431" y="30" type="line"/>
      <point x="431" y="445" type="line" smooth="yes"/>
      <point x="431" y="474"/>
      <point x="465" y="481"/>
      <point x="513" y="481" type="curve" smooth="yes"/>
      <point x="515" y="481" type="line"/>
      <point x="515" y="508" type="line"/>
      <point x="391" y="508" type="line"/>
    </contour>
  </outline>
</glyph>
<glyph name="gestrokecyr" format="2">
  <advance width="462"/>
  <unicode hex="0493"/>
  <outline>
    <contour>
      <point x="35" y="244" type="line"/>
      <point x="301" y="244" type="line"/>
      <point x="301" y="274" type="line"/>
      <point x="35" y="274" type="line"/>
    </contour>
    <contour>
      <point x="119" y="63" type="line" smooth="yes"/>
      <point x="119" y="34"/>
      <point x="85" y="27"/>
      <point x="37" y="27" type="curve" smooth="yes"/>
      <point x="35" y="27" type="line"/>
      <point x="35" y="0" type="line"/>
      <point x="258" y="0" type="line"/>
      <point x="258" y="27" type="line"/>
      <point x="241" y="27" type="line" smooth="yes"/>
      <point x="193" y="27"/>
      <point x="159" y="34"/>
      <point x="159" y="63" type="curve" smooth="yes"/>
      <point x="159" y="508" type="line"/>
      <point x="35" y="508" type="line"/>
      <point x="35" y="481" type="line"/>
      <point x="37" y="481" type="line" smooth="yes"/>
      <point x="85" y="481"/>
      <point x="119" y="474"/>
      <point x="119" y="445" type="curve" smooth="yes"/>
    </contour>
    <contour>
      <point x="137" y="478" type="line"/>
      <point x="280" y="478" type="line" smooth="yes"/>
      <point x="358" y="478"/>
      <point x="389" y="470"/>
      <point x="393" y="429" type="curve" smooth="yes"/>
      <point x="401" y="350" type="line"/>
      <point x="427" y="350" type="line"/>
      <point x="427" y="508" type="line"/>
      <point x="137" y="508" type="line"/>
    </contour>
  </outline>
</glyph>
<glyph name="katailcyr" format="2">
  <advance width="584"/>
  <unicode hex="049B"/>
  <guideline x="241" y="553" angle="90" identifier="lmgRx0QBdK"/>
  <outline>
    <contour>
      <point x="120" y="63" type="line" smooth="yes"/>
      <point x="120" y="34"/>
      <point x="86" y="27"/>
      <point x="38" y="27" type="curve"/>
      <point x="36" y="27" type="line"/>
      <point x="36" y="0" type="line"/>
      <point x="235" y="0" type="line"/>
      <point x="235" y="27" type="line"/>
      <point x="232" y="27" type="line" smooth="yes"/>
      <point x="205" y="27"/>
      <point x="160" y="30"/>
      <point x="160" y="37" type="curve" smooth="yes"/>
      <point x="160" y="471" type="line" smooth="yes"/>
      <point x="160" y="478"/>
      <point x="205" y="481"/>
      <point x="232" y="481" type="curve" smooth="yes"/>
      <point x="235" y="481" type="line"/>
      <point x="235" y="508" type="line"/>
      <point x="36" y="508" type="line"/>
      <point x="36" y="481" type="line"/>
      <point x="38" y="481" type="line"/>
      <point x="86" y="481"/>
      <point x="120" y="474"/>
      <point x="120" y="445" type="curve" smooth="yes"/>
    </contour>
    <contour>
      <point x="498" y="0" type="line"/>
      <point x="498" y="30" type="line"/>
      <point x="238" y="271" type="line"/>
      <point x="239" y="254" type="line"/>
      <point x="416" y="429" type="line" smooth="yes"/>
      <point x="451" y="464"/>
      <point x="485" y="478"/>
      <point x="528" y="478" type="curve"/>
      <point x="530" y="478" type="line"/>
      <point x="530" y="508" type="line"/>
      <point x="313" y="508" type="line"/>
      <point x="313" y="478" type="line"/>
      <point x="317" y="478" type="line"/>
      <point x="350" y="478"/>
      <point x="401" y="475"/>
      <point x="401" y="460" type="curve"/>
      <point x="200" y="261" type="line"/>
      <point x="200" y="256" type="line"/>
      <point x="434" y="40" type="line"/>
      <point x="434" y="33"/>
      <point x="390" y="30"/>
      <point x="359" y="30" type="curve"/>
      <point x="353" y="30" type="line"/>
      <point x="353" y="0" type="line"/>
    </contour>
    <contour>
      <point x="432" y="0" type="line"/>
      <point x="437" y="0" type="line" smooth="yes"/>
      <point x="501" y="0"/>
      <point x="527" y="-10"/>
      <point x="531" y="-50" type="curve" smooth="yes"/>
      <point x="540" y="-140" type="line"/>
      <point x="566" y="-140" type="line"/>
      <point x="566" y="30" type="line"/>
      <point x="432" y="30" type="line"/>
    </contour>
  </outline>
</glyph>
<glyph name="Kaverticalstrokecyr" format="2">
  <advance width="759"/>
  <unicode hex="049C"/>
  <guideline x="480" y="796" angle="90" identifier="LxfLwWU0sJ"/>
  <guideline x="480" y="796" angle="90" identifier="NE2Rxb76O6"/>
  <outline>
    <contour>
      <point x="297" y="171" type="line"/>
      <point x="329" y="171" type="line"/>
      <point x="329" y="544" type="line"/>
      <point x="297" y="544" type="line"/>
    </contour>
    <contour>
      <point x="45" y="0" type="line"/>
      <point x="277" y="0" type="line"/>
      <point x="277" y="30" type="line"/>
      <point x="268" y="30" type="line" smooth="yes"/>
      <point x="230" y="30"/>
      <point x="181" y="33"/>
      <point x="181" y="40" type="curve" smooth="yes"/>
      <point x="181" y="670" type="line" smooth="yes"/>
      <point x="181" y="677"/>
      <point x="230" y="680"/>
      <point x="268" y="680" type="curve" smooth="yes"/>
      <point x="277" y="680" type="line"/>
      <point x="277" y="710" type="line"/>
      <point x="45" y="710" type="line"/>
      <point x="45" y="680" type="line"/>
      <point x="56" y="680" type="line" smooth="yes"/>
      <point x="105" y="680"/>
      <point x="141" y="673"/>
      <point x="141" y="644" type="curve" smooth="yes"/>
      <point x="141" y="66" type="line" smooth="yes"/>
      <point x="141" y="37"/>
      <point x="105" y="30"/>
      <point x="56" y="30" type="curve" smooth="yes"/>
      <point x="45" y="30" type="line"/>
    </contour>
    <contour>
      <point x="522" y="0" type="line"/>
      <point x="744" y="0" type="line"/>
      <point x="744" y="30" type="line"/>
      <point x="733" y="30" type="line" smooth="yes"/>
      <point x="688" y="30"/>
      <point x="668" y="31"/>
      <point x="644" y="63" type="curve" smooth="yes"/>
      <point x="402" y="382" type="line"/>
      <point x="404" y="358" type="line"/>
      <point x="635" y="651" type="line" smooth="yes"/>
      <point x="655" y="676"/>
      <point x="678" y="680"/>
      <point x="714" y="680" type="curve" smooth="yes"/>
      <point x="730" y="680" type="line"/>
      <point x="730" y="710" type="line"/>
      <point x="520" y="710" type="line"/>
      <point x="520" y="680" type="line"/>
      <point x="529" y="680" type="line" smooth="yes"/>
      <point x="566" y="680"/>
      <point x="607" y="677"/>
      <point x="609" y="670" type="curve"/>
      <point x="371" y="367" type="line"/>
      <point x="371" y="362" type="line"/>
      <point x="615" y="40" type="line"/>
      <point x="615" y="33"/>
      <point x="568" y="30"/>
      <point x="531" y="30" type="curve" smooth="yes"/>
      <point x="522" y="30" type="line"/>
    </contour>
  </outline>
</glyph>
<glyph name="kaverticalstrokecyr" format="2">
  <advance width="655"/>
  <unicode hex="049D"/>
  <guideline x="241" y="553" angle="90" identifier="lmgRx0QBdK"/>
  <guideline x="241" y="553" angle="90" identifier="d9bip9lgkk"/>
  <outline>
    <contour>
      <point x="119" y="63" type="line" smooth="yes"/>
      <point x="119" y="34"/>
      <point x="85" y="27"/>
      <point x="37" y="27" type="curve"/>
      <point x="35" y="27" type="line"/>
      <point x="35" y="0" type="line"/>
      <point x="234" y="0" type="line"/>
      <point x="234" y="27" type="line"/>
      <point x="231" y="27" type="line" smooth="yes"/>
      <point x="204" y="27"/>
      <point x="159" y="30"/>
      <point x="159" y="37" type="curve" smooth="yes"/>
      <point x="159" y="471" type="line" smooth="yes"/>
      <point x="159" y="478"/>
      <point x="204" y="481"/>
      <point x="231" y="481" type="curve" smooth="yes"/>
      <point x="234" y="481" type="line"/>
      <point x="234" y="508" type="line"/>
      <point x="35" y="508" type="line"/>
      <point x="35" y="481" type="line"/>
      <point x="37" y="481" type="line"/>
      <point x="85" y="481"/>
      <point x="119" y="474"/>
      <point x="119" y="445" type="curve" smooth="yes"/>
    </contour>
    <contour>
      <point x="627" y="0" type="line"/>
      <point x="627" y="30" type="line"/>
      <point x="625" y="30" type="line"/>
      <point x="591" y="30"/>
      <point x="561" y="36"/>
      <point x="533" y="68" type="curve" smooth="yes"/>
      <point x="359" y="271" type="line"/>
      <point x="359" y="259" type="line"/>
      <point x="488" y="428" type="line" smooth="yes"/>
      <point x="518" y="468"/>
      <point x="556" y="478"/>
      <point x="599" y="478" type="curve"/>
      <point x="601" y="478" type="line"/>
      <point x="601" y="508" type="line"/>
      <point x="384" y="508" type="line"/>
      <point x="384" y="478" type="line"/>
      <point x="388" y="478" type="line"/>
      <point x="421" y="478"/>
      <point x="472" y="475"/>
      <point x="472" y="460" type="curve"/>
      <point x="321" y="261" type="line"/>
      <point x="321" y="256" type="line"/>
      <point x="505" y="40" type="line"/>
      <point x="505" y="33"/>
      <point x="461" y="30"/>
      <point x="430" y="30" type="curve"/>
      <point x="424" y="30" type="line"/>
      <point x="424" y="0" type="line"/>
    </contour>
    <contour>
      <point x="249" y="108" type="line"/>
      <point x="281" y="108" type="line"/>
      <point x="281" y="396" type="line"/>
      <point x="249" y="396" type="line"/>
    </contour>
  </outline>
</glyph>
<glyph name="Kabashkcyr" format="2">
  <advance width="806"/>
  <unicode hex="04A0"/>
  <guideline x="480" y="796" angle="90" identifier="LxfLwWU0sJ"/>
  <outline>
    <contour>
      <point x="569" y="0" type="line"/>
      <point x="791" y="0" type="line"/>
      <point x="791" y="30" type="line"/>
      <point x="780" y="30" type="line" smooth="yes"/>
      <point x="735" y="30"/>
      <point x="718" y="34"/>
      <point x="691" y="63" type="curve" smooth="yes"/>
      <point x="389" y="382" type="line"/>
      <point x="393" y="358" type="line"/>
      <point x="682" y="651" type="line" smooth="yes"/>
      <point x="704" y="674"/>
      <point x="725" y="680"/>
      <point x="761" y="680" type="curve" smooth="yes"/>
      <point x="777" y="680" type="line"/>
      <point x="777" y="710" type="line"/>
      <point x="567" y="710" type="line"/>
      <point x="567" y="680" type="line"/>
      <point x="576" y="680" type="line" smooth="yes"/>
      <point x="613" y="680"/>
      <point x="654" y="677"/>
      <point x="656" y="670" type="curve"/>
      <point x="358" y="367" type="line"/>
      <point x="358" y="362" type="line"/>
      <point x="662" y="40" type="line"/>
      <point x="662" y="33"/>
      <point x="615" y="30"/>
      <point x="578" y="30" type="curve" smooth="yes"/>
      <point x="569" y="30" type="line"/>
    </contour>
    <contour>
      <point x="180" y="0" type="line"/>
      <point x="412" y="0" type="line"/>
      <point x="412" y="30" type="line"/>
      <point x="403" y="30" type="line" smooth="yes"/>
      <point x="365" y="30"/>
      <point x="316" y="33"/>
      <point x="316" y="40" type="curve" smooth="yes"/>
      <point x="316" y="670" type="line" smooth="yes"/>
      <point x="316" y="677"/>
      <point x="365" y="680"/>
      <point x="403" y="680" type="curve" smooth="yes"/>
      <point x="412" y="680" type="line"/>
      <point x="412" y="710" type="line"/>
      <point x="40" y="710" type="line"/>
      <point x="40" y="539" type="line"/>
      <point x="66" y="539" type="line"/>
      <point x="75" y="637" type="line" smooth="yes"/>
      <point x="78" y="673"/>
      <point x="114" y="680"/>
      <point x="200" y="680" type="curve" smooth="yes"/>
      <point x="276" y="680" type="line"/>
      <point x="276" y="66" type="line" smooth="yes"/>
      <point x="276" y="37"/>
      <point x="240" y="30"/>
      <point x="191" y="30" type="curve" smooth="yes"/>
      <point x="180" y="30" type="line"/>
    </contour>
  </outline>
</glyph>
<glyph name="kabashkcyr" format="2">
  <advance width="695"/>
  <unicode hex="04A1"/>
  <guideline x="241" y="553" angle="90" identifier="lmgRx0QBdK"/>
  <outline>
    <contour>
      <point x="231" y="63" type="line" smooth="yes"/>
      <point x="231" y="34"/>
      <point x="197" y="27"/>
      <point x="149" y="27" type="curve"/>
      <point x="147" y="27" type="line"/>
      <point x="147" y="0" type="line"/>
      <point x="346" y="0" type="line"/>
      <point x="346" y="27" type="line"/>
      <point x="343" y="27" type="line" smooth="yes"/>
      <point x="316" y="27"/>
      <point x="271" y="30"/>
      <point x="271" y="37" type="curve" smooth="yes"/>
      <point x="271" y="471" type="line" smooth="yes"/>
      <point x="271" y="478"/>
      <point x="316" y="481"/>
      <point x="343" y="481" type="curve" smooth="yes"/>
      <point x="346" y="481" type="line"/>
      <point x="346" y="508" type="line"/>
      <point x="231" y="508" type="line"/>
    </contour>
    <contour>
      <point x="667" y="0" type="line"/>
      <point x="667" y="30" type="line"/>
      <point x="665" y="30" type="line"/>
      <point x="631" y="30"/>
      <point x="603" y="38"/>
      <point x="571" y="68" type="curve" smooth="yes"/>
      <point x="349" y="271" type="line"/>
      <point x="350" y="254" type="line"/>
      <point x="527" y="429" type="line" smooth="yes"/>
      <point x="562" y="464"/>
      <point x="596" y="478"/>
      <point x="639" y="478" type="curve"/>
      <point x="641" y="478" type="line"/>
      <point x="641" y="508" type="line"/>
      <point x="424" y="508" type="line"/>
      <point x="424" y="478" type="line"/>
      <point x="428" y="478" type="line"/>
      <point x="461" y="478"/>
      <point x="512" y="475"/>
      <point x="512" y="460" type="curve"/>
      <point x="311" y="261" type="line"/>
      <point x="311" y="256" type="line"/>
      <point x="545" y="40" type="line"/>
      <point x="545" y="33"/>
      <point x="501" y="30"/>
      <point x="470" y="30" type="curve"/>
      <point x="464" y="30" type="line"/>
      <point x="464" y="0" type="line"/>
    </contour>
    <contour>
      <point x="261" y="478" type="line"/>
      <point x="261" y="508" type="line"/>
      <point x="35" y="508" type="line"/>
      <point x="35" y="350" type="line"/>
      <point x="61" y="350" type="line"/>
      <point x="69" y="429" type="line" smooth="yes"/>
      <point x="73" y="470"/>
      <point x="104" y="478"/>
      <point x="182" y="478" type="curve" smooth="yes"/>
    </contour>
  </outline>
</glyph>
<glyph name="Entailcyr" format="2">
  <advance width="779"/>
  <unicode hex="04A2"/>
  <outline>
    <contour>
      <point x="172" y="381" type="line"/>
      <point x="172" y="351" type="line"/>
      <point x="627" y="351" type="line"/>
      <point x="627" y="381" type="line"/>
    </contour>
    <contour>
      <point x="45" y="0" type="line"/>
      <point x="277" y="0" type="line"/>
      <point x="277" y="30" type="line"/>
      <point x="268" y="30" type="line" smooth="yes"/>
      <point x="230" y="30"/>
      <point x="181" y="33"/>
      <point x="181" y="40" type="curve" smooth="yes"/>
      <point x="181" y="670" type="line" smooth="yes"/>
      <point x="181" y="677"/>
      <point x="230" y="680"/>
      <point x="268" y="680" type="curve" smooth="yes"/>
      <point x="277" y="680" type="line"/>
      <point x="277" y="710" type="line"/>
      <point x="45" y="710" type="line"/>
      <point x="45" y="680" type="line"/>
      <point x="56" y="680" type="line" smooth="yes"/>
      <point x="105" y="680"/>
      <point x="141" y="673"/>
      <point x="141" y="644" type="curve" smooth="yes"/>
      <point x="141" y="66" type="line" smooth="yes"/>
      <point x="141" y="37"/>
      <point x="105" y="30"/>
      <point x="56" y="30" type="curve" smooth="yes"/>
      <point x="45" y="30" type="line"/>
    </contour>
    <contour>
      <point x="502" y="0" type="line"/>
      <point x="638" y="0" type="line"/>
      <point x="638" y="644" type="line" smooth="yes"/>
      <point x="638" y="673"/>
      <point x="674" y="680"/>
      <point x="723" y="680" type="curve" smooth="yes"/>
      <point x="734" y="680" type="line"/>
      <point x="734" y="710" type="line"/>
      <point x="502" y="710" type="line"/>
      <point x="502" y="680" type="line"/>
      <point x="511" y="680" type="line" smooth="yes"/>
      <point x="549" y="680"/>
      <point x="598" y="677"/>
      <point x="598" y="670" type="curve" smooth="yes"/>
      <point x="598" y="40" type="line" smooth="yes"/>
      <point x="598" y="33"/>
      <point x="549" y="30"/>
      <point x="511" y="30" type="curve" smooth="yes"/>
      <point x="502" y="30" type="line"/>
    </contour>
    <contour>
      <point x="604" y="0" type="line" smooth="yes"/>
      <point x="676" y="0"/>
      <point x="705" y="-10"/>
      <point x="709" y="-50" type="curve" smooth="yes"/>
      <point x="718" y="-150" type="line"/>
      <point x="744" y="-150" type="line"/>
      <point x="744" y="30" type="line"/>
      <point x="589" y="30" type="line"/>
      <point x="589" y="0" type="line"/>
    </contour>
  </outline>
</glyph>
<glyph name="ustraightcyr" format="2">
  <advance width="544"/>
  <unicode hex="04AF"/>
  <outline>
    <contour>
      <point x="292" y="0" type="line"/>
      <point x="459" y="444" type="line" smooth="yes"/>
      <point x="469" y="471"/>
      <point x="494" y="478"/>
      <point x="532" y="478" type="curve" smooth="yes"/>
      <point x="534" y="478" type="line"/>
      <point x="534" y="508" type="line"/>
      <point x="344" y="508" type="line"/>
      <point x="344" y="478" type="line"/>
      <point x="346" y="478" type="line" smooth="yes"/>
      <point x="389" y="478"/>
      <point x="434" y="476"/>
      <point x="434" y="469" type="curve"/>
      <point x="270" y="25" type="line"/>
      <point x="281" y="23" type="line"/>
      <point x="116" y="469" type="line"/>
      <point x="116" y="476"/>
      <point x="161" y="478"/>
      <point x="204" y="478" type="curve" smooth="yes"/>
      <point x="206" y="478" type="line"/>
      <point x="206" y="508" type="line"/>
      <point x="10" y="508" type="line"/>
      <point x="10" y="478" type="line"/>
      <point x="12" y="478" type="line" smooth="yes"/>
      <point x="50" y="478"/>
      <point x="75" y="471"/>
      <point x="85" y="444" type="curve" smooth="yes"/>
      <point x="252" y="0" type="line"/>
    </contour>
    <contour>
      <point x="252" y="10" type="line"/>
      <point x="252" y="-160" type="line" smooth="yes"/>
      <point x="252" y="-189"/>
      <point x="218" y="-196"/>
      <point x="170" y="-196" type="curve" smooth="yes"/>
      <point x="168" y="-196" type="line"/>
      <point x="168" y="-223" type="line"/>
      <point x="376" y="-223" type="line"/>
      <point x="376" y="-196" type="line"/>
      <point x="374" y="-196" type="line" smooth="yes"/>
      <point x="326" y="-196"/>
      <point x="292" y="-189"/>
      <point x="292" y="-160" type="curve" smooth="yes"/>
      <point x="292" y="10" type="line"/>
    </contour>
  </outline>
</glyph>
<glyph name="Ustraightstrokecyr" format="2">
  <advance width="658"/>
  <unicode hex="04B0"/>
  <outline>
    <contour>
      <point x="158" y="294" type="line"/>
      <point x="158" y="264" type="line"/>
      <point x="502" y="264" type="line"/>
      <point x="502" y="294" type="line"/>
    </contour>
    <contour>
      <point x="310" y="311" type="line"/>
      <point x="310" y="66" type="line" smooth="yes"/>
      <point x="310" y="37"/>
      <point x="274" y="30"/>
      <point x="225" y="30" type="curve" smooth="yes"/>
      <point x="209" y="30" type="line"/>
      <point x="209" y="0" type="line"/>
      <point x="451" y="0" type="line"/>
      <point x="451" y="30" type="line"/>
      <point x="435" y="30" type="line" smooth="yes"/>
      <point x="386" y="30"/>
      <point x="350" y="37"/>
      <point x="350" y="66" type="curve" smooth="yes"/>
      <point x="350" y="311" type="line"/>
      <point x="339" y="276" type="line"/>
      <point x="553" y="639" type="line" smooth="yes"/>
      <point x="575" y="676"/>
      <point x="604" y="680"/>
      <point x="638" y="680" type="curve" smooth="yes"/>
      <point x="643" y="680" type="line"/>
      <point x="643" y="710" type="line"/>
      <point x="431" y="710" type="line"/>
      <point x="431" y="680" type="line"/>
      <point x="446" y="680" type="line" smooth="yes"/>
      <point x="484" y="680"/>
      <point x="529" y="673"/>
      <point x="529" y="662" type="curve"/>
      <point x="315" y="296" type="line"/>
      <point x="345" y="308" type="line"/>
      <point x="132" y="670" type="line"/>
      <point x="132" y="677"/>
      <point x="179" y="680"/>
      <point x="215" y="680" type="curve" smooth="yes"/>
      <point x="232" y="680" type="line"/>
      <point x="232" y="710" type="line"/>
      <point x="15" y="710" type="line"/>
      <point x="15" y="680" type="line"/>
      <point x="20" y="680" type="line" smooth="yes"/>
      <point x="54" y="680"/>
      <point x="81" y="680"/>
      <point x="96" y="654" type="curve" smooth="yes"/>
      <point x="320" y="278" type="line"/>
    </contour>
  </outline>
</glyph>
<glyph name="Xatailcyr" format="2">
  <advance width="685"/>
  <unicode hex="04B2"/>
  <outline>
    <contour>
      <point x="36" y="680" type="line"/>
      <point x="43" y="680" type="line" smooth="yes"/>
      <point x="80" y="680"/>
      <point x="101" y="679"/>
      <point x="122" y="648" type="curve" smooth="yes"/>
      <point x="321" y="353" type="line"/>
      <point x="327" y="349" type="line"/>
      <point x="535" y="40" type="line"/>
      <point x="535" y="33"/>
      <point x="489" y="30"/>
      <point x="453" y="30" type="curve" smooth="yes"/>
      <point x="436" y="30" type="line"/>
      <point x="436" y="0" type="line"/>
      <point x="592" y="0" type="line"/>
      <point x="592" y="30" type="line"/>
      <point x="354" y="380" type="line"/>
      <point x="348" y="383" type="line"/>
      <point x="156" y="670" type="line"/>
      <point x="156" y="677"/>
      <point x="202" y="680"/>
      <point x="238" y="680" type="curve" smooth="yes"/>
      <point x="255" y="680" type="line"/>
      <point x="255" y="710" type="line"/>
      <point x="36" y="710" type="line"/>
    </contour>
    <contour>
      <point x="20" y="0" type="line"/>
      <point x="239" y="0" type="line"/>
      <point x="239" y="30" type="line"/>
      <point x="224" y="30" type="line" smooth="yes"/>
      <point x="187" y="30"/>
      <point x="139" y="37"/>
      <point x="139" y="48" type="curve"/>
      <point x="341" y="346" type="line"/>
      <point x="324" y="379" type="line"/>
      <point x="116" y="76" type="line" smooth="yes"/>
      <point x="90" y="39"/>
      <point x="66" y="30"/>
      <point x="30" y="30" type="curve" smooth="yes"/>
      <point x="20" y="30" type="line"/>
    </contour>
    <contour>
      <point x="356" y="361" type="line"/>
      <point x="542" y="635" type="line" smooth="yes"/>
      <point x="567" y="671"/>
      <point x="594" y="680"/>
      <point x="631" y="680" type="curve" smooth="yes"/>
      <point x="636" y="680" type="line"/>
      <point x="636" y="710" type="line"/>
      <point x="422" y="710" type="line"/>
      <point x="422" y="680" type="line"/>
      <point x="437" y="680" type="line" smooth="yes"/>
      <point x="475" y="680"/>
      <point x="520" y="673"/>
      <point x="520" y="662" type="curve"/>
      <point x="334" y="383" type="line"/>
    </contour>
    <contour>
      <point x="540" y="0" type="line" smooth="yes"/>
      <point x="612" y="0"/>
      <point x="641" y="-10"/>
      <point x="645" y="-50" type="curve" smooth="yes"/>
      <point x="654" y="-150" type="line"/>
      <point x="680" y="-150" type="line"/>
      <point x="680" y="30" type="line"/>
      <point x="495" y="30" type="line"/>
      <point x="495" y="0" type="line"/>
    </contour>
  </outline>
</glyph>
<glyph name="Chetailcyr" format="2">
  <advance width="739"/>
  <unicode hex="04B6"/>
  <guideline x="1123" y="741" angle="90" identifier="nfCxFSb4p1"/>
  <outline>
    <contour>
      <point x="340" y="292" type="curve" smooth="yes"/>
      <point x="416.7346938776" y="292"/>
      <point x="503.406131786" y="311.203065893"/>
      <point x="575" y="347" type="curve"/>
      <point x="575" y="377" type="line"/>
      <point x="504.3338065183" y="340.2148581876"/>
      <point x="416.7346938776" y="322"/>
      <point x="340" y="322" type="curve" smooth="yes"/>
      <point x="219.1508379888" y="322"/>
      <point x="171" y="377"/>
      <point x="171" y="517" type="curve" smooth="yes"/>
      <point x="171" y="670" type="line" smooth="yes"/>
      <point x="171" y="677"/>
      <point x="220" y="680"/>
      <point x="258" y="680" type="curve" smooth="yes"/>
      <point x="267" y="680" type="line"/>
      <point x="267" y="710" type="line"/>
      <point x="35" y="710" type="line"/>
      <point x="35" y="680" type="line"/>
      <point x="46" y="680" type="line" smooth="yes"/>
      <point x="95" y="680"/>
      <point x="131" y="673"/>
      <point x="131" y="644" type="curve" smooth="yes"/>
      <point x="131" y="507" type="line" smooth="yes"/>
      <point x="131" y="353"/>
      <point x="191.1232876712" y="292"/>
    </contour>
    <contour>
      <point x="462" y="0" type="line"/>
      <point x="598" y="0" type="line"/>
      <point x="598" y="644" type="line" smooth="yes"/>
      <point x="598" y="673"/>
      <point x="634" y="680"/>
      <point x="683" y="680" type="curve" smooth="yes"/>
      <point x="694" y="680" type="line"/>
      <point x="694" y="710" type="line"/>
      <point x="462" y="710" type="line"/>
      <point x="462" y="680" type="line"/>
      <point x="471" y="680" type="line" smooth="yes"/>
      <point x="509" y="680"/>
      <point x="558" y="677"/>
      <point x="558" y="670" type="curve" smooth="yes"/>
      <point x="558" y="40" type="line" smooth="yes"/>
      <point x="558" y="33"/>
      <point x="509" y="30"/>
      <point x="471" y="30" type="curve" smooth="yes"/>
      <point x="462" y="30" type="line"/>
    </contour>
    <contour>
      <point x="564" y="0" type="line" smooth="yes"/>
      <point x="636" y="0"/>
      <point x="665" y="-10"/>
      <point x="669" y="-50" type="curve" smooth="yes"/>
      <point x="678" y="-150" type="line"/>
      <point x="704" y="-150" type="line"/>
      <point x="704" y="30" type="line"/>
      <point x="549" y="30" type="line"/>
      <point x="549" y="0" type="line"/>
    </contour>
  </outline>
</glyph>
<glyph name="chetailcyr" format="2">
  <advance width="582"/>
  <unicode hex="04B7"/>
  <guideline x="855" y="515" angle="90" identifier="GGEFes61Q6"/>
  <outline>
    <contour>
      <point x="418" y="37" type="line" smooth="yes"/>
      <point x="418" y="30"/>
      <point x="373" y="27"/>
      <point x="345" y="27" type="curve" smooth="yes"/>
      <point x="343" y="27" type="line"/>
      <point x="343" y="0" type="line"/>
      <point x="458" y="0" type="line"/>
      <point x="458" y="445" type="line" smooth="yes"/>
      <point x="458" y="474"/>
      <point x="492" y="481"/>
      <point x="540" y="481" type="curve" smooth="yes"/>
      <point x="542" y="481" type="line"/>
      <point x="542" y="508" type="line"/>
      <point x="343" y="508" type="line"/>
      <point x="343" y="481" type="line"/>
      <point x="345" y="481" type="line" smooth="yes"/>
      <point x="373" y="481"/>
      <point x="418" y="478"/>
      <point x="418" y="471" type="curve" smooth="yes"/>
    </contour>
    <contour>
      <point x="109" y="345" type="line" smooth="yes"/>
      <point x="109" y="250"/>
      <point x="159" y="210"/>
      <point x="270" y="210" type="curve" smooth="yes"/>
      <point x="325" y="210"/>
      <point x="370" y="218"/>
      <point x="425" y="237" type="curve"/>
      <point x="425" y="267" type="line"/>
      <point x="373" y="249"/>
      <point x="325" y="240"/>
      <point x="270" y="240" type="curve" smooth="yes"/>
      <point x="185" y="240"/>
      <point x="149" y="273"/>
      <point x="149" y="350" type="curve" smooth="yes"/>
      <point x="149" y="471" type="line" smooth="yes"/>
      <point x="149" y="478"/>
      <point x="193" y="481"/>
      <point x="221" y="481" type="curve" smooth="yes"/>
      <point x="224" y="481" type="line"/>
      <point x="224" y="508" type="line"/>
      <point x="25" y="508" type="line"/>
      <point x="25" y="481" type="line"/>
      <point x="27" y="481" type="line" smooth="yes"/>
      <point x="75" y="481"/>
      <point x="109" y="474"/>
      <point x="109" y="445" type="curve" smooth="yes"/>
    </contour>
    <contour>
      <point x="410" y="0" type="line"/>
      <point x="412" y="0" type="line" smooth="yes"/>
      <point x="484" y="0"/>
      <point x="513" y="-10"/>
      <point x="517" y="-50" type="curve" smooth="yes"/>
      <point x="526" y="-140" type="line"/>
      <point x="552" y="-140" type="line"/>
      <point x="552" y="30" type="line"/>
      <point x="410" y="30" type="line"/>
    </contour>
  </outline>
</glyph>
<glyph name="Chevertcyr" format="2">
  <advance width="759"/>
  <unicode hex="04B8"/>
  <guideline x="1123" y="741" angle="90" identifier="dvMXMzF90a"/>
  <outline>
    <contour>
      <point x="482" y="0" type="line"/>
      <point x="714" y="0" type="line"/>
      <point x="714" y="30" type="line"/>
      <point x="703" y="30" type="line" smooth="yes"/>
      <point x="654" y="30"/>
      <point x="618" y="37"/>
      <point x="618" y="66" type="curve" smooth="yes"/>
      <point x="618" y="644" type="line" smooth="yes"/>
      <point x="618" y="673"/>
      <point x="654" y="680"/>
      <point x="703" y="680" type="curve" smooth="yes"/>
      <point x="714" y="680" type="line"/>
      <point x="714" y="710" type="line"/>
      <point x="482" y="710" type="line"/>
      <point x="482" y="680" type="line"/>
      <point x="491" y="680" type="line" smooth="yes"/>
      <point x="529" y="680"/>
      <point x="578" y="677"/>
      <point x="578" y="670" type="curve" smooth="yes"/>
      <point x="578" y="40" type="line" smooth="yes"/>
      <point x="578" y="33"/>
      <point x="529" y="30"/>
      <point x="491" y="30" type="curve" smooth="yes"/>
      <point x="482" y="30" type="line"/>
    </contour>
    <contour>
      <point x="350" y="292" type="curve" smooth="yes"/>
      <point x="430" y="292"/>
      <point x="521" y="310"/>
      <point x="595" y="347" type="curve"/>
      <point x="595" y="377" type="line"/>
      <point x="522" y="339"/>
      <point x="430" y="322"/>
      <point x="350" y="322" type="curve" smooth="yes"/>
      <point x="222" y="322"/>
      <point x="171" y="377"/>
      <point x="171" y="517" type="curve" smooth="yes"/>
      <point x="171" y="670" type="line" smooth="yes"/>
      <point x="171" y="677"/>
      <point x="220" y="680"/>
      <point x="258" y="680" type="curve" smooth="yes"/>
      <point x="267" y="680" type="line"/>
      <point x="267" y="710" type="line"/>
      <point x="35" y="710" type="line"/>
      <point x="35" y="680" type="line"/>
      <point x="46" y="680" type="line" smooth="yes"/>
      <point x="95" y="680"/>
      <point x="131" y="673"/>
      <point x="131" y="644" type="curve" smooth="yes"/>
      <point x="131" y="507" type="line" smooth="yes"/>
      <point x="131" y="353"/>
      <point x="194" y="292"/>
    </contour>
    <contour>
      <point x="360" y="158" type="line"/>
      <point x="392" y="158" type="line"/>
      <point x="392" y="531" type="line"/>
      <point x="360" y="531" type="line"/>
    </contour>
  </outline>
</glyph>
<glyph name="chevertcyr" format="2">
  <advance width="587"/>
  <unicode hex="04B9"/>
  <guideline x="855" y="515" angle="90" identifier="rBEXk9AqX9"/>
  <outline>
    <contour>
      <point x="428" y="37" type="line" smooth="yes"/>
      <point x="428" y="30"/>
      <point x="383" y="27"/>
      <point x="355" y="27" type="curve" smooth="yes"/>
      <point x="353" y="27" type="line"/>
      <point x="353" y="0" type="line"/>
      <point x="552" y="0" type="line"/>
      <point x="552" y="27" type="line"/>
      <point x="550" y="27" type="line" smooth="yes"/>
      <point x="502" y="27"/>
      <point x="468" y="34"/>
      <point x="468" y="63" type="curve" smooth="yes"/>
      <point x="468" y="445" type="line" smooth="yes"/>
      <point x="468" y="474"/>
      <point x="502" y="481"/>
      <point x="550" y="481" type="curve" smooth="yes"/>
      <point x="552" y="481" type="line"/>
      <point x="552" y="508" type="line"/>
      <point x="353" y="508" type="line"/>
      <point x="353" y="481" type="line"/>
      <point x="355" y="481" type="line" smooth="yes"/>
      <point x="383" y="481"/>
      <point x="428" y="478"/>
      <point x="428" y="471" type="curve" smooth="yes"/>
    </contour>
    <contour>
      <point x="109" y="345" type="line" smooth="yes"/>
      <point x="109" y="250"/>
      <point x="161" y="210"/>
      <point x="275" y="210" type="curve" smooth="yes"/>
      <point x="332" y="210"/>
      <point x="378" y="217"/>
      <point x="435" y="237" type="curve"/>
      <point x="435" y="267" type="line"/>
      <point x="381" y="248"/>
      <point x="332" y="240"/>
      <point x="275" y="240" type="curve" smooth="yes"/>
      <point x="186" y="240"/>
      <point x="149" y="273"/>
      <point x="149" y="350" type="curve" smooth="yes"/>
      <point x="149" y="471" type="line" smooth="yes"/>
      <point x="149" y="478"/>
      <point x="193" y="481"/>
      <point x="221" y="481" type="curve" smooth="yes"/>
      <point x="224" y="481" type="line"/>
      <point x="224" y="508" type="line"/>
      <point x="25" y="508" type="line"/>
      <point x="25" y="481" type="line"/>
      <point x="27" y="481" type="line" smooth="yes"/>
      <point x="75" y="481"/>
      <point x="109" y="474"/>
      <point x="109" y="445" type="curve" smooth="yes"/>
    </contour>
    <contour>
      <point x="275" y="109" type="line"/>
      <point x="307" y="109" type="line"/>
      <point x="307" y="377" type="line"/>
      <point x="275" y="377" type="line"/>
    </contour>
  </outline>
</glyph>
<glyph name="Obarcyr" format="2">
  <advance width="747"/>
  <unicode hex="04E8"/>
  <guideline x="210" y="745" angle="90" identifier="UtNSclIhRG"/>
  <guideline x="1248" y="730" angle="90" identifier="hwb5F7EShy"/>
  <outline>
    <contour>
      <point x="76" y="381" type="line"/>
      <point x="76" y="351" type="line"/>
      <point x="671" y="351" type="line"/>
      <point x="671" y="381" type="line"/>
    </contour>
    <contour>
      <point x="373" y="-10" type="curve" smooth="yes"/>
      <point x="559" y="-10"/>
      <point x="700" y="139"/>
      <point x="700" y="355" type="curve" smooth="yes"/>
      <point x="700" y="572"/>
      <point x="559" y="720"/>
      <point x="373" y="720" type="curve" smooth="yes"/>
      <point x="188" y="720"/>
      <point x="47" y="572"/>
      <point x="47" y="355" type="curve" smooth="yes"/>
      <point x="47" y="139"/>
      <point x="188" y="-10"/>
    </contour>
    <contour>
      <point x="373" y="20" type="curve" smooth="yes"/>
      <point x="207" y="20"/>
      <point x="90" y="150"/>
      <point x="90" y="355" type="curve" smooth="yes"/>
      <point x="90" y="560"/>
      <point x="207" y="690"/>
      <point x="373" y="690" type="curve" smooth="yes"/>
      <point x="539" y="690"/>
      <point x="657" y="560"/>
      <point x="657" y="355" type="curve" smooth="yes"/>
      <point x="657" y="150"/>
      <point x="539" y="20"/>
    </contour>
  </outline>
</glyph>
<glyph name="hastrokecyr" format="2">
  <advance width="543"/>
  <unicode hex="04FF"/>
  <outline>
    <contour>
      <point x="125" y="247" type="line"/>
      <point x="418" y="247" type="line"/>
      <point x="418" y="277" type="line"/>
      <point x="125" y="277" type="line"/>
    </contour>
    <contour>
      <point x="523" y="0" type="line"/>
      <point x="523" y="30" type="line"/>
      <point x="522" y="30" type="line"/>
      <point x="482" y="30"/>
      <point x="464" y="38"/>
      <point x="444" y="64" type="curve" smooth="yes"/>
      <point x="283" y="276" type="line"/>
      <point x="279" y="280" type="line"/>
      <point x="140" y="470" type="line"/>
      <point x="140" y="476"/>
      <point x="186" y="478"/>
      <point x="227" y="478" type="curve" smooth="yes"/>
      <point x="229" y="478" type="line"/>
      <point x="229" y="508" type="line"/>
      <point x="32" y="508" type="line"/>
      <point x="32" y="477" type="line"/>
      <point x="33" y="477" type="line"/>
      <point x="71" y="477"/>
      <point x="89" y="472"/>
      <point x="105" y="451" type="curve" smooth="yes"/>
      <point x="250" y="255" type="line"/>
      <point x="254" y="252" type="line"/>
      <point x="414" y="39" type="line"/>
      <point x="414" y="32"/>
      <point x="366" y="30"/>
      <point x="324" y="30" type="curve" smooth="yes"/>
      <point x="322" y="30" type="line"/>
      <point x="322" y="0" type="line"/>
    </contour>
    <contour>
      <point x="20" y="0" type="line"/>
      <point x="212" y="0" type="line"/>
      <point x="212" y="30" type="line"/>
      <point x="210" y="30" type="line" smooth="yes"/>
      <point x="171" y="30"/>
      <point x="128" y="38"/>
      <point x="128" y="50" type="curve"/>
      <point x="275" y="246" type="line"/>
      <point x="253" y="267" type="line"/>
      <point x="101" y="68" type="line" smooth="yes"/>
      <point x="79" y="40"/>
      <point x="50" y="30"/>
      <point x="21" y="30" type="curve"/>
      <point x="20" y="30" type="line"/>
    </contour>
    <contour>
      <point x="286" y="246" type="line"/>
      <point x="427" y="433" type="line" smooth="yes"/>
      <point x="454" y="468"/>
      <point x="479" y="478"/>
      <point x="513" y="478" type="curve"/>
      <point x="514" y="478" type="line"/>
      <point x="514" y="508" type="line"/>
      <point x="323" y="508" type="line"/>
      <point x="323" y="478" type="line"/>
      <point x="326" y="478" type="line" smooth="yes"/>
      <point x="363" y="478"/>
      <point x="407" y="470"/>
      <point x="407" y="458" type="curve"/>
      <point x="269" y="272" type="line"/>
    </contour>
  </outline>
</glyph>
<glyph name="idieresisacute" format="2">
  <advance width="278"/>
  <unicode hex="1E2F"/>
  <outline>
    <contour>
      <point x="38" y="657" type="curve" smooth="yes"/>
      <point x="61" y="657"/>
      <point x="78" y="671"/>
      <point x="78" y="697" type="curve" smooth="yes"/>
      <point x="78" y="723"/>
      <point x="61" y="737"/>
      <point x="38" y="737" type="curve" smooth="yes"/>
      <point x="15" y="737"/>
      <point x="-2" y="723"/>
      <point x="-2" y="697" type="curve" smooth="yes"/>
      <point x="-2" y="671"/>
      <point x="15" y="657"/>
    </contour>
    <contour>
      <point x="231" y="657" type="curve" smooth="yes"/>
      <point x="254" y="657"/>
      <point x="271" y="671"/>
      <point x="271" y="697" type="curve" smooth="yes"/>
      <point x="271" y="723"/>
      <point x="254" y="737"/>
      <point x="231" y="737" type="curve" smooth="yes"/>
      <point x="208" y="737"/>
      <point x="191" y="723"/>
      <point x="191" y="697" type="curve" smooth="yes"/>
      <point x="191" y="671"/>
      <point x="208" y="657"/>
    </contour>
    <contour>
      <point x="184" y="896" type="curve" smooth="yes"/>
      <point x="129" y="779" type="line"/>
      <point x="129" y="765" type="line"/>
      <point x="143" y="765" type="line"/>
      <point x="227" y="872" type="line" smooth="yes"/>
      <point x="241" y="889"/>
      <point x="253" y="904"/>
      <point x="253" y="919" type="curve" smooth="yes"/>
      <point x="253" y="933"/>
      <point x="243" y="943"/>
      <point x="227" y="943" type="curve" smooth="yes"/>
      <point x="208" y="943"/>
      <point x="198" y="926"/>
    </contour>
    <component base="dotlessi"/>
  </outline>
</glyph>
<glyph name="dagger" format="2">
  <advance width="400"/>
  <unicode hex="2020"/>
  <outline>
    <contour>
      <point x="196" y="505" type="line"/>
      <point x="204" y="505" type="line"/>
      <point x="350" y="492" type="line"/>
      <point x="380" y="492" type="line"/>
      <point x="380" y="534" type="line"/>
      <point x="350" y="534" type="line"/>
      <point x="204" y="524" type="line"/>
      <point x="196" y="524" type="line"/>
      <point x="50" y="534" type="line"/>
      <point x="20" y="534" type="line"/>
      <point x="20" y="492" type="line"/>
      <point x="50" y="492" type="line"/>
    </contour>
    <contour>
      <point x="220" y="710" type="line"/>
      <point x="180" y="710" type="line"/>
      <point x="180" y="675" type="line" smooth="yes"/>
      <point x="180" y="640"/>
      <point x="187" y="586"/>
      <point x="187" y="508" type="curve" smooth="yes"/>
      <point x="187" y="440"/>
      <point x="183" y="403"/>
      <point x="175" y="377" type="curve"/>
      <point x="175" y="357" type="line" smooth="yes"/>
      <point x="175" y="316"/>
      <point x="183" y="219"/>
      <point x="190" y="0" type="curve"/>
      <point x="210" y="0" type="line"/>
      <point x="217" y="219"/>
      <point x="225" y="316"/>
      <point x="225" y="357" type="curve" smooth="yes"/>
      <point x="225" y="377" type="line"/>
      <point x="217" y="403"/>
      <point x="213" y="440"/>
      <point x="213" y="508" type="curve" smooth="yes"/>
      <point x="213" y="586"/>
      <point x="220" y="640"/>
      <point x="220" y="675" type="curve" smooth="yes"/>
    </contour>
  </outline>
</glyph>
<glyph name="guilsinglleft" format="2">
  <advance width="291"/>
  <unicode hex="2039"/>
  <outline>
    <contour>
      <point x="101" y="248" type="line"/>
      <point x="224" y="455" type="line"/>
      <point x="197" y="455" type="line"/>
      <point x="67" y="282" type="line"/>
      <point x="67" y="248" type="line"/>
      <point x="197" y="75" type="line"/>
      <point x="224" y="75" type="line"/>
      <point x="101" y="280" type="line"/>
    </contour>
  </outline>
</glyph>
<glyph name="won" format="2">
  <advance width="560"/>
  <unicode hex="20A9"/>
  <outline>
    <contour>
      <point x="-14" y="710" type="line"/>
      <point x="-14" y="680" type="line"/>
      <point x="-9" y="680" type="line" smooth="yes"/>
      <point x="20" y="680"/>
      <point x="40" y="677"/>
      <point x="45" y="643" type="curve" smooth="yes"/>
      <point x="133" y="0" type="line"/>
      <point x="178" y="0" type="line"/>
      <point x="285" y="685" type="line"/>
      <point x="277" y="689" type="line"/>
      <point x="393" y="0" type="line"/>
      <point x="442" y="0" type="line"/>
      <point x="515" y="637" type="line" smooth="yes"/>
      <point x="519" y="671"/>
      <point x="541" y="680"/>
      <point x="568" y="680" type="curve" smooth="yes"/>
      <point x="573" y="680" type="line"/>
      <point x="573" y="710" type="line"/>
      <point x="410" y="710" type="line"/>
      <point x="410" y="680" type="line"/>
      <point x="425" y="680" type="line" smooth="yes"/>
      <point x="454" y="680"/>
      <point x="489" y="673"/>
      <point x="489" y="662" type="curve"/>
      <point x="415" y="15" type="line"/>
      <point x="422" y="12" type="line"/>
      <point x="303" y="710" type="line"/>
      <point x="261" y="710" type="line"/>
      <point x="154" y="19" type="line"/>
      <point x="162" y="19" type="line"/>
      <point x="74" y="670" type="line"/>
      <point x="74" y="677"/>
      <point x="111" y="680"/>
      <point x="140" y="680" type="curve" smooth="yes"/>
      <point x="157" y="680" type="line"/>
      <point x="157" y="710" type="line"/>
    </contour>
    <contour>
      <point x="-14" y="438" type="line"/>
      <point x="-14" y="408" type="line"/>
      <point x="88" y="408" type="line"/>
      <point x="95" y="408" type="line"/>
      <point x="229" y="408" type="line"/>
      <point x="239" y="438" type="line"/>
    </contour>
    <contour>
      <point x="339" y="408" type="line"/>
      <point x="468" y="408" type="line"/>
      <point x="484" y="408" type="line"/>
      <point x="573" y="408" type="line"/>
      <point x="573" y="438" type="line"/>
      <point x="334" y="438" type="line"/>
    </contour>
    <contour>
      <point x="198" y="253" type="line"/>
      <point x="369" y="253" type="line"/>
      <point x="356" y="283" type="line"/>
      <point x="285" y="283" type="line"/>
      <point x="208" y="283" type="line"/>
    </contour>
    <contour>
      <point x="105" y="283" type="line"/>
      <point x="-14" y="283" type="line"/>
      <point x="-14" y="253" type="line"/>
      <point x="111" y="253" type="line"/>
    </contour>
    <contour>
      <point x="463" y="253" type="line"/>
      <point x="573" y="253" type="line"/>
      <point x="573" y="283" type="line"/>
      <point x="463" y="283" type="line"/>
    </contour>
  </outline>
</glyph>
<glyph name="kip" format="2">
  <advance width="560"/>
  <unicode hex="20AD"/>
  <outline>
    <contour>
      <point x="30" y="386" type="line"/>
      <point x="30" y="356" type="line"/>
      <point x="490" y="356" type="line"/>
      <point x="490" y="386" type="line"/>
    </contour>
    <contour>
      <point x="30" y="0" type="line"/>
      <point x="260" y="0" type="line" smooth="yes"/>
      <point x="260" y="30" type="line" smooth="yes"/>
      <point x="251" y="30" type="line" smooth="yes"/>
      <point x="214" y="30"/>
      <point x="166" y="33"/>
      <point x="166" y="40" type="curve" smooth="yes"/>
      <point x="166" y="670" type="line" smooth="yes"/>
      <point x="166" y="677"/>
      <point x="214" y="680"/>
      <point x="251" y="680" type="curve" smooth="yes"/>
      <point x="260" y="680" type="line" smooth="yes"/>
      <point x="260" y="710" type="line" smooth="yes"/>
      <point x="30" y="710" type="line"/>
      <point x="30" y="680" type="line"/>
      <point x="41" y="680" type="line" smooth="yes"/>
      <point x="90" y="680"/>
      <point x="126" y="673"/>
      <point x="126" y="644" type="curve" smooth="yes"/>
      <point x="126" y="66" type="line" smooth="yes"/>
      <point x="126" y="37"/>
      <point x="90" y="30"/>
      <point x="41" y="30" type="curve" smooth="yes"/>
      <point x="30" y="30" type="line"/>
    </contour>
    <contour>
      <point x="558" y="30" type="line"/>
      <point x="547" y="30" type="line" smooth="yes"/>
      <point x="509" y="30"/>
      <point x="492" y="33"/>
      <point x="471" y="63" type="curve" smooth="yes"/>
      <point x="253" y="382" type="line"/>
      <point x="245" y="358" type="line"/>
      <point x="466" y="651" type="line" smooth="yes"/>
      <point x="483" y="674"/>
      <point x="502" y="680"/>
      <point x="532" y="680" type="curve" smooth="yes"/>
      <point x="548" y="680" type="line"/>
      <point x="548" y="710" type="line"/>
      <point x="351" y="710" type="line"/>
      <point x="351" y="680" type="line"/>
      <point x="360" y="680" type="line" smooth="yes"/>
      <point x="397" y="680"/>
      <point x="438" y="677"/>
      <point x="440" y="670" type="curve"/>
      <point x="213" y="367" type="line"/>
      <point x="224" y="362" type="line"/>
      <point x="442" y="40" type="line"/>
      <point x="442" y="33"/>
      <point x="395" y="30"/>
      <point x="358" y="30" type="curve" smooth="yes"/>
      <point x="349" y="30" type="line"/>
      <point x="349" y="0" type="line"/>
      <point x="558" y="0" type="line"/>
    </contour>
  </outline>
</glyph>
<glyph name="ruble" format="2">
  <advance width="561"/>
  <unicode hex="20BD"/>
  <outline>
    <contour>
      <point x="36" y="375" type="line"/>
      <point x="305" y="375" type="line" smooth="yes"/>
      <point x="450" y="375"/>
      <point x="502" y="436"/>
      <point x="502" y="530" type="curve" smooth="yes"/>
      <point x="502" y="625"/>
      <point x="449" y="680"/>
      <point x="310" y="680" type="curve" smooth="yes"/>
      <point x="172" y="680" type="line"/>
      <point x="172" y="40" type="line" smooth="yes"/>
      <point x="172" y="33"/>
      <point x="215" y="30"/>
      <point x="249" y="30" type="curve" smooth="yes"/>
      <point x="276" y="30" type="line"/>
      <point x="276" y="0" type="line"/>
      <point x="36" y="0" type="line"/>
      <point x="36" y="30" type="line"/>
      <point x="47" y="30" type="line" smooth="yes"/>
      <point x="96" y="30"/>
      <point x="132" y="37"/>
      <point x="132" y="66" type="curve" smooth="yes"/>
      <point x="132" y="644" type="line" smooth="yes"/>
      <point x="132" y="673"/>
      <point x="96" y="680"/>
      <point x="47" y="680" type="curve" smooth="yes"/>
      <point x="36" y="680" type="line"/>
      <point x="36" y="710" type="line"/>
      <point x="310" y="710" type="line" smooth="yes"/>
      <point x="475" y="710"/>
      <point x="545" y="641"/>
      <point x="545" y="531" type="curve" smooth="yes"/>
      <point x="545" y="421"/>
      <point x="471" y="345"/>
      <point x="305" y="345" type="curve" smooth="yes"/>
      <point x="36" y="345" type="line"/>
    </contour>
    <contour>
      <point x="379" y="187" type="line"/>
      <point x="36" y="187" type="line"/>
      <point x="36" y="217" type="line"/>
      <point x="379" y="217" type="line"/>
    </contour>
  </outline>
</glyph>
<glyph name="numero" format="2">
  <advance width="1186"/>
  <unicode hex="2116"/>
  <outline>
    <contour>
      <point x="795" y="226" type="line"/>
      <point x="1133" y="226" type="line"/>
      <point x="1133" y="196" type="line"/>
      <point x="795" y="196" type="line"/>
    </contour>
    <component base="N"/>
    <component base="ordmasculine" xOffset="702"/>
  </outline>
</glyph>
<glyph name="infinity" format="2">
  <advance width="776"/>
  <unicode hex="221E"/>
  <outline>
    <contour>
      <point x="217" y="154" type="curve" smooth="yes"/>
      <point x="120" y="154"/>
      <point x="50" y="236"/>
      <point x="50" y="353" type="curve" smooth="yes"/>
      <point x="50" y="471"/>
      <point x="122" y="556"/>
      <point x="216" y="556" type="curve" smooth="yes"/>
      <point x="318" y="556"/>
      <point x="361" y="463"/>
      <point x="399" y="380" type="curve" smooth="yes"/>
      <point x="452" y="263"/>
      <point x="490" y="189"/>
      <point x="574" y="189" type="curve" smooth="yes"/>
      <point x="647" y="189"/>
      <point x="696" y="257"/>
      <point x="696" y="360" type="curve" smooth="yes"/>
      <point x="696" y="458"/>
      <point x="645" y="521"/>
      <point x="560" y="521" type="curve" smooth="yes"/>
      <point x="475" y="521"/>
      <point x="427" y="452"/>
      <point x="398" y="359" type="curve"/>
      <point x="379" y="360" type="line"/>
      <point x="400" y="470"/>
      <point x="466" y="556"/>
      <point x="560" y="556" type="curve" smooth="yes"/>
      <point x="657" y="556"/>
      <point x="726" y="474"/>
      <point x="726" y="357" type="curve" smooth="yes"/>
      <point x="726" y="239"/>
      <point x="655" y="154"/>
      <point x="564" y="154" type="curve" smooth="yes"/>
      <point x="462" y="154"/>
      <point x="414" y="238"/>
      <point x="377" y="332" type="curve" smooth="yes"/>
      <point x="335" y="446"/>
      <point x="287" y="521"/>
      <point x="207" y="521" type="curve" smooth="yes"/>
      <point x="130" y="521"/>
      <point x="80" y="454"/>
      <point x="80" y="350" type="curve" smooth="yes"/>
      <point x="80" y="252"/>
      <point x="132" y="189"/>
      <point x="217" y="189" type="curve" smooth="yes"/>
      <point x="303" y="189"/>
      <point x="349" y="258"/>
      <point x="377" y="351" type="curve"/>
      <point x="396" y="350" type="line"/>
      <point x="376" y="240"/>
      <point x="312" y="154"/>
    </contour>
  </outline>
</glyph>
<glyph name="approxequal" format="2">
  <advance width="560"/>
  <unicode hex="2248"/>
  <outline>
    <contour>
      <point x="368" y="327" type="curve" smooth="yes"/>
      <point x="438" y="327"/>
      <point x="463" y="394"/>
      <point x="478" y="444" type="curve"/>
      <point x="449" y="452" type="line"/>
      <point x="441" y="425"/>
      <point x="424" y="359"/>
      <point x="368" y="359" type="curve" smooth="yes"/>
      <point x="293" y="359"/>
      <point x="266" y="454"/>
      <point x="175" y="454" type="curve" smooth="yes"/>
      <point x="105" y="454"/>
      <point x="72" y="395"/>
      <point x="62" y="340" type="curve"/>
      <point x="92" y="333" type="line"/>
      <point x="100" y="372"/>
      <point x="120" y="422"/>
      <point x="175" y="422" type="curve" smooth="yes"/>
      <point x="245" y="422"/>
      <point x="283" y="327"/>
    </contour>
    <contour>
      <point x="368" y="120" type="curve" smooth="yes"/>
      <point x="438" y="120"/>
      <point x="463" y="187"/>
      <point x="478" y="237" type="curve"/>
      <point x="449" y="245" type="line"/>
      <point x="441" y="218"/>
      <point x="424" y="152"/>
      <point x="368" y="152" type="curve" smooth="yes"/>
      <point x="293" y="152"/>
      <point x="266" y="247"/>
      <point x="175" y="247" type="curve" smooth="yes"/>
      <point x="105" y="247"/>
      <point x="72" y="188"/>
      <point x="62" y="133" type="curve"/>
      <point x="92" y="126" type="line"/>
      <point x="100" y="165"/>
      <point x="120" y="215"/>
      <point x="175" y="215" type="curve" smooth="yes"/>
      <point x="245" y="215"/>
      <point x="283" y="120"/>
    </contour>
  </outline>
</glyph>
<glyph name="Pcircle" format="2">
  <advance width="840"/>
  <unicode hex="24C5"/>
  <outline>
    <contour>
      <point x="420" y="2" type="curve" smooth="yes"/>
      <point x="220" y="2"/>
      <point x="76" y="155"/>
      <point x="76" y="355" type="curve" smooth="yes"/>
      <point x="76" y="555"/>
      <point x="220" y="708"/>
      <point x="420" y="708" type="curve" smooth="yes"/>
      <point x="620" y="708"/>
      <point x="764" y="555"/>
      <point x="764" y="355" type="curve" smooth="yes"/>
      <point x="764" y="155"/>
      <point x="620" y="2"/>
    </contour>
    <contour>
      <point x="420" y="-28" type="curve" smooth="yes"/>
      <point x="635" y="-28"/>
      <point x="800" y="138"/>
      <point x="800" y="355" type="curve" smooth="yes"/>
      <point x="800" y="572"/>
      <point x="635" y="738"/>
      <point x="420" y="738" type="curve" smooth="yes"/>
      <point x="205" y="738"/>
      <point x="40" y="572"/>
      <point x="40" y="355" type="curve" smooth="yes"/>
      <point x="40" y="138"/>
      <point x="205" y="-28"/>
    </contour>
    <contour>
      <point x="440" y="180" type="line"/>
      <point x="415" y="180" type="line" smooth="yes"/>
      <point x="396" y="180"/>
      <point x="371" y="181"/>
      <point x="371" y="185" type="curve" smooth="yes"/>
      <point x="371" y="310" type="line"/>
      <point x="449" y="310" type="line" smooth="yes"/>
      <point x="537" y="310"/>
      <point x="599" y="359"/>
      <point x="599" y="437" type="curve" smooth="yes"/>
      <point x="599" y="513"/>
      <point x="542" y="557"/>
      <point x="452" y="557" type="curve" smooth="yes"/>
      <point x="276" y="557" type="line"/>
      <point x="276" y="530" type="line"/>
      <point x="282" y="530" type="line" smooth="yes"/>
      <point x="310" y="530"/>
      <point x="331" y="526"/>
      <point x="331" y="510" type="curve" smooth="yes"/>
      <point x="331" y="200" type="line" smooth="yes"/>
      <point x="331" y="184"/>
      <point x="310" y="180"/>
      <point x="282" y="180" type="curve" smooth="yes"/>
      <point x="276" y="180" type="line"/>
      <point x="276" y="153" type="line"/>
      <point x="440" y="153" type="line"/>
    </contour>
    <contour>
      <point x="371" y="527" type="line"/>
      <point x="452" y="527" type="line" smooth="yes"/>
      <point x="522" y="527"/>
      <point x="556" y="501"/>
      <point x="556" y="437" type="curve" smooth="yes"/>
      <point x="556" y="373"/>
      <point x="522" y="340"/>
      <point x="449" y="340" type="curve" smooth="yes"/>
      <point x="371" y="340" type="line"/>
    </contour>
  </outline>
</glyph>
<glyph name="one.den" format="2">
  <advance width="325"/>
  <unicode hex="E403"/>
  <outline>
    <contour>
      <point x="189" y="52" type="curve" smooth="yes"/>
      <point x="189" y="341" type="line"/>
      <point x="166" y="341" type="line"/>
      <point x="146" y="313"/>
      <point x="109" y="299"/>
      <point x="47" y="298" type="curve"/>
      <point x="47" y="263" type="line"/>
      <point x="103" y="262"/>
      <point x="147" y="278"/>
      <point x="159" y="312" type="curve"/>
      <point x="149" y="306" type="line"/>
      <point x="149" y="52" type="line" smooth="yes"/>
      <point x="149" y="34"/>
      <point x="125" y="30"/>
      <point x="90" y="30" type="curve" smooth="yes"/>
      <point x="57" y="30" type="line"/>
      <point x="57" y="0" type="line"/>
      <point x="278" y="0" type="line"/>
      <point x="278" y="30" type="line"/>
      <point x="252" y="30" type="line" smooth="yes"/>
      <point x="214" y="30"/>
      <point x="189" y="34"/>
    </contour>
  </outline>
</glyph>
<glyph name="two.den" format="2">
  <advance width="324"/>
  <unicode hex="E404"/>
  <outline>
    <contour>
      <point x="189" y="28" type="line" smooth="yes"/>
      <point x="234" y="28"/>
      <point x="251" y="32"/>
      <point x="253" y="51" type="curve" smooth="yes"/>
      <point x="258" y="90" type="line"/>
      <point x="284" y="90" type="line"/>
      <point x="284" y="0" type="line"/>
      <point x="26" y="0" type="line"/>
      <point x="26" y="33" type="line"/>
      <point x="132" y="98"/>
      <point x="226" y="162.126903553"/>
      <point x="226" y="247" type="curve" smooth="yes"/>
      <point x="226" y="295"/>
      <point x="197" y="316"/>
      <point x="153" y="316" type="curve" smooth="yes"/>
      <point x="115" y="316"/>
      <point x="84" y="299"/>
      <point x="68" y="270" type="curve"/>
      <point x="68" y="291"/>
      <point x="78" y="304"/>
      <point x="80" y="304" type="curve"/>
      <point x="80" y="236" type="line"/>
      <point x="37" y="236" type="line"/>
      <point x="37" y="288" type="line"/>
      <point x="55" y="317"/>
      <point x="97" y="346"/>
      <point x="154" y="346" type="curve" smooth="yes"/>
      <point x="228" y="346"/>
      <point x="271" y="310"/>
      <point x="271" y="245" type="curve" smooth="yes"/>
      <point x="271" y="156.2"/>
      <point x="155" y="73"/>
      <point x="56" y="21" type="curve"/>
      <point x="51" y="22"/>
      <point x="51" y="26"/>
      <point x="52" y="28" type="curve"/>
    </contour>
  </outline>
</glyph>
<glyph name="six.den" format="2">
  <advance width="324"/>
  <unicode hex="E408"/>
  <outline>
    <contour>
      <point x="253" y="328" type="line"/>
      <point x="141" y="308"/>
      <point x="82" y="237"/>
      <point x="82" y="143" type="curve" smooth="yes"/>
      <point x="82" y="61"/>
      <point x="114" y="24"/>
      <point x="163" y="24" type="curve" smooth="yes"/>
      <point x="210" y="24"/>
      <point x="242" y="61"/>
      <point x="242" y="117" type="curve" smooth="yes"/>
      <point x="242" y="160"/>
      <point x="223" y="194"/>
      <point x="172" y="194" type="curve" smooth="yes"/>
      <point x="127" y="194"/>
      <point x="89" y="161"/>
      <point x="66" y="114" type="curve"/>
      <point x="58" y="142" type="line"/>
      <point x="74" y="180"/>
      <point x="120" y="225"/>
      <point x="178" y="225" type="curve" smooth="yes"/>
      <point x="247" y="225"/>
      <point x="287" y="182"/>
      <point x="287" y="117" type="curve" smooth="yes"/>
      <point x="287" y="47"/>
      <point x="234" y="-6"/>
      <point x="163" y="-6" type="curve" smooth="yes"/>
      <point x="89" y="-6"/>
      <point x="37" y="47"/>
      <point x="37" y="143" type="curve" smooth="yes"/>
      <point x="37" y="249"/>
      <point x="115" y="338"/>
      <point x="249" y="358" type="curve"/>
    </contour>
  </outline>
</glyph>
<glyph name="f_f" format="2">
  <advance width="696"/>
  <unicode hex="FB00"/>
  <outline>
    <contour>
      <point x="35" y="508" type="line"/>
      <point x="35" y="481" type="line"/>
      <point x="440" y="481" type="line"/>
      <point x="440" y="508" type="line"/>
    </contour>
    <contour>
      <point x="362" y="508" type="line"/>
      <point x="362" y="481" type="line"/>
      <point x="667" y="481" type="line"/>
      <point x="667" y="508" type="line"/>
    </contour>
    <contour>
      <point x="466" y="37" type="line"/>
      <point x="466" y="30"/>
      <point x="421" y="27"/>
      <point x="383" y="27" type="curve" smooth="yes"/>
      <point x="367" y="27" type="line"/>
      <point x="367" y="0" type="line"/>
      <point x="614" y="0" type="line"/>
      <point x="614" y="27" type="line"/>
      <point x="601" y="27" type="line" smooth="yes"/>
      <point x="547" y="27"/>
      <point x="506" y="30"/>
      <point x="506" y="37" type="curve" smooth="yes"/>
      <point x="506" y="596" type="line" smooth="yes"/>
      <point x="506" y="695"/>
      <point x="546" y="722"/>
      <point x="611" y="722" type="curve" smooth="yes"/>
      <point x="640" y="722"/>
      <point x="666" y="716"/>
      <point x="686" y="709" type="curve"/>
      <point x="686" y="742" type="line"/>
      <point x="670" y="748"/>
      <point x="643" y="752"/>
      <point x="613" y="752" type="curve" smooth="yes"/>
      <point x="528" y="752"/>
      <point x="466" y="709"/>
      <point x="466" y="596" type="curve"/>
    </contour>
    <contour>
      <point x="179" y="37" type="curve"/>
      <point x="179" y="577" type="line" smooth="yes"/>
      <point x="179" y="676"/>
      <point x="217" y="710"/>
      <point x="280" y="710" type="curve" smooth="yes"/>
      <point x="312" y="710"/>
      <point x="338" y="701"/>
      <point x="359" y="693" type="curve"/>
      <point x="359" y="727" type="line"/>
      <point x="341" y="733"/>
      <point x="312" y="737"/>
      <point x="282" y="737" type="curve" smooth="yes"/>
      <point x="199" y="737"/>
      <point x="139" y="690"/>
      <point x="139" y="577" type="curve" smooth="yes"/>
      <point x="139" y="63" type="line" smooth="yes"/>
      <point x="139" y="34"/>
      <point x="106" y="27"/>
      <point x="51" y="27" type="curve" smooth="yes"/>
      <point x="40" y="27" type="line"/>
      <point x="40" y="0" type="line"/>
      <point x="287" y="0" type="line"/>
      <point x="287" y="27" type="line"/>
      <point x="274" y="27" type="line" smooth="yes"/>
      <point x="220" y="27"/>
      <point x="179" y="30"/>
    </contour>
  </outline>
</glyph>
